<svg id="Component_6_1" data-name="Component 6 – 1" xmlns="http://www.w3.org/2000/svg" xmlns:xlink="http://www.w3.org/1999/xlink" width="175.5" height="130" viewBox="0 0 175.5 130">
  <defs>
    <clipPath id="clip-path">
      <path id="path18" d="M0-666.665H130v130H0Z" transform="translate(0 666.665)"/>
    </clipPath>
    <clipPath id="clip-path-2">
      <path id="path178" d="M284.511-346.211h30.273v18.7H284.511Z" transform="translate(-284.511 346.211)"/>
    </clipPath>
    <clipPath id="clip-path-3">
      <path id="path210" d="M448.432-539.137h2.976v6.359h-2.976Z" transform="translate(-448.432 539.137)"/>
    </clipPath>
    <clipPath id="clip-path-4">
      <path id="path214" d="M448.49-539.137l2.918,5.271L450.5-532.8a1.605,1.605,0,0,1-.72-.04l-.161-.185.458-.7-1.644-3.878Z" transform="translate(-448.432 539.137)"/>
    </clipPath>
    <linearGradient id="linear-gradient" x1="-29.384" y1="16.533" x2="-29.296" y2="16.533" gradientUnits="objectBoundingBox">
      <stop offset="0" stop-color="#d37897"/>
      <stop offset="0.899" stop-color="#bc547c"/>
      <stop offset="1" stop-color="#bc547c"/>
    </linearGradient>
    <clipPath id="clip-path-6">
      <path id="path550" d="M160.8-150.163a1.473,1.473,0,0,0-1.34,1.794h0l1.55,4.763a1,1,0,0,0,.931.718h2.175l5.238-7.345Z" transform="translate(-159.432 150.234)"/>
    </clipPath>
    <linearGradient id="linear-gradient-2" x1="-4.027" y1="5.599" x2="-3.993" y2="5.599" gradientUnits="objectBoundingBox">
      <stop offset="0" stop-color="#484ec2"/>
      <stop offset="1" stop-color="#444bcc"/>
    </linearGradient>
  </defs>
  <g id="gamification">
    <rect id="Rectangle_1" data-name="Rectangle 1" width="75" height="10" rx="5" transform="translate(53.52)" fill="rgba(192,183,255,0.4)"/>
    <rect id="Rectangle_7" data-name="Rectangle 7" width="132.5" height="10" rx="5" transform="translate(25 19.867)" fill="rgba(192,183,255,0.4)"/>
    <rect id="Rectangle_17" data-name="Rectangle 17" width="139" height="10" rx="5" transform="translate(12 39.733)" fill="rgba(192,183,255,0.4)"/>
    <rect id="Rectangle_21" data-name="Rectangle 21" width="150" height="10" rx="5" transform="translate(8 59.6)" fill="rgba(192,183,255,0.4)"/>
    <rect id="Rectangle_25" data-name="Rectangle 25" width="133.5" height="10" rx="5" transform="translate(42 79.467)" fill="rgba(192,183,255,0.4)"/>
    <rect id="Rectangle_29" data-name="Rectangle 29" width="147" height="10" rx="5" transform="translate(0 99.333)" fill="rgba(192,183,255,0.4)"/>
    <rect id="Rectangle_33" data-name="Rectangle 33" width="100" height="10" rx="5" transform="translate(41.528 119.2)" fill="rgba(192,183,255,0.4)"/>
    <path id="Exclusion_10" data-name="Exclusion 10" d="M72.667,10H.005A5.005,5.005,0,0,0,5,5,5.006,5.006,0,0,0,0,0H72.674a5,5,0,0,0-.007,10Z" transform="translate(52.28 49.667)" fill="rgba(192,183,255,0.4)"/>
    <path id="Exclusion_12" data-name="Exclusion 12" d="M59.875,10H.007A5.006,5.006,0,0,0,5,5,5.006,5.006,0,0,0,0,0H59.882a5,5,0,0,0-.007,10Z" transform="translate(68.913 69.533)" fill="rgba(192,183,255,0.4)"/>
    <path id="Exclusion_20" data-name="Exclusion 20" d="M48.641,10H-.921A5.006,5.006,0,0,0,4.072,5a5.006,5.006,0,0,0-5-5H48.648a5,5,0,0,0-.007,10Z" transform="translate(62.913 89.533)" fill="rgba(192,183,255,0.4)"/>
    <path id="Exclusion_16" data-name="Exclusion 16" d="M54.482,10H.007A5.006,5.006,0,0,0,5,5,5.006,5.006,0,0,0,0,0H54.489a5,5,0,0,0-3.437,8.487A4.973,4.973,0,0,0,54.482,10Z" transform="translate(64.516 109.2)" fill="rgba(192,183,255,0.4)"/>
    <path id="Exclusion_17" data-name="Exclusion 17" d="M59.807,10H33.364a5,5,0,0,0-.007-10H59.821a5,5,0,0,0-.014,10ZM30.214,10H.007A5.006,5.006,0,0,0,5,5,5.005,5.005,0,0,0,0,0H30.35a5,5,0,0,0-.136,10Z" transform="translate(59.897 29.8)" fill="rgba(192,183,255,0.4)"/>
    <path id="Exclusion_6" data-name="Exclusion 6" d="M39.8,10H.007A5.006,5.006,0,0,0,5,5,5.006,5.006,0,0,0,0,0H39.807A5,5,0,0,0,39.8,10Z" transform="translate(71.152 10)" fill="rgba(192,183,255,0.4)"/>
  </g>
  <g id="g10" transform="translate(12.63)">
    <g id="g14" transform="translate(0 0)">
      <g id="g16" clip-path="url(#clip-path)">
        <g id="g38" transform="translate(56.03 44.421)">
          <path id="path40" d="M-37.908-10.2a1.757,1.757,0,0,0-1.653-1.165,1.748,1.748,0,0,0-.943.276,2.434,2.434,0,0,0-2.28-1.583A2.433,2.433,0,0,0-44.973-11.3a1.755,1.755,0,0,0-.465-.064A1.757,1.757,0,0,0-47.091-10.2Z" transform="translate(47.091 12.676)" fill="#fff"/>
        </g>
        <g id="g42" transform="translate(105.258 36.937)">
          <path id="path44" d="M-52.482-26.241a6.357,6.357,0,0,1-6.356,6.356,6.357,6.357,0,0,1-6.356-6.356A6.357,6.357,0,0,1-58.838-32.6a6.357,6.357,0,0,1,6.356,6.356" transform="translate(65.195 32.597)" fill="#efc260"/>
        </g>
        <g id="g46" transform="translate(104.731 77.345)">
          <path id="path48" d="M-26.525,0h0a6.444,6.444,0,0,0-6.425,6.426V18.01a6.444,6.444,0,0,0,6.425,6.425A6.444,6.444,0,0,0-20.1,18.01V6.426A6.444,6.444,0,0,0-26.525,0" transform="translate(32.951 0)" fill="#a194ef"/>
        </g>
        <path id="path50" d="M569.366-225.747h-.219v-28.287h.219Z" transform="translate(-458.163 334.497)" fill="#fff"/>
        <g id="g52" transform="translate(107.884 88.847)">
          <path id="path54" d="M0-.6,3.141,2.041l3.516-2.5L6.541-.641l-3.388,2.4L.169-.743Z" transform="translate(0 0.743)" fill="#fff"/>
        </g>
        <g id="g56" transform="translate(107.884 95.139)">
          <path id="path58" d="M0-.6,3.141,2.041l3.516-2.5L6.541-.641l-3.388,2.4L.169-.743Z" transform="translate(0 0.743)" fill="#fff"/>
        </g>
        <g id="g60" transform="translate(107.884 82.556)">
          <path id="path62" d="M0-.6,3.141,2.041l3.516-2.5L6.541-.641l-3.388,2.4L.169-.743Z" transform="translate(0 0.743)" fill="#fff"/>
        </g>
        <g id="g64" transform="translate(109.436 108.524)">
          <path id="path66" d="M-14.551-1.019h-3.4a.123.123,0,0,1-.124-.123.123.123,0,0,1,.124-.123h3.4a.123.123,0,0,1,.123.123.123.123,0,0,1-.123.123" transform="translate(18.076 1.265)" fill="#a194ef"/>
        </g>
        <g id="g68" transform="translate(16.236 79.818)">
          <path id="path70" d="M-19.316,0h0a4.693,4.693,0,0,0-4.679,4.679v8.436a4.693,4.693,0,0,0,4.679,4.679,4.693,4.693,0,0,0,4.679-4.679V4.679A4.693,4.693,0,0,0-19.316,0" transform="translate(23.995)" fill="#a194ef"/>
        </g>
        <path id="path72" d="M106.771-225.1h-.16v-20.6h.16Z" transform="translate(-85.822 327.786)" fill="#fff"/>
        <g id="g74" transform="translate(18.532 88.195)">
          <path id="path76" d="M0-.435,2.287,1.487,4.848-.331,4.763-.466,2.3,1.285.123-.54Z" transform="translate(0 0.54)" fill="#fff"/>
        </g>
        <g id="g78" transform="translate(18.532 92.776)">
          <path id="path80" d="M0-.435,2.287,1.487,4.848-.331,4.763-.466,2.3,1.285.123-.54Z" transform="translate(0 0.54)" fill="#fff"/>
        </g>
        <g id="g82" transform="translate(18.532 83.613)">
          <path id="path84" d="M0-.434,2.287,1.488,4.848-.329,4.763-.465,2.3,1.286.123-.539Z" transform="translate(0 0.539)" fill="#fff"/>
        </g>
        <g id="g86" transform="translate(19.662 102.523)">
          <path id="path88" d="M-10.6-.742h-2.477a.09.09,0,0,1-.09-.09.09.09,0,0,1,.09-.09H-10.6a.09.09,0,0,1,.09.09.09.09,0,0,1-.09.09" transform="translate(13.163 0.921)" fill="#a194ef"/>
        </g>
        <g id="g90" transform="translate(97.495 42.94)">
          <path id="path92" d="M-64.4-17.336a2.985,2.985,0,0,0-2.808-1.979,2.968,2.968,0,0,0-1.6.469,4.134,4.134,0,0,0-3.873-2.69,4.133,4.133,0,0,0-3.72,2.33,2.973,2.973,0,0,0-.789-.109A2.985,2.985,0,0,0-80-17.336Z" transform="translate(80.001 21.536)" fill="#fff"/>
        </g>
        <g id="g94" transform="translate(39.151 35.956)">
          <path id="path96" d="M-204.115,0h-47.19a2.254,2.254,0,0,0-2.254,2.254V69.379a2.253,2.253,0,0,0,2.254,2.254h47.19a2.254,2.254,0,0,0,2.254-2.254V2.254A2.254,2.254,0,0,0-204.115,0" transform="translate(253.559)" fill="#c0b8fc"/>
        </g>
        <path id="path98" d="M222.307-461.737h43.3v63.873h-43.3Z" transform="translate(-178.957 501.698)" fill="#fff"/>
        <path id="path100" d="M222.307-468.423h43.3v63.873h-43.3Z" transform="translate(-178.957 507.08)" fill="#fff"/>
        <g id="g102" transform="translate(50.047 38.657)">
          <path id="path104" d="M0,0A3.366,3.366,0,0,0,3.364,3.307H26.542A3.366,3.366,0,0,0,29.906,0Z" fill="#3e3577"/>
        </g>
        <g id="g106" transform="translate(50.044 28.333)">
          <path id="path108" d="M-63.376-25.554a2.025,2.025,0,0,1-2.38-2.38,2.015,2.015,0,0,1,1.589-1.588,2.025,2.025,0,0,1,2.379,2.38,2.014,2.014,0,0,1-1.588,1.589m13.839-.157a2.359,2.359,0,0,0-2.3-1.827h-7.731a4.206,4.206,0,0,0-4.206-4.206,4.206,4.206,0,0,0-4.206,4.206H-75.71a2.358,2.358,0,0,0-2.3,1.827l-.632,2.734a3.365,3.365,0,0,0,3.278,4.123h23.179a3.365,3.365,0,0,0,3.278-4.122Z" transform="translate(78.728 31.744)" fill="#a194ef"/>
        </g>
        <path id="path110" d="M240-424.986h8.955v-8.956H240Zm9.824.869H239.134v-10.694h10.693Z" transform="translate(-192.503 480.023)" fill="#a194ef"/>
        <path id="path112" d="M307.022-428.992h11.9v1.863h-11.9Z" transform="translate(-247.153 475.339)" fill="#a194ef"/>
        <path id="path114" d="M307.022-408.627h23.8v1.863h-23.8Z" transform="translate(-247.153 458.944)" fill="#a194ef"/>
        <path id="path116" d="M307.022-389.64h23.8v1.863h-23.8Z" transform="translate(-247.153 443.66)" fill="#a194ef"/>
        <g id="g118" transform="translate(49.058 44.253)">
          <path id="path120" d="M-38.118,0l-6.056,6.15-1.8-1.584-1.381,1.566,3.275,2.888,7.444-7.552Z" transform="translate(47.352)" fill="#e793a7"/>
        </g>
        <path id="path122" d="M240-352.206h8.955v-8.956H240Zm9.824.868H239.134v-10.693h10.693Z" transform="translate(-192.503 421.435)" fill="#a194ef"/>
        <path id="path124" d="M307.022-356.212h11.9v1.863h-11.9Z" transform="translate(-247.153 416.751)" fill="#a194ef"/>
        <path id="path126" d="M307.022-335.846h23.8v1.863h-23.8Z" transform="translate(-247.153 400.356)" fill="#a194ef"/>
        <path id="path128" d="M307.022-316.861h23.8V-315h-23.8Z" transform="translate(-247.153 385.073)" fill="#a194ef"/>
        <g id="g130" transform="translate(54.124 58.446)">
          <path id="path132" d="M-17.2,0l-4.167,4.249L-20.039,5.8l4.321-4.335Z" transform="translate(21.371)" fill="#e793a7"/>
        </g>
        <path id="path134" d="M240-279.428h8.955v-8.956H240Zm9.824.868H239.134v-10.693h10.693Z" transform="translate(-192.503 362.848)" fill="#a194ef"/>
        <path id="path136" d="M307.022-283.433h11.9v1.863h-11.9Z" transform="translate(-247.153 358.163)" fill="#a194ef"/>
        <path id="path138" d="M307.022-263.067h23.8v1.863h-23.8Z" transform="translate(-247.153 341.769)" fill="#a194ef"/>
        <path id="path140" d="M307.022-244.081h23.8v1.862h-23.8Z" transform="translate(-247.153 326.485)" fill="#a194ef"/>
        <g id="g142" transform="translate(49.058 72.638)">
          <path id="path144" d="M-38.118,0l-6.056,6.15-1.8-1.584-1.381,1.566,3.275,2.888,7.444-7.552Z" transform="translate(47.352)" fill="#e793a7"/>
        </g>
        <path id="path146" d="M240-205.38h8.955v-8.956H240Zm9.824.869H239.134V-215.2h10.693Z" transform="translate(-192.503 303.24)" fill="#a194ef"/>
        <path id="path148" d="M307.022-209.386h11.9v1.862h-11.9Z" transform="translate(-247.153 298.556)" fill="#a194ef"/>
        <path id="path150" d="M307.022-189.021h23.8v1.862h-23.8Z" transform="translate(-247.153 282.162)" fill="#a194ef"/>
        <path id="path152" d="M307.022-170.034h23.8v1.862h-23.8Z" transform="translate(-247.153 266.877)" fill="#a194ef"/>
        <g id="g154" transform="translate(49.058 87.077)">
          <path id="path156" d="M-38.118,0l-6.056,6.15-1.8-1.584-1.381,1.566,3.275,2.888,7.444-7.552Z" transform="translate(47.352)" fill="#e793a7"/>
        </g>
        <g id="g158" transform="translate(52.942 62.25)">
          <path id="path160" d="M-9.091-11.652l-2.064-1.207a.279.279,0,0,1-.138-.234.279.279,0,0,1,.127-.241l1.68-1.1a.279.279,0,0,1,.293-.007l1.29.755a.279.279,0,0,1,.1.382l-.906,1.548a.279.279,0,0,1-.382.1" transform="translate(11.294 14.475)" fill="#d87d98"/>
        </g>
        <g id="g162" transform="translate(52.942 62.919)">
          <path id="path164" d="M-3.507,0-4.23.471a.279.279,0,0,0-.126.24.279.279,0,0,0,.138.234l2.064,1.207a.279.279,0,0,0,.382-.1l.453-.774Z" transform="translate(4.356)" fill="#e793a7"/>
        </g>
        <g id="g166" transform="translate(54.704 62.489)">
          <path id="path168" d="M-103.973-81.866-125.564-94.5a2.7,2.7,0,0,1-1.329-1.9,2.207,2.207,0,0,0-1.071-1.582l-1.057-.618a.279.279,0,0,1-.1-.382l1.509-2.58a.279.279,0,0,1,.382-.1l1.066.623a2.263,2.263,0,0,0,1.894.154,2.763,2.763,0,0,1,2.307.226l21.592,12.631a3.365,3.365,0,0,1,1.206,4.6l-.2.348a3.366,3.366,0,0,1-4.6,1.206" transform="translate(129.159 101.698)" fill="#fff"/>
        </g>
        <g id="g170" transform="translate(58.175 63.496)">
          <path id="path172" d="M-13.958-.525-17.3,5.195a.252.252,0,0,0,.086.344h0L5.77,18.987a1.751,1.751,0,0,0,2.4-.627L10,15.225a1.751,1.751,0,0,0-.627-2.4L-13.613-.617h0a.252.252,0,0,0-.342.094" transform="translate(17.339 0.652)" fill="#e793a7"/>
        </g>
        <g id="g174" transform="translate(55.48 62.489)">
          <g id="g188">
            <g id="g186" opacity="0.2" clip-path="url(#clip-path-2)">
              <g id="g184" transform="translate(0 0)">
                <path id="path182" d="M-121.394-59.811l-22.986-13.447h0a2.764,2.764,0,0,0-2.3-.225,2.263,2.263,0,0,1-1.894-.154l-1.066-.624a.279.279,0,0,0-.382.1l-.771,1.319c5.947,3.562,20.995,12.5,28.973,17.24l.144-.246.1-.174.815-1.394a1.751,1.751,0,0,0-.627-2.4" transform="translate(150.8 74.3)" fill="#d87d98"/>
              </g>
            </g>
          </g>
        </g>
        <g id="g190" transform="translate(85.785 46.583)">
          <path id="path192" d="M-3.487-1.212-3.5.164s.174.881.313,1.82a6.083,6.083,0,0,1,.1,2.168c-.278.464-.835,0-.927-.464S-4.239.35-4.239.35l-.093-1.855Z" transform="translate(4.332 1.505)" fill="#2d2c56"/>
        </g>
        <g id="g194" transform="translate(87.57 46.693)">
          <path id="path196" d="M-1.932,0l-.212,1.235A19.669,19.669,0,0,0-2.33,5.13c.232.51.974.278.927-.417s.139-3.153.139-3.153L-.846.076Z" transform="translate(2.4)" fill="#2d2c56"/>
        </g>
        <g id="g198" transform="translate(80.809 31.564)">
          <path id="path200" d="M-27.472-.209l-.1,1.524,3.926,1.895a1.693,1.693,0,0,1,.816,1.982L-25.551,15.3l-1.347-.428,1.2-9.3a1.054,1.054,0,0,0-.88-1.194l-1.4-.219-1.489-1.517,1.721,1.545A1.693,1.693,0,0,1-27.2,5.672l-1.105,9.38-1.224.306-.547-9.235a1.428,1.428,0,0,0-.993-1.265l-2.42-.767a1.33,1.33,0,0,1-.637-1.1l.1-3.251Z" transform="translate(34.127 0.26)" fill="#3e3577"/>
        </g>
        <g id="g202" transform="translate(80.662 22.247)">
          <path id="path204" d="M0-52.758.648-65.378s2.684-.161,3.482-.161a7.224,7.224,0,0,1,1.765.395c.551.177,1.009.161,1.277.674l4.4,8.436-2.7.258-.9-1.03.458-.7L6.783-61.379l.323,7.042Z" transform="translate(0 65.539)" fill="#efc260"/>
        </g>
        <g id="g206" transform="translate(87.444 24.868)">
          <g id="g266">
            <g id="g264" opacity="0.5" clip-path="url(#clip-path-3)">
              <g id="g262">
                <g id="g260" clip-path="url(#clip-path-4)">
                  <g id="g258">
                    <g id="g256">
                      <g id="g254">
                        <path id="path252" d="M448.49-539.137l2.918,5.271L450.5-532.8a1.605,1.605,0,0,1-.72-.04l-.161-.185.458-.7-1.644-3.878Z" transform="translate(-448.432 539.137)" fill="url(#linear-gradient)"/>
                      </g>
                    </g>
                  </g>
                </g>
              </g>
            </g>
          </g>
        </g>
        <g id="g268" transform="translate(82.397 22.247)">
          <path id="path270" d="M-10.377-15.733c-.887,0-2.514-2.316-2.514-3.2a1.605,1.605,0,0,1,.085-.514c.827-.044,1.864-.095,2.311-.095a3.6,3.6,0,0,1,.735.106,1.6,1.6,0,0,1,.081.5c0,.887.188,3.2-.7,3.2" transform="translate(12.891 19.544)" fill="#fff"/>
        </g>
        <g id="g272" transform="translate(80.662 24.586)">
          <path id="path274" d="M-1.364,0l-.33,10.513L2.648,9.472Z" transform="translate(1.695)" fill="#d8ac55"/>
        </g>
        <g id="g276" transform="translate(83.182 20.196)">
          <path id="path278" d="M-7.769-3.108c-.075.151-.6,2.221-.6,2.221a.668.668,0,0,1-.64.3c-.452-.038-.64-.678-.64-.678l.79-2.6Z" transform="translate(9.651 3.861)" fill="#eebcc5"/>
        </g>
        <g id="g280" transform="translate(82.278 17.091)">
          <path id="path282" d="M0-10.66a3.3,3.3,0,0,0,2.94,3c1.426,0,2.224-1.578,2.224-3a2.582,2.582,0,0,0-2.582-2.582A2.582,2.582,0,0,0,0-10.66" transform="translate(0 13.243)" fill="#eebcc5"/>
        </g>
        <g id="g284" transform="translate(82.006 16.973)">
          <path id="path286" d="M0-12A2.907,2.907,0,0,0,2.907-9.095,2.907,2.907,0,0,0,5.814-12a2.907,2.907,0,0,0-2.907-2.907A2.907,2.907,0,0,0,0-12" transform="translate(0 14.909)" fill="#eebcc5"/>
        </g>
        <g id="g288" transform="translate(86.789 21.337)">
          <path id="path290" d="M-.158-.509c-.058.1-.049.214.02.254s.172-.009.23-.11S.141-.579.072-.619-.1-.61-.158-.509" transform="translate(0.196 0.633)" fill="#3e3577"/>
        </g>
        <g id="g292" transform="translate(85.322 21.483)">
          <path id="path294" d="M-.173-.56c-.063.11-.054.235.022.279S.038-.291.1-.4.156-.636.08-.68s-.189.01-.253.12" transform="translate(0.215 0.695)" fill="#3e3577"/>
        </g>
        <g id="g296" transform="translate(84.208 33.314)">
          <path id="path298" d="M-.658-2.064a5.488,5.488,0,0,1,1.745-.5,3.009,3.009,0,0,1,1.506.715s.113.376-.339.3.062.284.062.284a4.054,4.054,0,0,1-.552.092C1.237-1.1-.817-1.207-.817-1.207Z" transform="translate(0.817 2.564)" fill="#eebcc5"/>
        </g>
        <g id="g300" transform="translate(78.725 22.408)">
          <path id="path302" d="M-10.672,0l-.363,8.305,3.414,3.089-.162.867-4.807-2.567a1.258,1.258,0,0,1-.654-1.282l.877-6.356A2.288,2.288,0,0,1-11.1.212Z" transform="translate(13.257)" fill="#efc260"/>
        </g>
        <g id="g304" transform="translate(83.698 34.744)">
          <path id="path306" d="M-1.316-2.632h8.7v-.638h-8.7a.319.319,0,0,0-.319.319.319.319,0,0,0,.319.319" transform="translate(1.635 3.269)" fill="#fff"/>
        </g>
        <g id="g308" transform="translate(86.403 28.169)">
          <path id="path310" d="M0-29.772H8.386a.818.818,0,0,0,.79-.608l1.48-5.576a.818.818,0,0,0-.79-1.028H2.543a.818.818,0,0,0-.79.608Z" transform="translate(0 36.984)" fill="#fff"/>
        </g>
        <g id="g312" transform="translate(91.321 31.61)">
          <path id="path314" d="M-.084-2.719a.5.5,0,0,0,.511.659.916.916,0,0,0,.844-.659A.5.5,0,0,0,.76-3.377a.916.916,0,0,0-.844.659" transform="translate(0.104 3.377)" fill="#3e3577"/>
        </g>
        <g id="g316" transform="translate(82.006 16.974)">
          <path id="path318" d="M-12,0A2.907,2.907,0,0,1-9.116,2.571,2.361,2.361,0,0,1-10.9,3,2.357,2.357,0,0,1-12.6,1.7a4.084,4.084,0,0,1-.009.966,1.377,1.377,0,0,1-.44.84,1.465,1.465,0,0,0-.158-.654.5.5,0,0,0-.575-.247.469.469,0,0,0-.271.377.96.96,0,0,0,.078.475,2.05,2.05,0,0,0,.4.645,4.225,4.225,0,0,1-1.049.062,2.888,2.888,0,0,1-.287-1.253A2.907,2.907,0,0,1-12,0" transform="translate(14.909 0)" fill="#3e3577"/>
        </g>
        <g id="g320" transform="translate(82.418 19.479)">
          <path id="path322" d="M0-3.636a.881.881,0,0,0,.881.881.881.881,0,0,0,.881-.881.881.881,0,0,0-.881-.881A.881.881,0,0,0,0-3.636" transform="translate(0 4.517)" fill="#eebcc5"/>
        </g>
        <g id="g324" transform="translate(87.879 46.693)">
          <path id="path326" d="M-.655,0-.813.923l.924.291L.367.3Z" transform="translate(0.813)" fill="#eebcc5"/>
        </g>
        <g id="g328" transform="translate(85.81 46.877)">
          <path id="path330" d="M-3.353-4.254l-.764.147-.049-.973.82-.2Z" transform="translate(4.165 5.284)" fill="#eebcc5"/>
        </g>
        <g id="g332" transform="translate(81.428 14.062)">
          <path id="path334" d="M0-7.741A1.875,1.875,0,0,0,1.875-5.866,1.875,1.875,0,0,0,3.75-7.741,1.875,1.875,0,0,0,1.875-9.616,1.875,1.875,0,0,0,0-7.741" transform="translate(0 9.616)" fill="#3e3577"/>
        </g>
        <g id="g336" transform="translate(95.743 99.189)">
          <path id="path338" d="M-2.87,0l1.453.569-.379.948-1.77-.505Z" transform="translate(3.565)" fill="#fff"/>
        </g>
        <g id="g340" transform="translate(82.531 109.098)">
          <path id="path342" d="M-6.28-.309-5.928.913l-1.009.216L-7.8-.384Z" transform="translate(7.801 0.384)" fill="#fff"/>
        </g>
        <g id="g344" transform="translate(75.587 73.274)">
          <path id="path346" d="M-24.6-12.3a2.98,2.98,0,0,1-2.98,2.98,2.98,2.98,0,0,1-2.98-2.98,2.98,2.98,0,0,1,2.98-2.98A2.98,2.98,0,0,1-24.6-12.3" transform="translate(30.561 15.281)" fill="#eebcc5"/>
        </g>
        <g id="g348" transform="translate(76.836 77.558)">
          <path id="path350" d="M0,0,.951,2.881a13.725,13.725,0,0,0,1.9.531c0-.1-.886-3.281-.886-3.281Z" fill="#eebcc5"/>
        </g>
        <g id="g352" transform="translate(66.706 70.809)">
          <path id="path354" d="M-6.714-3.356a.813.813,0,0,1-.813.813.813.813,0,0,1-.813-.813.813.813,0,0,1,.813-.813.813.813,0,0,1,.813.813" transform="translate(8.34 4.169)" fill="#eebcc5"/>
        </g>
        <g id="g356" transform="translate(80.453 79.36)">
          <path id="path358" d="M-6.713-3.357a.813.813,0,0,1-.813.813.813.813,0,0,1-.813-.813.813.813,0,0,1,.813-.813.813.813,0,0,1,.813.813" transform="translate(8.339 4.171)" fill="#eebcc5"/>
        </g>
        <g id="g360" transform="translate(67.246 72.168)">
          <path id="path362" d="M0-2.883A58.089,58.089,0,0,0,3.607,2.989,18.467,18.467,0,0,0,7.522,5.811l.581,6.63,7.1-.273-.564-4.095s2.549,1.73,3.824,1.548,2.658-1.367.564-2.824a23.9,23.9,0,0,0-4.1-2.276l-.729.546a43.564,43.564,0,0,0-5.007-1.73c-.91-.091-7.374-6.919-7.374-6.919Z" transform="translate(0 3.581)" fill="#3e3577"/>
        </g>
        <g id="g364" transform="translate(75.349 87.917)">
          <path id="path366" d="M0-1.128S1.863,6.4,3,9.943,6.159,20.179,6.159,20.179L8.7,19.855,4.279,2.008,12.333,10.3l8.088,1.77.668-2.2L13.633,7.343,7.1-1.4Z" transform="translate(0 1.401)" fill="#efc260"/>
        </g>
      </g>
    </g>
    <g id="g418" transform="translate(0 0)">
      <g id="g420" clip-path="url(#clip-path)">
        <g id="g426" transform="translate(79.978 72.168)">
          <path id="path428" d="M-12.217-6.108A1.479,1.479,0,0,1-13.7-4.629a1.48,1.48,0,0,1-1.48-1.479,1.48,1.48,0,0,1,1.48-1.48,1.479,1.479,0,0,1,1.479,1.48" transform="translate(15.176 7.588)" fill="#3e3577"/>
        </g>
        <g id="g430" transform="translate(76.454 73.274)">
          <path id="path432" d="M-21.024-12.3A2.98,2.98,0,0,0-24-15.281a2.971,2.971,0,0,0-2.113.88,8.337,8.337,0,0,0,1.953,4.292,4.616,4.616,0,0,0,.694.737A2.979,2.979,0,0,0-21.024-12.3" transform="translate(26.117 15.281)" fill="#3e3577"/>
        </g>
        <g id="g434" transform="translate(76.634 75.665)">
          <path id="path436" d="M-9.422-4.711A1.141,1.141,0,0,1-10.563-3.57,1.141,1.141,0,0,1-11.7-4.711a1.141,1.141,0,0,1,1.141-1.141A1.141,1.141,0,0,1-9.422-4.711" transform="translate(11.704 5.852)" fill="#eebcc5"/>
        </g>
        <g id="g438" transform="translate(81.667 110.396)">
          <path id="path440" d="M-11.3,0l-1.009.216-.432.865-1.3.288v.5l3.387-.144Z" transform="translate(14.043)" fill="#3e3577"/>
        </g>
        <g id="g442" transform="translate(97.512 99.758)">
          <path id="path444" d="M0-3.913l.379-.948,1.161.367.081,3.2-.5.027S.6-2.907.549-2.948,0-3.913,0-3.913" transform="translate(0 4.861)" fill="#3e3577"/>
        </g>
        <g id="g446" transform="translate(76.266 89.156)">
          <path id="path448" d="M0,0A4.56,4.56,0,0,0,1.4,2.408" fill="none" stroke="#3f58fa" stroke-miterlimit="10" stroke-width="1.333"/>
        </g>
        <g id="g450" transform="translate(81.313 107.522)">
          <path id="path452" d="M0-.9l2.163-.218" transform="translate(0 1.117)" fill="none" stroke="#3f58fa" stroke-miterlimit="10" stroke-width="1.333"/>
        </g>
        <g id="g454" transform="translate(94.109 98.892)">
          <path id="path456" d="M-1.67,0l-.4,1.717" transform="translate(2.075)" fill="none" stroke="#3f58fa" stroke-miterlimit="10" stroke-width="1.333"/>
        </g>
        <g id="g458" transform="translate(33.567 92.496)">
          <path id="path460" d="M-34.1-38.057l-8.2.062-.062-8.163A1.064,1.064,0,0,1-41.3-47.23l6.069-.046a1.064,1.064,0,0,1,1.072,1.056Z" transform="translate(42.356 47.276)" fill="#a194ef"/>
        </g>
        <g id="g462" transform="translate(36.575 90.108)">
          <path id="path464" d="M-4.245-17.219h0a1,1,0,0,1-1.005-.99l-.023-3.033a.134.134,0,0,1,.133-.135l1.728-.013a.134.134,0,0,1,.135.133l.023,3.033a1,1,0,0,1-.99,1.005" transform="translate(5.273 21.391)" fill="#eebcc5"/>
        </g>
        <g id="g466" transform="translate(34.048 84.738)">
          <path id="path468" d="M-29-19.894c0-.034,0-.067,0-.1a3.521,3.521,0,0,0-.109-.872v-.387a3.469,3.469,0,0,0-3.459-3.459,3.469,3.469,0,0,0-3.459,3.459v1.36Z" transform="translate(36.021 24.713)" fill="#3e3577"/>
        </g>
        <g id="g470" transform="translate(34.321 85.069)">
          <path id="path472" d="M-26.335-14.546v-.334a3.2,3.2,0,0,0-3.19-3.19,3.2,3.2,0,0,0-3.19,3.19v1.307a1.169,1.169,0,0,0,.029.256A3.24,3.24,0,0,0-29.474-10.5a3.24,3.24,0,0,0,3.24-3.24,3.241,3.241,0,0,0-.1-.8" transform="translate(32.715 18.069)" fill="#eebcc5"/>
        </g>
        <g id="g474" transform="translate(36.041 89.723)">
          <path id="path476" d="M-2.024-1.013a.245.245,0,0,1-.245.245.245.245,0,0,1-.245-.245.245.245,0,0,1,.245-.245.245.245,0,0,1,.245.245" transform="translate(2.515 1.259)" fill="#3e3577"/>
        </g>
        <g id="g478" transform="translate(38.37 89.723)">
          <path id="path480" d="M-2.025-1.013a.245.245,0,0,1-.245.245.245.245,0,0,1-.245-.245.246.246,0,0,1,.245-.245.245.245,0,0,1,.245.245" transform="translate(2.516 1.259)" fill="#3e3577"/>
        </g>
        <g id="g482" transform="translate(33.436 88.95)">
          <path id="path484" d="M-7.449-3.724a.9.9,0,0,1-.9.9.9.9,0,0,1-.9-.9.9.9,0,0,1,.9-.9.9.9,0,0,1,.9.9" transform="translate(9.253 4.627)" fill="#eebcc5"/>
        </g>
        <g id="g486" transform="translate(39.799 88.95)">
          <path id="path488" d="M-7.449-3.724a.9.9,0,0,1-.9.9.9.9,0,0,1-.9-.9.9.9,0,0,1,.9-.9.9.9,0,0,1,.9.9" transform="translate(9.253 4.627)" fill="#eebcc5"/>
        </g>
        <g id="g490" transform="translate(33.774 89.26)">
          <path id="path492" d="M-2.241,0a.6.6,0,0,0-.543.593.6.6,0,0,0,.543.593Z" transform="translate(2.784)" fill="#d98e9d"/>
        </g>
        <g id="g494" transform="translate(40.64 89.26)">
          <path id="path496" d="M0,0A.6.6,0,0,1,.543.593.6.6,0,0,1,0,1.186Z" fill="#d98e9d"/>
        </g>
        <g id="g498" transform="translate(39.394 87.041)">
          <path id="path500" d="M-1.476-6.409c.086.274.211.588.488.665a.791.791,0,0,0,.631-.185A.466.466,0,0,0-.13-6.211a.489.489,0,0,0-.085-.3A5.2,5.2,0,0,0-.87-7.518c-.238-.267-.666-.7-.919-.243-.173.313.216,1.041.314,1.352" transform="translate(1.833 7.961)" fill="#3e3577"/>
        </g>
        <g id="g502" transform="translate(35.061 85.141)">
          <path id="path504" d="M-20.749-5.812a4.2,4.2,0,0,0-2.518-.836l.037-.572c-.937,0-1.842.881-2.545,1.4a3.559,3.559,0,0,0,2.516,1.357,3.559,3.559,0,0,0,2.51-1.35" transform="translate(25.775 7.22)" fill="#3e3577"/>
        </g>
        <g id="g506" transform="translate(28.67 92.577)">
          <path id="path508" d="M-.529-28.5a.761.761,0,0,1-.105-.61c.462-1.845,4.051-5.593,4.2-5.775a3.883,3.883,0,0,1,1.346-.519l.13,2.98-3.27,2.911a.758.758,0,0,0-.1.825l3.082,4.733-.919.707Z" transform="translate(0.658 35.405)" fill="#a194ef"/>
        </g>
        <g id="g510" transform="translate(40.931 92.577)">
          <path id="path512" d="M-24.272-29.2a.8.8,0,0,0,.1-.551c-.362-1.8-4.353-5.819-4.5-6a3.875,3.875,0,0,0-1.346-.519l-.13,2.98,3.6,3.1a.824.824,0,0,1,.106.8l-3.6,4.789,1.1.389Z" transform="translate(30.152 36.269)" fill="#a194ef"/>
        </g>
        <g id="g514" transform="translate(33.95 87.041)">
          <path id="path516" d="M-5.568-6.409c-.086.274-.211.588-.488.665a.791.791,0,0,1-.631-.185.466.466,0,0,1-.227-.282.49.49,0,0,1,.085-.3,5.213,5.213,0,0,1,.656-1.012c.238-.267.666-.7.919-.243.173.313-.216,1.041-.314,1.352" transform="translate(6.917 7.961)" fill="#3e3577"/>
        </g>
        <g id="g518" transform="translate(32.124 103.676)">
          <path id="path520" d="M-8.576-4.288A1.039,1.039,0,0,1-9.615-3.25a1.039,1.039,0,0,1-1.039-1.038A1.039,1.039,0,0,1-9.615-5.327,1.039,1.039,0,0,1-8.576-4.288" transform="translate(10.653 5.327)" fill="#eebcc5"/>
        </g>
        <g id="g522" transform="translate(24.412 103.894)">
          <path id="path524" d="M-46.225-2.24a69.144,69.144,0,0,0-9.2-.54c-.739.006-1.64.127-1.923.81-.311.748.383,1.52,1.059,1.965,3.228,2.124,7.335,2.225,11.2,2.256A12.735,12.735,0,0,0-44.69.2c-.248-.309,1.111-1.162.863-1.471-.364-.454-2.472-.389-2.4-.966" transform="translate(57.422 2.782)" fill="#3e3577"/>
        </g>
        <g id="g526" transform="translate(36.779 103.894)">
          <path id="path528" d="M-6.336-2.24a69.144,69.144,0,0,1,9.2-.54c.739.006,1.64.127,1.923.81C5.1-1.222,4.4-.45,3.726,0,.5,2.119-3.608,2.22-7.473,2.251A12.735,12.735,0,0,1-7.871.2c.248-.309.468-.605.716-.915.364-.454.893-.945.819-1.522" transform="translate(7.871 2.782)" fill="#3e3577"/>
        </g>
        <g id="g530" transform="translate(41.186 103.801)">
          <path id="path532" d="M-8.569-4.546a1.039,1.039,0,0,0-.974-1.1,1.039,1.039,0,0,0-1.1.975,1.039,1.039,0,0,0,.974,1.1,1.039,1.039,0,0,0,1.1-.974" transform="translate(10.644 5.647)" fill="#eebcc5"/>
        </g>
        <g id="g534" transform="translate(35.789 107.788)">
          <path id="path536" d="M-.487,0,1.358.061s2.789,2.272,2.76,3.009-1.271.242-1.8-.255S.67,1.332.67,1.332L-.605.835Z" transform="translate(0.605)" fill="#3e3577"/>
        </g>
        <g id="g538" transform="translate(33.726 107.727)">
          <path id="path540" d="M-20.341-.623l-1.841-.151s-3.03,1.939-3.085,2.674,1.234.385,1.817-.047S-21.644.568-21.644.568L-20.32.221Z" transform="translate(25.269 0.773)" fill="#3e3577"/>
        </g>
        <g id="g542" transform="translate(31.089 100.673)">
          <path id="path544" d="M-8.057-21.732H1.372a.769.769,0,0,0,.749-.594l.8-3.409A1.071,1.071,0,0,0,1.856-27l-10.8.082a1.071,1.071,0,0,0-1.043,1.278l1.206,3.393a.769.769,0,0,0,.725.512" transform="translate(10.009 26.996)" fill="#fff"/>
        </g>
      </g>
    </g>
    <g id="g546" transform="translate(29.771 98.991)">
      <g id="g548" clip-path="url(#clip-path-6)">
        <g id="g554">
          <g id="g580">
            <g id="g582">
              <path id="path590" d="M160.8-150.163a1.473,1.473,0,0,0-1.34,1.794h0l1.55,4.763a1,1,0,0,0,.931.718h2.175l5.238-7.345Z" transform="translate(-159.432 150.234)" fill="url(#linear-gradient-2)"/>
            </g>
          </g>
        </g>
      </g>
    </g>
    <g id="g592" transform="translate(0 0)">
      <g id="g594" clip-path="url(#clip-path)">
        <g id="g600" transform="translate(36.502 102.871)">
          <path id="path602" d="M-7.841-3.618a.915.915,0,0,1-.95.877.915.915,0,0,1-.95-.877.915.915,0,0,1,.95-.876.915.915,0,0,1,.95.876" transform="translate(9.74 4.495)" fill="#3e3578"/>
        </g>
        <g id="g604" transform="translate(34.233 84.853)">
          <path id="path606" d="M-16.345-6.6a1.411,1.411,0,0,1,.311.1,2.1,2.1,0,0,1,.573.474A16.444,16.444,0,0,0-14.02-4.772a.183.183,0,0,0,.117.055.14.14,0,0,0,.072-.029c.173-.126.144-.388.1-.6a3.43,3.43,0,0,0-.679-1.621,3.413,3.413,0,0,0-.489-.413,4.014,4.014,0,0,0-1.136-.662,3.433,3.433,0,0,0-.623-.121,2.8,2.8,0,0,0-.958.006A2.927,2.927,0,0,0-18-8.031a4.508,4.508,0,0,0-1.2.608A3.159,3.159,0,0,0-20.3-4.8c.005.135.058.31.193.308a.263.263,0,0,0,.173-.1c.387-.411.564-.926.989-1.3a3.085,3.085,0,0,1,1.589-.729,2.9,2.9,0,0,1,1.012.029" transform="translate(20.304 8.2)" fill="#3e3577"/>
        </g>
        <path id="path608" d="M200.441-174.074H198.2v-.247h2.242Z" transform="translate(-159.551 270.328)" fill="#3e3577"/>
      </g>
    </g>
  </g>
</svg>
