<svg id="relation-channels" xmlns="http://www.w3.org/2000/svg" xmlns:xlink="http://www.w3.org/1999/xlink" width="175.5" height="130" viewBox="0 0 175.5 130">
  <defs>
    <clipPath id="clip-path">
      <path id="path16" d="M0-666.665H130v130H0Z" transform="translate(0 666.665)"/>
    </clipPath>
    <clipPath id="clip-path-6">
      <path id="path372" d="M361.22-140.681h3v10.237h-3Z" transform="translate(-361.22 140.681)"/>
    </clipPath>
    <clipPath id="clip-path-7">
      <path id="path388" d="M283.158-178.769H287.7v3.437h-4.545Z" transform="translate(-283.158 178.769)"/>
    </clipPath>
    <clipPath id="clip-path-8">
      <path id="path404" d="M288.639-122.084h10.1v3.647h-10.1Z" transform="translate(-288.639 122.084)"/>
    </clipPath>
    <clipPath id="clip-path-10">
      <path id="path572" d="M115.761-463.108h2.811v9.578h-2.811Z" transform="translate(-115.761 463.108)"/>
    </clipPath>
    <clipPath id="clip-path-11">
      <path id="path588" d="M181.4-498.743h4.253v3.216H181.4Z" transform="translate(-181.404 498.743)"/>
    </clipPath>
  </defs>
  <g id="Group_6" data-name="Group 6" transform="translate(-100 -56)">
    <rect id="Rectangle_1" data-name="Rectangle 1" width="75" height="10" rx="5" transform="translate(153.52 56)" fill="rgba(252,208,216,0.58)"/>
    <rect id="Rectangle_7" data-name="Rectangle 7" width="132.5" height="10" rx="5" transform="translate(125 75.867)" fill="rgba(252,208,216,0.58)"/>
    <rect id="Rectangle_17" data-name="Rectangle 17" width="139" height="10" rx="5" transform="translate(112 95.733)" fill="rgba(252,208,216,0.58)"/>
    <rect id="Rectangle_21" data-name="Rectangle 21" width="150" height="10" rx="5" transform="translate(108 115.6)" fill="rgba(252,208,216,0.58)"/>
    <rect id="Rectangle_25" data-name="Rectangle 25" width="133.5" height="10" rx="5" transform="translate(142 135.467)" fill="rgba(252,208,216,0.58)"/>
    <rect id="Rectangle_29" data-name="Rectangle 29" width="147" height="10" rx="5" transform="translate(100 155.333)" fill="rgba(252,208,216,0.58)"/>
    <rect id="Rectangle_33" data-name="Rectangle 33" width="100" height="10" rx="5" transform="translate(141.528 175.2)" fill="rgba(252,208,216,0.58)"/>
    <path id="Exclusion_10" data-name="Exclusion 10" d="M72.667,10H.005A5.005,5.005,0,0,0,5,5,5.006,5.006,0,0,0,0,0H72.674a5,5,0,0,0-.007,10Z" transform="translate(152.28 105.667)" fill="rgba(252,208,216,0.58)"/>
    <path id="Exclusion_12" data-name="Exclusion 12" d="M59.875,10H.007A5.006,5.006,0,0,0,5,5,5.006,5.006,0,0,0,0,0H59.882a5,5,0,0,0-.007,10Z" transform="translate(168.913 125.533)" fill="rgba(252,208,216,0.58)"/>
    <path id="Exclusion_20" data-name="Exclusion 20" d="M48.641,10H-.921A5.006,5.006,0,0,0,4.072,5a5.006,5.006,0,0,0-5-5H48.648a5,5,0,0,0-.007,10Z" transform="translate(162.913 145.533)" fill="rgba(252,208,216,0.58)"/>
    <path id="Exclusion_16" data-name="Exclusion 16" d="M54.482,10H.007A5.006,5.006,0,0,0,5,5,5.006,5.006,0,0,0,0,0H54.489a5,5,0,0,0-3.437,8.487A4.973,4.973,0,0,0,54.482,10Z" transform="translate(164.516 165.2)" fill="rgba(252,208,216,0.58)"/>
    <path id="Exclusion_17" data-name="Exclusion 17" d="M59.807,10H33.364a5,5,0,0,0-.007-10H59.821a5,5,0,0,0-.014,10ZM30.214,10H.007A5.006,5.006,0,0,0,5,5,5.005,5.005,0,0,0,0,0H30.35a5,5,0,0,0-.136,10Z" transform="translate(159.897 85.8)" fill="rgba(252,208,216,0.58)"/>
    <path id="Exclusion_6" data-name="Exclusion 6" d="M39.8,10H.007A5.006,5.006,0,0,0,5,5,5.006,5.006,0,0,0,0,0H39.807A5,5,0,0,0,39.8,10Z" transform="translate(171.152 66)" fill="rgba(252,208,216,0.58)"/>
  </g>
  <g id="g10" transform="translate(22 666.665)">
    <g id="g12" transform="translate(0 -666.665)">
      <g id="g14" clip-path="url(#clip-path)">
        <g id="g20" transform="translate(119.234 34.762)">
          <path id="path22" d="M-17.713-.211a2.69,2.69,0,0,0-2.054.463,4.75,4.75,0,0,0-1.4,1.625A8.377,8.377,0,0,0-22,6.087a5.674,5.674,0,0,0,3.4-2.118c.946-1.093,1.991-3.643.883-4.18" transform="translate(22.004 0.262)" fill="#e1e1e1"/>
        </g>
        <g id="g24" transform="translate(114.396 37.82)">
          <path id="path26" d="M-9.91-17.965a2.294,2.294,0,0,0,.677-2.2,3.046,3.046,0,0,0-1.41-1.886,1.283,1.283,0,0,0-1.059-.219.982.982,0,0,0-.595.8,1.994,1.994,0,0,0,.172,1.019A3.945,3.945,0,0,0-9.91-17.965" transform="translate(12.311 22.316)" fill="#e1e1e1"/>
        </g>
        <g id="g28" transform="translate(115.59 39.621)">
          <path id="path30" d="M-.006-29.021a1.231,1.231,0,0,1,.09-.279l.285-.743a11.281,11.281,0,0,0,.7-2.51,5.162,5.162,0,0,0-.278-2.553,6.111,6.111,0,0,0-.518-.945,1.022,1.022,0,0,1,.2.216,3.27,3.27,0,0,1,.407.692A4.953,4.953,0,0,1,1.2-32.535a9.953,9.953,0,0,1-.741,2.529c-.131.31-.244.558-.326.728a1.23,1.23,0,0,1-.139.258" transform="translate(0.007 36.05)" fill="#ececec"/>
        </g>
        <g id="g32" transform="translate(115.4 36.685)">
          <path id="path34" d="M-29.547,0a.428.428,0,0,1-.066.107L-29.822.4l-.784,1.059c-.663.892-1.575,2.128-2.563,3.507s-1.865,2.641-2.5,3.556l-.75,1.083-.208.291a.442.442,0,0,1-.08.1.428.428,0,0,1,.057-.112l.187-.306c.165-.264.408-.642.714-1.107.612-.929,1.477-2.2,2.466-3.581s1.914-2.608,2.6-3.487c.341-.439.621-.792.818-1.033l.229-.275c.054-.062.083-.093.087-.09" transform="translate(36.704 0.001)" fill="#ececec"/>
        </g>
        <g id="g36" transform="translate(117.868 42.54)">
          <path id="path38" d="M-.213-5.384A5.368,5.368,0,0,1,4.554-6.536c.42.106.891.337.952.766s-.328.785-.707,1a4.585,4.585,0,0,1-5.063-.5" transform="translate(0.264 6.689)" fill="#e1e1e1"/>
        </g>
        <g id="g40" transform="translate(115.577 43.396)">
          <path id="path42" d="M-25.254-.542c0,.027-.4-.049-1.035-.035a6.252,6.252,0,0,0-1.109.13,6.956,6.956,0,0,0-1.3.422,6.972,6.972,0,0,0-1.178.69,6.257,6.257,0,0,0-.834.743c-.435.467-.638.812-.661.8a1.1,1.1,0,0,1,.133-.247,2.309,2.309,0,0,1,.184-.273,3.808,3.808,0,0,1,.273-.341,5.685,5.685,0,0,1,.83-.778,6.583,6.583,0,0,1,1.2-.714A6.591,6.591,0,0,1-27.423-.57a5.681,5.681,0,0,1,1.133-.1,3.772,3.772,0,0,1,.436.023,2.27,2.27,0,0,1,.326.043,1.1,1.1,0,0,1,.274.064" transform="translate(31.371 0.674)" fill="#ececec"/>
        </g>
        <g id="g44" transform="translate(12.315 18.856)">
          <path id="path46" d="M-2.058-.7a2.688,2.688,0,0,0-.46,2.055,4.751,4.751,0,0,0,.869,1.963A8.378,8.378,0,0,0,1.8,5.865a5.675,5.675,0,0,0-.46-3.982C.759.56-1.1-1.475-2.058-.7" transform="translate(2.556 0.872)" fill="#e1e1e1"/>
        </g>
        <g id="g48" transform="translate(11.926 26.636)">
          <path id="path50" d="M-19.25-6.679a2.294,2.294,0,0,0-1.7-1.553,3.047,3.047,0,0,0-2.307.469,1.282,1.282,0,0,0-.651.864.98.98,0,0,0,.466.879,1.99,1.99,0,0,0,.994.28,3.944,3.944,0,0,0,3.2-.938" transform="translate(23.913 8.297)" fill="#e1e1e1"/>
        </g>
        <g id="g52" transform="translate(13.885 27.844)">
          <path id="path54" d="M-25.75-14.1a1.234,1.234,0,0,1-.213-.2l-.55-.575a11.283,11.283,0,0,0-1.972-1.7,5.161,5.161,0,0,0-2.427-.84,6.086,6.086,0,0,0-1.076.065.994.994,0,0,1,.281-.088,3.273,3.273,0,0,1,.8-.073,4.947,4.947,0,0,1,2.5.822,9.936,9.936,0,0,1,1.969,1.751c.225.251.4.459.519.605a1.234,1.234,0,0,1,.174.236" transform="translate(31.988 17.51)" fill="#ececec"/>
        </g>
        <g id="g56" transform="translate(14.091 20.7)">
          <path id="path58" d="M0,0A.44.44,0,0,1,.066.1L.24.418.861,1.579c.523.981,1.251,2.334,2.075,3.817s1.59,2.815,2.148,3.777l.658,1.141.175.313a.443.443,0,0,1,.053.114.442.442,0,0,1-.076-.1l-.2-.3c-.168-.262-.406-.644-.7-1.119-.579-.95-1.358-2.276-2.183-3.76S1.279,2.617.777,1.624C.526,1.127.326.723.193.442L.042.117A.441.441,0,0,1,0,0" transform="translate(0.003 0)" fill="#ececec"/>
        </g>
        <g id="g60" transform="translate(18.386 22.591)">
          <path id="path62" d="M-.809-22.138a5.367,5.367,0,0,1,1-4.8c.275-.334.686-.661,1.1-.533s.569.632.6,1.064a4.586,4.586,0,0,1-2.62,4.361" transform="translate(1.005 27.5)" fill="#e1e1e1"/>
        </g>
        <g id="g64" transform="translate(18.769 24.406)">
          <path id="path66" d="M-4.7,0c.023.015-.214.338-.474.921a6.24,6.24,0,0,0-.356,1.058,6.95,6.95,0,0,0-.173,1.354,6.973,6.973,0,0,0,.12,1.36,6.273,6.273,0,0,0,.315,1.071c.236.593.461.924.438.939A1.126,1.126,0,0,1-5,6.477a2.334,2.334,0,0,1-.168-.283A3.917,3.917,0,0,1-5.36,5.8a5.679,5.679,0,0,1-.349-1.083A6.566,6.566,0,0,1-5.842,3.33a6.551,6.551,0,0,1,.187-1.381A5.684,5.684,0,0,1-5.264.88,3.8,3.8,0,0,1-5.057.495,2.335,2.335,0,0,1-4.878.218,1.116,1.116,0,0,1-4.7,0" transform="translate(5.843 0.001)" fill="#ececec"/>
        </g>
        <g id="g68" transform="translate(41.434 118.618)">
          <path id="path70" d="M-1.448-23.124a2.688,2.688,0,0,0,2.1-.155,4.748,4.748,0,0,0,1.627-1.4A8.38,8.38,0,0,0,3.72-28.72,5.675,5.675,0,0,0,.042-27.128c-1.1.942-2.507,3.31-1.49,4" transform="translate(1.799 28.725)" fill="#e1e1e1"/>
        </g>
        <g id="g72" transform="translate(48.525 117.935)">
          <path id="path74" d="M-4.128,0a2.294,2.294,0,0,0-.995,2.078A3.047,3.047,0,0,0-4.006,4.151a1.283,1.283,0,0,0,1.015.373.982.982,0,0,0,.706-.7A1.99,1.99,0,0,0-2.3,2.79,3.945,3.945,0,0,0-4.128,0" transform="translate(5.128)" fill="#e1e1e1"/>
        </g>
        <g id="g76" transform="translate(49.456 113.682)">
          <path id="path78" d="M-7.933,0a1.22,1.22,0,0,1-.131.262l-.392.693a11.278,11.278,0,0,0-1.058,2.38,5.158,5.158,0,0,0-.1,2.566,6.082,6.082,0,0,0,.373,1.011,1,1,0,0,1-.165-.243,3.269,3.269,0,0,1-.3-.744A4.949,4.949,0,0,1-9.643,3.3,9.941,9.941,0,0,1-8.538.906c.175-.288.324-.516.429-.672A1.213,1.213,0,0,1-7.933,0" transform="translate(9.854 0.001)" fill="#ececec"/>
        </g>
        <g id="g80" transform="translate(43.017 113.685)">
          <path id="path82" d="M0-36.437s.025-.037.081-.1l.25-.257.932-.931c.788-.785,1.872-1.873,3.052-3.091s2.234-2.337,2.994-3.149l.9-.96.249-.258c.058-.058.09-.087.094-.084a.431.431,0,0,1-.073.1l-.23.275c-.2.237-.5.575-.87.99-.742.829-1.785,1.958-2.967,3.178s-2.278,2.3-3.083,3.065c-.4.384-.731.692-.962.9L.1-36.514a.445.445,0,0,1-.1.077" transform="translate(0.001 45.264)" fill="#ececec"/>
        </g>
        <g id="g84" transform="translate(42.948 114.505)">
          <path id="path86" d="M-23.582-6.646a5.369,5.369,0,0,1-4.884.436c-.4-.167-.831-.465-.828-.9s.44-.728.846-.88a4.585,4.585,0,0,1,4.933,1.245" transform="translate(29.295 8.256)" fill="#e1e1e1"/>
        </g>
        <g id="g88" transform="translate(44.881 114.055)">
          <path id="path90" d="M0-7.5c.008-.027.386.108,1.019.187a6.242,6.242,0,0,0,1.116.035A6.969,6.969,0,0,0,3.481-7.5a6.931,6.931,0,0,0,1.267-.509,6.243,6.243,0,0,0,.934-.612c.5-.4.751-.709.772-.69a1.112,1.112,0,0,1-.168.224,2.279,2.279,0,0,1-.223.243,3.817,3.817,0,0,1-.32.3,5.674,5.674,0,0,1-.936.647,6.565,6.565,0,0,1-1.29.53,6.6,6.6,0,0,1-1.376.22,5.679,5.679,0,0,1-1.136-.065A3.834,3.834,0,0,1,.577-7.3,2.283,2.283,0,0,1,.26-7.392,1.111,1.111,0,0,1,0-7.5" transform="translate(0 9.312)" fill="#ececec"/>
        </g>
        <g id="g92" transform="translate(91.898 87.756)">
          <path id="path94" d="M-21.454-10.712a2.6,2.6,0,0,1-2.595,2.6,2.6,2.6,0,0,1-2.6-2.6,2.6,2.6,0,0,1,2.595-2.6,2.6,2.6,0,0,1,2.6,2.595" transform="translate(26.651 13.307)" fill="#ececec"/>
        </g>
        <g id="g96" transform="translate(99.171 82.549)">
          <path id="path98" d="M-21.453-10.712a2.6,2.6,0,0,1-2.595,2.6,2.6,2.6,0,0,1-2.6-2.6,2.6,2.6,0,0,1,2.595-2.6,2.6,2.6,0,0,1,2.6,2.595" transform="translate(26.649 13.307)" fill="#ececec"/>
        </g>
        <g id="g100" transform="translate(99.186 93.334)">
          <path id="path102" d="M-21.453-11.656a2.72,2.72,0,0,1-2.595,2.831,2.72,2.72,0,0,1-2.6-2.824,2.719,2.719,0,0,1,2.594-2.831,2.72,2.72,0,0,1,2.6,2.824" transform="translate(26.649 14.48)" fill="#ececec"/>
        </g>
        <g id="g104" transform="translate(93.694 90.834)">
          <path id="path106" d="M-30.233-20.614c-.111.164-1.84-.818-3.86-2.192s-3.569-2.62-3.458-2.784,1.839.818,3.86,2.192,3.569,2.62,3.458,2.783" transform="translate(37.557 25.607)" fill="#ececec"/>
        </g>
        <g id="g108" transform="translate(94.819 84.949)">
          <path id="path110" d="M-26.446-.067c.121.156-1.213,1.393-2.98,2.761s-3.3,2.352-3.418,2.2,1.213-1.392,2.98-2.762,3.3-2.352,3.418-2.2" transform="translate(32.852 0.084)" fill="#ececec"/>
        </g>
        <g id="g112" transform="translate(86.723 60.066)">
          <path id="path114" d="M-.279,0A9.031,9.031,0,0,1-.211,1.56,9.029,9.029,0,0,1-.279,3.12,9.046,9.046,0,0,1-.347,1.56,9.048,9.048,0,0,1-.279,0" transform="translate(0.347)" fill="#e1e1e1"/>
        </g>
        <g id="g116" transform="translate(86.723 53.826)">
          <path id="path118" d="M-.279,0A9.031,9.031,0,0,1-.211,1.56,9.029,9.029,0,0,1-.279,3.12,9.046,9.046,0,0,1-.347,1.56,9.048,9.048,0,0,1-.279,0" transform="translate(0.347)" fill="#e1e1e1"/>
        </g>
        <g id="g120" transform="translate(86.723 47.586)">
          <path id="path122" d="M-.279,0A9.031,9.031,0,0,1-.211,1.56,9.029,9.029,0,0,1-.279,3.12,9.046,9.046,0,0,1-.347,1.56,9.048,9.048,0,0,1-.279,0" transform="translate(0.347)" fill="#e1e1e1"/>
        </g>
        <g id="g124" transform="translate(86.723 41.346)">
          <path id="path126" d="M-.279,0A9.031,9.031,0,0,1-.211,1.56,9.029,9.029,0,0,1-.279,3.12,9.046,9.046,0,0,1-.347,1.56,9.048,9.048,0,0,1-.279,0" transform="translate(0.347)" fill="#e1e1e1"/>
        </g>
        <g id="g128" transform="translate(86.723 35.106)">
          <path id="path130" d="M-.279,0A9.031,9.031,0,0,1-.211,1.56,9.029,9.029,0,0,1-.279,3.12,9.046,9.046,0,0,1-.347,1.56,9.048,9.048,0,0,1-.279,0" transform="translate(0.347)" fill="#e1e1e1"/>
        </g>
        <g id="g132" transform="translate(85.015 30.575)">
          <path id="path134" d="M0-.279A9.048,9.048,0,0,1,1.56-.347h.283v.067a7.366,7.366,0,0,1-.067,1.344A7.394,7.394,0,0,1,1.709-.279l.067.067H1.56A9.048,9.048,0,0,1,0-.279" transform="translate(0 0.347)" fill="#e1e1e1"/>
        </g>
        <g id="g136" transform="translate(78.775 30.575)">
          <path id="path138" d="M0-.279A9.048,9.048,0,0,1,1.56-.347a9.046,9.046,0,0,1,1.56.068,9.046,9.046,0,0,1-1.56.068A9.048,9.048,0,0,1,0-.279" transform="translate(0 0.347)" fill="#e1e1e1"/>
        </g>
        <g id="g140" transform="translate(75.994 27.115)">
          <path id="path142" d="M-.28,0A9.031,9.031,0,0,1-.212,1.56,9.029,9.029,0,0,1-.28,3.12,9.029,9.029,0,0,1-.348,1.56,9.031,9.031,0,0,1-.28,0" transform="translate(0.348)" fill="#e1e1e1"/>
        </g>
        <g id="g144" transform="translate(75.994 22.107)">
          <path id="path146" d="M-.28,0A3.342,3.342,0,0,1-.212.944a3.345,3.345,0,0,1-.068.944A3.345,3.345,0,0,1-.348.944,3.342,3.342,0,0,1-.28,0" transform="translate(0.348)" fill="#e1e1e1"/>
        </g>
        <g id="g148" transform="translate(38.429 92.816)">
          <path id="path150" d="M0-.28A2.293,2.293,0,0,1,.78-.348a2.294,2.294,0,0,1,.78.068,2.305,2.305,0,0,1-.78.068A2.3,2.3,0,0,1,0-.28" transform="translate(0 0.348)" fill="#e1e1e1"/>
        </g>
        <g id="g152" transform="translate(31.625 92.816)">
          <path id="path154" d="M0-.28A10.684,10.684,0,0,1,1.7-.348,10.686,10.686,0,0,1,3.4-.28a10.744,10.744,0,0,1-1.7.068A10.741,10.741,0,0,1,0-.28" transform="translate(0 0.348)" fill="#e1e1e1"/>
        </g>
        <g id="g156" transform="translate(24.821 92.816)">
          <path id="path158" d="M0-.28A10.686,10.686,0,0,1,1.7-.348,10.682,10.682,0,0,1,3.4-.28a10.739,10.739,0,0,1-1.7.068A10.744,10.744,0,0,1,0-.28" transform="translate(0 0.348)" fill="#e1e1e1"/>
        </g>
        <g id="g160" transform="translate(19.793 91.324)">
          <path id="path162" d="M-.284,0A9.042,9.042,0,0,1-.216,1.559l-.067-.067H.031l.293,0,.5.014a1.554,1.554,0,0,1,.457.048,1.571,1.571,0,0,1-.457.048l-.5.014-.293,0H-.283l-.068-.068A9.042,9.042,0,0,1-.284,0" transform="translate(0.352)" fill="#e1e1e1"/>
        </g>
        <g id="g164" transform="translate(19.794 85.275)">
          <path id="path166" d="M-.279,0A8.5,8.5,0,0,1-.211,1.512,8.506,8.506,0,0,1-.279,3.024,8.506,8.506,0,0,1-.347,1.512,8.5,8.5,0,0,1-.279,0" transform="translate(0.347)" fill="#e1e1e1"/>
        </g>
        <g id="g168" transform="translate(19.794 79.226)">
          <path id="path170" d="M-.279,0A8.5,8.5,0,0,1-.211,1.512,8.506,8.506,0,0,1-.279,3.024,8.506,8.506,0,0,1-.347,1.512,8.5,8.5,0,0,1-.279,0" transform="translate(0.347)" fill="#e1e1e1"/>
        </g>
        <g id="g172" transform="translate(19.794 74.642)">
          <path id="path174" d="M-.279,0A2.307,2.307,0,0,1-.211.78a2.305,2.305,0,0,1-.068.78A2.305,2.305,0,0,1-.347.78,2.307,2.307,0,0,1-.279,0" transform="translate(0.347)" fill="#e1e1e1"/>
        </g>
        <g id="g176" transform="translate(12.343 65.274)">
          <path id="path178" d="M-79.854-31.244a2.7,2.7,0,0,0-.87-2.919,2.637,2.637,0,0,0-1.51-.54,2.179,2.179,0,0,1-1.918-1.305,4.737,4.737,0,0,0-2.979-2.646,4.739,4.739,0,0,0-5.135,1.971,3.322,3.322,0,0,1-1,1.262,3.687,3.687,0,0,1-2.042.066c-2.051-.129-3.993,2.059-3.886,4.111Z" transform="translate(99.197 38.813)" fill="#f5f5f5"/>
        </g>
        <g id="g180" transform="translate(65.301 14.539)">
          <path id="path182" d="M-79.853-31.243a2.7,2.7,0,0,0-.87-2.919,2.638,2.638,0,0,0-1.509-.54,2.179,2.179,0,0,1-1.918-1.305,4.735,4.735,0,0,0-2.979-2.646,4.739,4.739,0,0,0-5.135,1.971,3.324,3.324,0,0,1-1,1.262,3.687,3.687,0,0,1-2.042.066c-2.05-.129-3.993,2.059-3.886,4.111Z" transform="translate(99.196 38.811)" fill="#f5f5f5"/>
        </g>
      </g>
    </g>
    <g id="g196" transform="translate(0 -666.665)">
      <g id="g198" clip-path="url(#clip-path)">
        <g id="g204" transform="translate(85.209 39.159)">
          <path id="path206" d="M-.145-76.214A17.367,17.367,0,0,0,18.282-59.975,17.367,17.367,0,0,0,34.521-78.4,17.368,17.368,0,0,0,16.094-94.641,17.367,17.367,0,0,0-.145-76.214" transform="translate(0.18 94.676)" fill="#e1e1e1"/>
        </g>
        <g id="g208" transform="translate(43.263 83.865)">
          <path id="path210" d="M-156.262-76.8c-.412,10.445-8.1,19.089-18.556,19.293A18.928,18.928,0,0,1-194.111-76.06c-.2-10.451,8.133-20.094,18.556-19.292,11.117.855,19.669,9.026,19.293,18.556" transform="translate(194.114 95.399)" fill="#e1e1e1"/>
        </g>
        <g id="g212" transform="translate(15.391 22.293)">
          <path id="path214" d="M-.014-71.685a17.709,17.709,0,0,0,17.361,18.05A17.709,17.709,0,0,0,35.4-71a17.709,17.709,0,0,0-17.361-18.05A17.709,17.709,0,0,0-.014-71.685" transform="translate(0.017 89.049)" fill="#e1e1e1"/>
        </g>
        <g id="g216" transform="translate(69.355 60.614)">
          <path id="path218" d="M-127.887-.026c.275.254-6.436,7.977-14.987,17.248s-15.709,16.586-15.984,16.332,6.435-7.975,14.989-17.25S-128.161-.28-127.887-.026" transform="translate(158.865 0.033)" fill="#e1e1e1"/>
        </g>
        <g id="g220" transform="translate(44.24 36.558)">
          <path id="path222" d="M-216.874-47.347c-.08.365-11.905-1.9-26.41-5.053s-26.2-6.012-26.125-6.377,11.9,1.9,26.412,5.054,26.2,6.011,26.122,6.376" transform="translate(269.409 58.816)" fill="#e1e1e1"/>
        </g>
        <g id="g224" transform="translate(25.338 41.064)">
          <path id="path226" d="M-116.937-205.347c-.155.1-1.994-2.535-4.78-6.907s-6.5-10.5-10.417-17.369-7.281-13.2-9.618-17.828-3.66-7.552-3.5-7.636,1.792,2.678,4.342,7.184l9.95,17.611,10.06,17.544c2.572,4.494,4.123,7.3,3.961,7.4" transform="translate(145.263 255.09)" fill="#e1e1e1"/>
        </g>
      </g>
    </g>
    <g id="g228" transform="translate(0 -666.665)">
      <g id="g230" clip-path="url(#clip-path)">
        <g id="g236" transform="translate(106.564 32.586)">
          <path id="path238" d="M-10.45,0a6.708,6.708,0,0,0,.743,3.117,11.719,11.719,0,0,1,.967,2.1c.172.715.08,1.47.211,2.193a10.922,10.922,0,0,0,1.587,3.209,3.607,3.607,0,0,1,.4,3.419l-6.015-.71-.424-7.468Z" transform="translate(12.981)" fill="#1a2e35"/>
        </g>
        <g id="g240" transform="translate(92.596 30.054)">
          <path id="path242" d="M-18.741,0c-.779,1.652.3,3.3-.475,4.956A12.882,12.882,0,0,0-20.2,7.482a13.77,13.77,0,0,1-.547,2.379c-.516,1.193-1.687,2-2.23,3.181a4.4,4.4,0,0,0,1.587,5.1,8.146,8.146,0,0,0,5.5,1.315,7.511,7.511,0,0,0,3.347-.913,3.853,3.853,0,0,0,1.932-2.771" transform="translate(23.28)" fill="#1a2e35"/>
        </g>
        <g id="g244" transform="translate(97.136 27.113)">
          <path id="path246" d="M-36.823,0c3.871,1.716,4.64,8.074,4.66,8.93.023,1.021.567,1.232,1.245,1.766a3.825,3.825,0,0,1,1.523,2.009,7.769,7.769,0,0,0,.3,1.968c.373.71,1.255.974,1.94,1.413a4.837,4.837,0,0,1,2,3.893A14.068,14.068,0,0,1-25.9,24.42a2.414,2.414,0,0,1-.887,1.52,2.547,2.547,0,0,1-1.38.229L-35.515,26a15.694,15.694,0,0,1-5.533-.79,6.928,6.928,0,0,1-3.4-2.852,5.618,5.618,0,0,1-.612-4.292c.306-1.1.975-2.1,1.168-3.226.239-1.395-.93-1.992-1.354-3.345s-.774-4.6-.193-5.9" transform="translate(45.743)" fill="#1a2e35"/>
        </g>
        <g id="g248" transform="translate(86.791 43.902)">
          <path id="path250" d="M-97.793-75.4-99-79.275l-.176,5.916s1.568,4.042,2.762,7.131a18.053,18.053,0,0,1-8.139,2.52A18.049,18.049,0,0,1-114.761-66.1l1.862-6.69-.887-7.566-2.456,3.513-5.24-5.065s3.836-7.087,4.311-7.733c3.032-4.122,8.271-4.024,8.271-4.024l7.412.411a9.013,9.013,0,0,1,6.905,3.065s2.676,4.084,4.873,14.163Z" transform="translate(121.482 93.665)" fill="#ff4f5b"/>
        </g>
        <g id="g252" transform="translate(91.284 47.894)">
          <path id="path254" d="M-94.546-2.443a.721.721,0,0,1-.107.017c-.071.012-.178.015-.316.043a5.16,5.16,0,0,0-1.175.339A5.388,5.388,0,0,0-97.76-.984a5.153,5.153,0,0,0-.772.934,3.616,3.616,0,0,0-.537,1.239,1.549,1.549,0,0,0,.023.713,1.132,1.132,0,0,0,.427.592.764.764,0,0,0,.719.113.881.881,0,0,0,.5-.58,1.1,1.1,0,0,0-.057-.808,1.761,1.761,0,0,0-.563-.655,3.588,3.588,0,0,0-1.717-.639A5.279,5.279,0,0,0-101.683.1a7.151,7.151,0,0,0-1.894.79,5.348,5.348,0,0,0-1.567,1.427,1.894,1.894,0,0,0-.374.986.893.893,0,0,0,.132.5,1.217,1.217,0,0,0,.379.371l-.012-.006a.722.722,0,0,0,.53.022.777.777,0,0,0,.378-.4,2.794,2.794,0,0,0,.219-1.185,3.4,3.4,0,0,0-.194-1.185,2.66,2.66,0,0,0-.659-.975A3.549,3.549,0,0,0-106.834-.5a5.646,5.646,0,0,0-2.239.252A3.838,3.838,0,0,0-110.935.8a1.278,1.278,0,0,0-.332.928,1.27,1.27,0,0,0,.453.846.823.823,0,0,0,.425.185.692.692,0,0,0,.438-.105,1,1,0,0,0,.414-.785,2.365,2.365,0,0,0-.1-.905c-.047-.143-.109-.282-.162-.421-.029-.069-.052-.14-.085-.206l-.105-.194A5.224,5.224,0,0,0-111-1.2a6.253,6.253,0,0,0-2.468-1.478,5.99,5.99,0,0,0-2.164-.287,5.6,5.6,0,0,0-1.362.252l-.341.122c-.077.027-.118.037-.118.037s.037-.019.113-.05l.337-.135a5.342,5.342,0,0,1,1.367-.279,5.969,5.969,0,0,1,2.191.268,6.3,6.3,0,0,1,2.513,1.481A5.313,5.313,0,0,1-109.9.09l.108.2c.034.067.058.14.088.21.055.142.118.282.167.43a2.462,2.462,0,0,1,.108.948,1.112,1.112,0,0,1-.464.872.808.808,0,0,1-.511.124.941.941,0,0,1-.488-.21,1.388,1.388,0,0,1-.5-.926,1.1,1.1,0,0,1,.077-.544,1.734,1.734,0,0,1,.28-.475,3.946,3.946,0,0,1,1.92-1.087,5.763,5.763,0,0,1,2.291-.26,3.681,3.681,0,0,1,2.168.976,2.8,2.8,0,0,1,.691,1.024,3.514,3.514,0,0,1,.2,1.234,2.906,2.906,0,0,1-.233,1.245.909.909,0,0,1-.448.461.856.856,0,0,1-.629-.021l-.006,0-.006,0a1.35,1.35,0,0,1-.42-.414,1.031,1.031,0,0,1-.152-.57,2.018,2.018,0,0,1,.4-1.059A5.471,5.471,0,0,1-103.645.777a7.266,7.266,0,0,1,1.93-.8A5.391,5.391,0,0,1-99.725-.2a3.7,3.7,0,0,1,1.772.667,1.875,1.875,0,0,1,.6.7,1.2,1.2,0,0,1,.059.887.985.985,0,0,1-.565.645.867.867,0,0,1-.813-.129,1.228,1.228,0,0,1-.46-.646,1.639,1.639,0,0,1-.022-.756A3.684,3.684,0,0,1-98.6-.094a5.191,5.191,0,0,1,.792-.942,5.376,5.376,0,0,1,1.646-1.055,4.916,4.916,0,0,1,1.19-.318,3.655,3.655,0,0,1,.427-.035" transform="translate(117.449 3.035)" fill="#fafafa"/>
        </g>
        <g id="g256" transform="translate(109.879 56.957)">
          <path id="path258" d="M-30.75,0a5.212,5.212,0,0,0-.673.325,3.429,3.429,0,0,0-1.329,1.489,3.05,3.05,0,0,0-.214.631,1.285,1.285,0,0,0,0,.7.539.539,0,0,0,.189.287.355.355,0,0,0,.328.036.743.743,0,0,0,.4-.62,1.426,1.426,0,0,0-.79-1.4,1.808,1.808,0,0,0-1.766.166,2.53,2.53,0,0,0-1,1.536,1.146,1.146,0,0,0,.069.842.538.538,0,0,0,.668.263.679.679,0,0,0,.379-.619,1.339,1.339,0,0,0-.224-.71,2.076,2.076,0,0,0-1.054-.849A1.955,1.955,0,0,0-36.9,2a2.146,2.146,0,0,0-.782.363A2.684,2.684,0,0,0-38.2,2.9s.005-.016.022-.045a1.13,1.13,0,0,1,.078-.123,1.929,1.929,0,0,1,.388-.405,2.148,2.148,0,0,1,.8-.395,2.021,2.021,0,0,1,1.174.051,2.166,2.166,0,0,1,1.118.88,1.447,1.447,0,0,1,.248.771.8.8,0,0,1-.447.731.583.583,0,0,1-.471.005.785.785,0,0,1-.357-.315,1.267,1.267,0,0,1-.089-.939A2.653,2.653,0,0,1-34.688,1.5a1.937,1.937,0,0,1,1.9-.173,1.551,1.551,0,0,1,.856,1.539.859.859,0,0,1-.477.715.473.473,0,0,1-.437-.052.649.649,0,0,1-.23-.349,1.391,1.391,0,0,1,.007-.755,3.161,3.161,0,0,1,.229-.649A3.4,3.4,0,0,1-31.449.279a2.3,2.3,0,0,1,.7-.28" transform="translate(38.199 0)" fill="#fafafa"/>
        </g>
        <g id="g260" transform="translate(96.584 58.935)">
          <path id="path262" d="M-51.771-7.271a.23.23,0,0,1-.064-.011l-.185-.046a5.718,5.718,0,0,0-.721-.121,5.492,5.492,0,0,0-2.629.367,4.952,4.952,0,0,0-.789.4,2.242,2.242,0,0,0-.687.64,1.044,1.044,0,0,0-.131.941.835.835,0,0,0,.291.4.613.613,0,0,0,.481.1.914.914,0,0,0,.668-.766,1.676,1.676,0,0,0-.3-1.1A3.312,3.312,0,0,0-57.82-7.863a3.249,3.249,0,0,0-2.4.361,2.96,2.96,0,0,0-.885.767,1.5,1.5,0,0,0-.23.508.726.726,0,0,0,.043.513.5.5,0,0,0,.4.265.743.743,0,0,0,.472-.137.905.905,0,0,0,.35-.862,2.2,2.2,0,0,0-.3-.889,3.175,3.175,0,0,0-.543-.689A3.531,3.531,0,0,0-62.211-8.8a3.3,3.3,0,0,0-1.132-.177,3.869,3.869,0,0,0-.969.157.219.219,0,0,1,.06-.026l.181-.064a2.961,2.961,0,0,1,.727-.119,3.278,3.278,0,0,1,1.156.158,3.578,3.578,0,0,1,1.336.777,3.252,3.252,0,0,1,.567.706,2.3,2.3,0,0,1,.324.932,1.251,1.251,0,0,1-.059.528.878.878,0,0,1-.336.441.859.859,0,0,1-.551.16.626.626,0,0,1-.5-.327.849.849,0,0,1-.057-.6,1.641,1.641,0,0,1,.247-.554,3.071,3.071,0,0,1,.924-.809,3.374,3.374,0,0,1,2.5-.378,3.436,3.436,0,0,1,2.061,1.467,1.8,1.8,0,0,1,.317,1.186,1.038,1.038,0,0,1-.771.871.738.738,0,0,1-.578-.127.955.955,0,0,1-.332-.465,1.133,1.133,0,0,1-.05-.549,1.3,1.3,0,0,1,.2-.492,2.341,2.341,0,0,1,.726-.668,4.985,4.985,0,0,1,.809-.4A5.42,5.42,0,0,1-52.735-7.5a3.767,3.767,0,0,1,.964.231" transform="translate(64.312 9.033)" fill="#fafafa"/>
        </g>
        <g id="g264" transform="translate(79.82 37.406)">
          <path id="path266" d="M-1.079-6.682c.54.028.386,2.967.785,2.345S-.523-7.943.039-7.89c.732.069.515,3.144.516,3.405s.378.259.365.024C.9-4.8.787-8.361,1.507-8.3c.4.034.254.747.254.747s-.14,3.346.2,3.364.495-1.946.5-2.611.317-.93.606-.694a10.636,10.636,0,0,1,.217,2.852c-.018.658-.1,2.461.662,1.586a3.039,3.039,0,0,1,1.987-1.2c.315.063.331.527,0,.678a4.335,4.335,0,0,0-.919.724,4.15,4.15,0,0,0-.561.752,3.191,3.191,0,0,0-.4.932L5.079,11.081l.751-.938,4.284,4.141L7.878,16.856A4.2,4.2,0,0,1,1.613,17c-.06-.068-.119-.137-.175-.209a3.482,3.482,0,0,1-.694-1.86L-.67-.96H-.683a30.379,30.379,0,0,0-.594-4.019c-.155-1.694,0-1.714.2-1.7" transform="translate(1.34 8.301)" fill="#ffbf9d"/>
        </g>
        <g id="g268" transform="translate(96.909 28.175)">
          <path id="path270" d="M-12.273-71.832c.016-1.848,0-3.795,0-3.795a3.869,3.869,0,0,1-2.834-3.535c-.436-2.968.3-9.352.3-9.352,3.443-1.358,7.32-.833,9.732,1.939l-.375,15.01A3.22,3.22,0,0,1-8.89-68.533a3.4,3.4,0,0,1-3.383-3.3" transform="translate(15.246 89.232)" fill="#ffbf9d"/>
        </g>
        <g id="g272" transform="translate(97.997 33.44)">
          <path id="path274" d="M0-1.468a.4.4,0,0,0,.379.406.381.381,0,0,0,.415-.354.4.4,0,0,0-.379-.407A.381.381,0,0,0,0-1.468" transform="translate(0.002 1.823)" fill="#1a2e35"/>
        </g>
        <g id="g276" transform="translate(97.35 32.932)">
          <path id="path278" d="M-.026-1.692c.049.053.353-.167.782-.161s.74.224.787.172C1.567-1.7,1.518-1.8,1.382-1.9a1.092,1.092,0,0,0-.63-.2,1.049,1.049,0,0,0-.623.193c-.133.1-.179.193-.155.217" transform="translate(0.032 2.101)" fill="#1a2e35"/>
        </g>
        <g id="g280" transform="translate(102.385 33.566)">
          <path id="path282" d="M0-1.468a.4.4,0,0,0,.38.406.381.381,0,0,0,.415-.354.4.4,0,0,0-.379-.407A.381.381,0,0,0,0-1.468" transform="translate(0.002 1.823)" fill="#1a2e35"/>
        </g>
        <g id="g284" transform="translate(101.822 33.14)">
          <path id="path286" d="M-.025-1.692c.049.053.353-.167.782-.161s.74.224.787.172C1.567-1.7,1.518-1.8,1.382-1.9a1.093,1.093,0,0,0-.63-.2,1.049,1.049,0,0,0-.623.193c-.133.1-.179.193-.155.217" transform="translate(0.032 2.101)" fill="#1a2e35"/>
        </g>
        <g id="g288" transform="translate(99.146 33.141)">
          <path id="path290" d="M-4.5-14.738a2.828,2.828,0,0,0-.695-.134c-.109-.012-.213-.036-.23-.11a.56.56,0,0,1,.077-.324l.334-.83a14.36,14.36,0,0,0,.752-2.172A14.356,14.356,0,0,0-5.183-16.2l-.32.835a.633.633,0,0,0-.062.429.275.275,0,0,0,.178.162.749.749,0,0,0,.186.028,2.8,2.8,0,0,0,.706.009" transform="translate(5.584 18.308)" fill="#1a2e35"/>
        </g>
        <g id="g292" transform="translate(99.88 40.719)">
          <path id="path294" d="M0-4.382A7.906,7.906,0,0,0,4.174-5.444a3.94,3.94,0,0,1-4.14,1.8Z" transform="translate(0 5.444)" fill="#ff9a6c"/>
        </g>
        <g id="g296" transform="translate(100.361 37.462)">
          <path id="path298" d="M-.181-1.174a.773.773,0,0,1,.7-.279A.707.707,0,0,1,1-1.186a.447.447,0,0,1,.028.511A.518.518,0,0,1,.463-.54,1.617,1.617,0,0,1-.081-.873.473.473,0,0,1-.2-1a.144.144,0,0,1,0-.16" transform="translate(0.225 1.459)" fill="#ff9a6c"/>
        </g>
        <g id="g300" transform="translate(100.114 37.022)">
          <path id="path302" d="M-5.7,0c-.07,0-.076.46-.478.786s-.9.269-.9.334c-.007.029.109.092.319.1A1.157,1.157,0,0,0-6,.967a1.008,1.008,0,0,0,.371-.66C-5.613.113-5.663,0-5.7,0" transform="translate(7.075 0)" fill="#1a2e35"/>
        </g>
        <g id="g304" transform="translate(96.875 26.37)">
          <path id="path306" d="M-36.568-9.267a11.522,11.522,0,0,1-6.3,3.675c.251-.331,1.575-1.147,1.827-1.479A7.66,7.66,0,0,1-44.713-5.3a.787.787,0,0,1-.446-.069.6.6,0,0,1-.227-.488,12.975,12.975,0,0,1,.09-2.815,3.115,3.115,0,0,1,1.121-2.009,5.379,5.379,0,0,1,3.138-.827,7.1,7.1,0,0,1,2.766.372,2.6,2.6,0,0,1,1.718,1.814" transform="translate(45.426 11.512)" fill="#1a2e35"/>
        </g>
        <g id="g308" transform="translate(103.403 26.729)">
          <path id="path310" d="M-23.071-37.766a17.51,17.51,0,0,0,.31-2.077c.092-1.6-.371-7.521-5.9-7.044l1.33,1.7s-1.092,3.587,1.234,6.06a5.753,5.753,0,0,0,1.751,3.118s.937-.028,1.273-1.755" transform="translate(28.66 46.914)" fill="#1a2e35"/>
        </g>
        <g id="g312" transform="translate(105.748 34.21)">
          <path id="path314" d="M-.633-.144a1.854,1.854,0,0,1,1,.076A1.293,1.293,0,0,1,1.091.6a1.352,1.352,0,0,1,0,.993,2.287,2.287,0,0,1-.576.829A1.549,1.549,0,0,1-.1,2.819.741.741,0,0,1-.787,2.7" transform="translate(0.787 0.179)" fill="#ffbf9d"/>
        </g>
        <g id="g316" transform="translate(106.056 34.675)">
          <path id="path318" d="M-.025-6.548c-.038.012.1.215.408.136a.653.653,0,0,0,.379-.323,1.471,1.471,0,0,0,.172-.549A.869.869,0,0,0,.8-7.871a.578.578,0,0,0-.433-.263c-.312-.011-.412.2-.376.211.024.026.147-.084.351-.033a.56.56,0,0,1,.339.646C.64-6.968.5-6.657.322-6.581c-.19.094-.326.006-.347.033" transform="translate(0.031 8.134)" fill="#ff9a6c"/>
        </g>
        <g id="g320" transform="translate(81.92 51.767)">
          <path id="path322" d="M-115.088-58.883V-60.3h-9.992l-2.933-12.844-14.953.123,3.626,14.141Z" transform="translate(142.966 73.146)" fill="#1a2e35"/>
        </g>
        <g id="g324" transform="translate(88.924 57.331)">
          <path id="path326" d="M-.337-6.506a1.175,1.175,0,0,0,1.344.925A1.175,1.175,0,0,0,1.55-7.119,1.174,1.174,0,0,0,.206-8.044,1.174,1.174,0,0,0-.337-6.506" transform="translate(0.419 8.082)" fill="#fafafa"/>
        </g>
        <g id="g328" transform="translate(92.674 61.574)">
          <path id="path330" d="M-14.509-18.037a9.253,9.253,0,0,1-.625-1.5.881.881,0,0,1-.059-.38.322.322,0,0,1,.23-.281c.233-.047.378.235.469.455a2.833,2.833,0,0,0,1.96,1.646l.606-.017,0-.025L1.144-19.3.52-21.893l6.919-.514.63,2.553A5.26,5.26,0,0,1,2.64-14.038l-15,0a5.187,5.187,0,0,1-5.667-3.9Z" transform="translate(18.024 22.407)" fill="#ffbf9d"/>
        </g>
      </g>
    </g>
    <g id="g332" transform="translate(0 -666.665)">
      <g id="g334" clip-path="url(#clip-path)">
        <g id="g340" transform="translate(72.905 107.845)">
          <path id="path342" d="M-24.387,0l-5.907,3.645,2.167,5.213a18.972,18.972,0,0,0,4.639-6.693Z" transform="translate(30.295)" fill="#c78976"/>
        </g>
        <g id="g344" transform="translate(44.643 94.903)">
          <path id="path346" d="M-147.673-53.919c-.764-1.828-3.384-7.863-5.577-10.118-3.284-3.377-9.064-2.922-9.064-2.922l-7.508.267a17.621,17.621,0,0,0-5.53,1.711l-.184.057,0,.038c-2.1,1.141-5.077,3.878-7.912,6.534l3.392,3.148,3.755,3.333a.1.1,0,0,0-.006.067c.039.2-.61,4.235-1.185,7.719a18.849,18.849,0,0,0,11.961,3.963,18.861,18.861,0,0,0,7.98-1.933l.281-3.221c.256-2.92.451-6.536.451-6.536l1.078,2.734,7.832-4.073q.124-.38.233-.767" transform="translate(183.445 66.981)" fill="#ff4f5b"/>
        </g>
        <g id="g348" transform="translate(58.027 94.639)">
          <path id="path350" d="M-32.842,0a.517.517,0,0,1,.033.134,2.877,2.877,0,0,1,.05.393,3.921,3.921,0,0,1-.194,1.442,4.1,4.1,0,0,1-1.187,1.8,4.027,4.027,0,0,1-2.447.954A4.033,4.033,0,0,1-39.114,4a4.105,4.105,0,0,1-1.352-1.676A3.927,3.927,0,0,1-40.8.906a2.857,2.857,0,0,1,.012-.4.527.527,0,0,1,.02-.137c.015,0-.006.19.02.53a4.139,4.139,0,0,0,.365,1.381A4.077,4.077,0,0,0-39.042,3.9a3.95,3.95,0,0,0,2.448.687,3.946,3.946,0,0,0,2.372-.913,4.075,4.075,0,0,0,1.178-1.733A4.133,4.133,0,0,0-32.812.529c-.006-.34-.045-.527-.03-.529" transform="translate(40.798 0)" fill="#1a2e35"/>
        </g>
        <g id="g352" transform="translate(70.44 96.264)">
          <path id="path354" d="M-11.114-.015a3.632,3.632,0,0,0-.531.126,2.574,2.574,0,0,0-1.163.882,4.122,4.122,0,0,0-.738,2.043c-.053.413-.075.851-.09,1.307s-.027.927-.032,1.41a48.306,48.306,0,0,0,.222,4.943c.059.631.122,1.14.161,1.492l.047.406a.6.6,0,0,1,.007.143.564.564,0,0,1-.034-.139l-.072-.4c-.055-.351-.133-.859-.2-1.49A41.164,41.164,0,0,1-13.8,5.752c.006-.485.015-.958.035-1.414s.042-.9.1-1.317A4.15,4.15,0,0,1-12.884.934,2.541,2.541,0,0,1-11.661.061a1.411,1.411,0,0,1,.548-.076" transform="translate(13.806 0.018)" fill="#1a2e35"/>
        </g>
        <g id="g356" transform="translate(51.823 95.779)">
          <path id="path358" d="M-14.2,0a.594.594,0,0,1-.032.146l-.117.411-.44,1.507c-.368,1.274-.854,3.039-1.329,5s-.848,3.76-1.1,5.061l-.3,1.542-.083.419a.612.612,0,0,1-.038.145.617.617,0,0,1,.011-.149l.058-.423c.053-.367.139-.9.254-1.551.23-1.307.589-3.106,1.064-5.075s.978-3.733,1.37-5c.2-.634.361-1.145.481-1.5l.141-.4A.625.625,0,0,1-14.2,0" transform="translate(17.639 0)" fill="#1a2e35"/>
        </g>
        <g id="g360" transform="translate(71.857 106.709)">
          <path id="path362" d="M-34.72,0a2.054,2.054,0,0,1-.306.229c-.2.14-.5.337-.867.575-.737.477-1.77,1.114-2.932,1.78s-2.235,1.235-3.019,1.63c-.392.2-.711.353-.934.457a2.087,2.087,0,0,1-.352.149,2.094,2.094,0,0,1,.328-.2l.914-.495c.772-.417,1.835-1,3-1.663s2.2-1.289,2.949-1.744l.889-.538A2.061,2.061,0,0,1-34.72,0" transform="translate(43.131 0.003)" fill="#1a2e35"/>
        </g>
        <g id="g364" transform="translate(45.67 102.548)">
          <path id="path366" d="M-26.869-21.892c-.024.029-1.5-1.135-3.3-2.6s-3.235-2.675-3.212-2.7,1.5,1.134,3.3,2.6,3.235,2.675,3.211,2.7" transform="translate(33.377 27.195)" fill="#1a2e35"/>
        </g>
        <g id="g368" transform="translate(70.438 102.567)">
          <g id="g382" transform="translate(0 0)">
            <g id="g380" opacity="0.2" clip-path="url(#clip-path-6)">
              <g id="g378" transform="translate(0 0)">
                <path id="path376" d="M-.269,0,2.67,9.669l-1.094.569L.5,7.5S-.61,1.759-.269,0" transform="translate(0.334)"/>
              </g>
            </g>
          </g>
        </g>
        <g id="g384" transform="translate(55.216 95.14)">
          <g id="g398">
            <g id="g396" opacity="0.2" clip-path="url(#clip-path-7)">
              <g id="g394" transform="translate(0 0)">
                <path id="path392" d="M-1.509-2.663C-3.093-1.828.878.182,2.671.128l-1.3-3.436a18.07,18.07,0,0,0-2.877.645" transform="translate(1.874 3.308)"/>
              </g>
            </g>
          </g>
        </g>
        <g id="g400" transform="translate(56.285 106.194)">
          <g id="g414" transform="translate(0 0)">
            <g id="g412" opacity="0.2" clip-path="url(#clip-path-8)">
              <g id="g410" transform="translate(0 0)">
                <path id="path408" d="M-38.836-14.913l-9.408.035.619-3.463,9.484-.184Z" transform="translate(48.244 18.525)" fill="#fff"/>
              </g>
            </g>
          </g>
        </g>
        <g id="g416" transform="translate(52.381 73.895)">
          <path id="path418" d="M-51.234-39.583a.712.712,0,0,0,.233.73.712.712,0,0,0,.763.073c.454-.241.5-.875.4-1.379a2.6,2.6,0,0,1-.08-1.513,3.443,3.443,0,0,1,.771-.882,2.218,2.218,0,0,0,.58-1.894,1.865,1.865,0,0,0-1.311-1.441c-.677-.175-1.5.048-2.014-.43-.37-.346-.4-.925-.693-1.341a2.165,2.165,0,0,0-2.152-.61,6.264,6.264,0,0,1-2.334.212,10.686,10.686,0,0,1-1.776-.843,3.54,3.54,0,0,0-3.917.839,3.539,3.539,0,0,0-.476,3.977,2.2,2.2,0,0,0,1.089,1.037" transform="translate(63.644 49.171)" fill="#1a2e35"/>
        </g>
        <g id="g420" transform="translate(54.247 77.467)">
          <path id="path422" d="M-32.268-90.045h0a3.856,3.856,0,0,1-3.873-3.647c-.085-1.7-.156-3.344-.156-3.344a3.75,3.75,0,0,1-3.455-3.321c-.292-3.092-.332-10.244-.332-10.244a10.975,10.975,0,0,1,11.019.478l.3.193.366,16a3.857,3.857,0,0,1-3.869,3.882" transform="translate(40.084 111.858)" fill="#c78976"/>
        </g>
        <g id="g424" transform="translate(59.937 83.457)">
          <path id="path426" d="M-1.288-.1a.45.45,0,0,0-.289.57A.456.456,0,0,0-1,.76.45.45,0,0,0-.713.191.456.456,0,0,0-1.288-.1" transform="translate(1.6 0.119)" fill="#1a2e35"/>
        </g>
        <g id="g428" transform="translate(59.375 83.151)">
          <path id="path430" d="M-.029-2.021c.052.051.345-.2.776-.229s.757.174.8.117c.022-.026-.033-.12-.176-.215a1.058,1.058,0,0,0-.644-.16,1.055,1.055,0,0,0-.614.25c-.127.114-.168.215-.143.237" transform="translate(0.036 2.511)" fill="#1a2e35"/>
        </g>
        <g id="g432" transform="translate(55.216 83.457)">
          <path id="path434" d="M-1.288-.1a.45.45,0,0,0-.289.57A.456.456,0,0,0-1,.76.45.45,0,0,0-.713.191.456.456,0,0,0-1.288-.1" transform="translate(1.6 0.119)" fill="#1a2e35"/>
        </g>
        <g id="g436" transform="translate(54.596 83.16)">
          <path id="path438" d="M-.029-2.022c.052.051.345-.2.776-.229s.757.174.8.116c.022-.025-.033-.12-.176-.214a1.056,1.056,0,0,0-.644-.16,1.052,1.052,0,0,0-.614.25c-.127.114-.168.215-.143.237" transform="translate(0.036 2.511)" fill="#1a2e35"/>
        </g>
        <g id="g440" transform="translate(56.708 83.267)">
          <path id="path442" d="M-4.724-15.385a2.115,2.115,0,0,0-.708-.09c-.113,0-.2-.021-.217-.08a.6.6,0,0,1,.054-.326l.269-.894a11.84,11.84,0,0,0,.55-2.337,11.828,11.828,0,0,0-.786,2.27l-.251.9a.707.707,0,0,0-.023.468.293.293,0,0,0,.208.162.711.711,0,0,0,.194.009,2.114,2.114,0,0,0,.709-.082" transform="translate(5.868 19.112)" fill="#1a2e35"/>
        </g>
        <g id="g444" transform="translate(57.229 87.352)">
          <path id="path446" d="M-8.5,0a10.61,10.61,0,0,1-2.06.778,1.2,1.2,0,0,0,1.441.356C-8.215.719-8.5,0-8.5,0" transform="translate(10.563)" fill="#fff"/>
        </g>
        <g id="g448" transform="translate(58.026 90.768)">
          <path id="path450" d="M0-6.091A7.331,7.331,0,0,0,3.978-7.567,3.86,3.86,0,0,1,.058-5.289Z" transform="translate(0 7.567)" fill="#b66955"/>
        </g>
        <g id="g452" transform="translate(65.643 82.042)">
          <path id="path454" d="M0-1.982A.469.469,0,0,1,.442-2.46c.583-.027,1.542.184,1.663,1.778A1.5,1.5,0,0,1,.045,1C.038.954.011-1.1,0-1.982" transform="translate(0 2.462)" fill="#c78976"/>
        </g>
        <g id="g456" transform="translate(66.175 82.767)">
          <path id="path458" d="M-.007-7.575c.01-.008.042.025.112.05a.4.4,0,0,0,.3-.016A.981.981,0,0,0,.8-8.456a1.3,1.3,0,0,0-.155-.56A.462.462,0,0,0,.317-9.3a.2.2,0,0,0-.228.126c-.026.066-.008.111-.02.115S.017-9.09.029-9.186a.253.253,0,0,1,.08-.15A.306.306,0,0,1,.325-9.41a.563.563,0,0,1,.445.322,1.338,1.338,0,0,1,.187.624A1.03,1.03,0,0,1,.447-7.437.433.433,0,0,1,.077-7.47C0-7.521-.015-7.57-.007-7.575" transform="translate(0.009 9.41)" fill="#b66955"/>
        </g>
        <g id="g460" transform="translate(59.162 81.84)">
          <path id="path462" d="M-7.242-2.194c-.1.125-.437.067-.878.048-.44-.035-.784-.019-.865-.155s.335-.467.9-.42c.569.023.948.4.84.527" transform="translate(8.996 2.726)" fill="#1a2e35"/>
        </g>
        <g id="g464" transform="translate(54.621 81.977)">
          <path id="path466" d="M-5.47-1.3c-.032.158-.318.233-.64.263s-.617,0-.677-.148.21-.389.626-.425.725.157.691.31" transform="translate(6.795 1.615)" fill="#1a2e35"/>
        </g>
        <g id="g468" transform="translate(53.682 76.891)">
          <path id="path470" d="M-.518-11.606a5.141,5.141,0,0,0,4.318-.31c1.6-.8,3.47-1.191,3.882-.869s.5,1.973,2.086,2.455c0,0-.109,3.15,1.147,3.038s.471-4.992.471-4.992l-3.073-1.5L4.96-14.417l-3.16.445-2.445.67Z" transform="translate(0.644 14.417)" fill="#1a2e35"/>
        </g>
        <g id="g472" transform="translate(35.838 85.096)">
          <path id="path474" d="M-27.842,0c.111.178,3.726,12.7,3.726,12.7l-7.171.978-3.3-10.219Z" transform="translate(34.587)" fill="#375a64"/>
        </g>
        <g id="g476" transform="translate(42.505 84.767)">
          <path id="path478" d="M-15.7-53.792l.644-.343-3.753-12.688-.694.368Z" transform="translate(19.501 66.823)" fill="#1a2e35"/>
        </g>
        <g id="g480" transform="translate(38.977 88.181)">
          <path id="path482" d="M-2.483-.992a.3.3,0,0,1-.233.361.3.3,0,0,1-.361-.234.3.3,0,0,1,.233-.361.3.3,0,0,1,.361.233" transform="translate(3.084 1.233)" fill="#1a2e35"/>
        </g>
        <g id="g484" transform="translate(33.618 90.245)">
          <path id="path486" d="M-46.8-54.775l-4.7,3.065-.866-10.964.073-.548,3.187-1.216-.916-2.347a2.023,2.023,0,0,0-2.79-1.037l-1.02.52a2.875,2.875,0,0,0-1.475,1.819c-.362,1.358-.685,2.826-.651,2.7h0l-2.016,14.114s-.959,4.069,1.825,6c2.1,1.463,5.646-.09,7.526-1.153l8.148-4.911Z" transform="translate(58.139 68.043)" fill="#c78976"/>
        </g>
      </g>
    </g>
    <g id="g488" transform="translate(0 -666.665)">
      <g id="g490" clip-path="url(#clip-path)">
        <g id="g496" transform="translate(41.191 41.103)">
          <path id="path498" d="M-35.386-20.044-38.577-24.9l-5.38,3.38L-39.08-14a19.372,19.372,0,0,0,3.694-6.046" transform="translate(43.957 24.9)" fill="#ff9a6c"/>
        </g>
        <g id="g500" transform="translate(28.206 12.703)">
          <path id="path502" d="M-6.443-37.037c.263-.289-.094-.743-.462-.876s-.826-.195-1-.545c-.213-.425.164-.9.232-1.369a4.923,4.923,0,0,0-.3-1.482,1.906,1.906,0,0,1,.633-1.742,1.906,1.906,0,0,1,1.822-.34A2.5,2.5,0,0,1-3.863-45.6a2.5,2.5,0,0,1,2.656.769A6.855,6.855,0,0,1,.335-45.8a2.314,2.314,0,0,1,1.777-.051A1.413,1.413,0,0,1,2.975-44.4a1.539,1.539,0,0,1,1.8-.319,2.312,2.312,0,0,1,1.166,1.5A2.455,2.455,0,0,1,5.265-40.7a1.725,1.725,0,0,1-2.429-.222" transform="translate(8.004 46.008)" fill="#1a2e35"/>
        </g>
        <g id="g504" transform="translate(29.6 16.21)">
          <path id="path506" d="M-14.942-84.248h0a3.608,3.608,0,0,0,3.624-3.412c.08-1.594.146-3.129.146-3.129A3.509,3.509,0,0,0-7.939-93.9c.273-2.893.31-9.584.31-9.584a10.267,10.267,0,0,0-10.309.448l-.282.181-.342,14.973a3.609,3.609,0,0,0,3.619,3.632" transform="translate(18.561 104.656)" fill="#ffbf9d"/>
        </g>
        <g id="g508" transform="translate(34.358 21.814)">
          <path id="path510" d="M-2.311-.089a.421.421,0,0,1,.27.533.426.426,0,0,1-.538.268.421.421,0,0,1-.27-.533.426.426,0,0,1,.538-.268" transform="translate(2.87 0.111)" fill="#1a2e35"/>
        </g>
        <g id="g512" transform="translate(34.249 21.528)">
          <path id="path514" d="M-6.109-1.891c-.049.048-.323-.189-.726-.215s-.708.163-.75.109c-.02-.024.031-.112.164-.2a.988.988,0,0,1,.6-.15.985.985,0,0,1,.575.233c.119.107.157.2.134.222" transform="translate(7.589 2.349)" fill="#1a2e35"/>
        </g>
        <g id="g516" transform="translate(38.775 21.814)">
          <path id="path518" d="M-2.311-.089a.421.421,0,0,1,.27.533.426.426,0,0,1-.538.268.421.421,0,0,1-.27-.533.426.426,0,0,1,.538-.268" transform="translate(2.87 0.111)" fill="#1a2e35"/>
        </g>
        <g id="g520" transform="translate(38.72 21.537)">
          <path id="path522" d="M-6.108-1.891c-.049.048-.323-.189-.726-.215s-.708.163-.749.109c-.021-.024.03-.112.164-.2a.989.989,0,0,1,.6-.15.987.987,0,0,1,.575.233c.119.107.157.2.134.222" transform="translate(7.588 2.349)" fill="#1a2e35"/>
        </g>
        <g id="g524" transform="translate(37.16 21.636)">
          <path id="path526" d="M0-14.394a1.971,1.971,0,0,1,.662-.084c.106,0,.191-.02.2-.075a.567.567,0,0,0-.051-.3l-.252-.836a11.072,11.072,0,0,1-.515-2.186,11.059,11.059,0,0,1,.736,2.123l.235.841a.662.662,0,0,1,.022.438.276.276,0,0,1-.2.152.679.679,0,0,1-.181.009A1.971,1.971,0,0,1,0-14.394" transform="translate(0 17.881)" fill="#1a2e35"/>
        </g>
        <g id="g528" transform="translate(35.775 25.458)">
          <path id="path530" d="M-.168,0A9.921,9.921,0,0,0,1.759.727a1.121,1.121,0,0,1-1.348.333C-.438.673-.168,0-.168,0" transform="translate(0.209)" fill="#fff"/>
        </g>
        <g id="g532" transform="translate(33.276 28.655)">
          <path id="path534" d="M-15.364-5.7A6.86,6.86,0,0,1-19.085-7.08a3.611,3.611,0,0,0,3.667,2.131Z" transform="translate(19.085 7.08)" fill="#ff9a6c"/>
        </g>
        <g id="g536" transform="translate(27.893 21.814)">
          <path id="path538" d="M-8.166-1.854A.439.439,0,0,0-8.58-2.3c-.545-.026-1.443.172-1.556,1.663A1.4,1.4,0,0,0-8.208.941c.006-.048.031-1.965.042-2.794" transform="translate(10.144 2.303)" fill="#ffbf9d"/>
        </g>
        <g id="g540" transform="translate(28.468 22.493)">
          <path id="path542" d="M-3.728-7.087c-.009-.008-.039.023-.1.047a.38.38,0,0,1-.28-.015.918.918,0,0,1-.367-.856,1.223,1.223,0,0,1,.145-.524.433.433,0,0,1,.3-.264.192.192,0,0,1,.213.118c.024.062.008.1.019.108s.049-.032.038-.121a.238.238,0,0,0-.075-.14.285.285,0,0,0-.2-.07.528.528,0,0,0-.416.3,1.256,1.256,0,0,0-.175.584.965.965,0,0,0,.477.961.406.406,0,0,0,.347-.031c.071-.048.086-.094.078-.1" transform="translate(4.63 8.804)" fill="#ff9a6c"/>
        </g>
        <g id="g544" transform="translate(34.276 20.301)">
          <path id="path546" d="M-.072-2.053c.091.117.408.062.821.045.412-.033.734-.017.809-.145S1.245-2.59.714-2.547c-.532.022-.888.372-.786.493" transform="translate(0.089 2.551)" fill="#1a2e35"/>
        </g>
        <g id="g548" transform="translate(38.941 20.429)">
          <path id="path550" d="M-.01-1.217c.03.147.3.218.6.246s.577,0,.633-.139-.2-.365-.586-.4-.678.147-.646.29" transform="translate(0.012 1.511)" fill="#1a2e35"/>
        </g>
        <g id="g552" transform="translate(29.579 15.67)">
          <path id="path554" d="M-46.917-10.859a4.809,4.809,0,0,1-4.04-.29c-1.5-.749-3.247-1.114-3.632-.812s-.467,1.846-1.952,2.3c0,0,.1,2.947-1.073,2.842s-.441-4.67-.441-4.67l2.875-1.4,3.137-.593,2.956.417,2.287.626Z" transform="translate(58.282 13.489)" fill="#1a2e35"/>
        </g>
        <g id="g556" transform="translate(21.268 32.531)">
          <path id="path558" d="M0-11.666c3.072-3.16,8.48-2.815,8.48-2.815l7.024.25a16.483,16.483,0,0,1,5.174,1.6l.172.053,0,.036c1.966,1.068,4.75,3.628,7.4,6.113L25.076-3.482,21.564-.364A.093.093,0,0,1,21.57-.3c-.037.189.571,3.962,1.109,7.222a17.634,17.634,0,0,1-11.19,3.707A17.644,17.644,0,0,1,4.022,8.819L3.759,5.806C3.52,3.073,3.338-.31,3.338-.31" transform="translate(0 14.491)" fill="#ff4f5b"/>
        </g>
        <g id="g560" transform="translate(39.581 33.343)">
          <path id="path562" d="M0,0A.545.545,0,0,1,.051.129L.184.506C.3.834.452,1.312.635,1.9,1,3.091,1.473,4.741,1.918,6.583s.78,3.526.994,4.749c.107.612.187,1.107.236,1.451l.054.4a.559.559,0,0,1,.01.14.544.544,0,0,1-.037-.135L3.1,12.791l-.279-1.442C2.58,10.132,2.23,8.455,1.787,6.615S.888,3.124.544,1.932L.134.521.025.137A.551.551,0,0,1,0,0" transform="translate(0.005 0)" fill="#1a2e35"/>
        </g>
        <g id="g564" transform="translate(42.468 39.676)">
          <path id="path566" d="M0-20.483c-.024-.029,1.321-1.163,3-2.533s3.064-2.457,3.088-2.428-1.32,1.163-3,2.533S.022-20.454,0-20.483" transform="translate(0.002 25.444)" fill="#1a2e35"/>
        </g>
        <g id="g568" transform="translate(22.574 39.694)">
          <g id="g582">
            <g id="g580" opacity="0.2" clip-path="url(#clip-path-10)">
              <g id="g578" transform="translate(0 0)">
                <path id="path576" d="M-11.352,0-14.1,9.046l1.023.532,1.009-2.558s1.037-5.374.718-7.019" transform="translate(14.101)"/>
              </g>
            </g>
          </g>
        </g>
        <g id="g584" transform="translate(35.374 32.745)">
          <g id="g598">
            <g id="g596" opacity="0.2" clip-path="url(#clip-path-11)">
              <g id="g594" transform="translate(0 0)">
                <path id="path592" d="M-16.144-2.491C-14.662-1.71-18.377.171-20.055.12l1.219-3.215a16.89,16.89,0,0,1,2.692.6" transform="translate(20.055 3.095)"/>
              </g>
            </g>
          </g>
        </g>
        <g id="g600" transform="translate(29.306 30.35)">
          <path id="path602" d="M0-9.889v-2.4s4.679,1.2,4.848,4c0,0,.6-3.094,3.006-3.243l.34,4.353L5.39-4.73H2.546L.294-6.673,0-9.7" transform="translate(0 12.284)" fill="#ff4f5b"/>
        </g>
        <g id="g604" transform="translate(34.125 34.776)">
          <path id="path606" d="M-4.467-53.684a.506.506,0,0,1-.008-.134c0-.1,0-.229,0-.381.009-.331.016-.81.019-1.4.007-1.183-.029-2.818-.177-4.617s-.385-3.418-.587-4.584c-.1-.583-.187-1.054-.25-1.379l-.068-.375a.491.491,0,0,1-.015-.133.512.512,0,0,1,.041.127l.093.37c.079.322.18.791.293,1.373a43.769,43.769,0,0,1,.628,4.589A43.813,43.813,0,0,1-4.355-55.6c-.015.593-.037,1.072-.062,1.4-.012.152-.022.278-.03.381a.505.505,0,0,1-.02.132" transform="translate(5.549 66.688)" fill="#1a2e35"/>
        </g>
        <g id="g608" transform="translate(29.143 32.292)">
          <path id="path610" d="M-19.8-5.18a.525.525,0,0,0-.279.021.6.6,0,0,0-.258.2,2.03,2.03,0,0,0-.218.4,13.361,13.361,0,0,0-.9,2.589l-.021.089-.078-.047c-.28-.169-.566-.352-.854-.547a17.191,17.191,0,0,1-1.516-1.151,1.9,1.9,0,0,1-.514-.671,2.122,2.122,0,0,1-.158-.718,4.243,4.243,0,0,1,.1-1.046,1.848,1.848,0,0,1,.1-.372,2.416,2.416,0,0,1-.045.381A4.85,4.85,0,0,0-24.5-5.023a2.076,2.076,0,0,0,.165.679,1.81,1.81,0,0,0,.494.623c.443.371.956.756,1.51,1.133.286.194.57.376.847.546l-.1.042a11.971,11.971,0,0,1,.947-2.6,1.968,1.968,0,0,1,.244-.4.622.622,0,0,1,.295-.2.32.32,0,0,1,.294.022" transform="translate(24.594 6.435)" fill="#1a2e35"/>
        </g>
        <g id="g612" transform="translate(34.513 31.11)">
          <path id="path614" d="M-10.928,0a2.055,2.055,0,0,1,.038.374l.07,1.02c.034.43.085.94.172,1.5a2.507,2.507,0,0,1,.056.914,1.567,1.567,0,0,1-.61.778,6.878,6.878,0,0,0-1.031.784l-.1.116-.01-.155A5.583,5.583,0,0,0-13.043,3c-.3-.534-.548-.806-.531-.82a1.039,1.039,0,0,1,.181.188,4.692,4.692,0,0,1,.421.59,5.371,5.371,0,0,1,.756,2.369l-.114-.039a6.6,6.6,0,0,1,1.047-.806,1.461,1.461,0,0,0,.564-.7,2.478,2.478,0,0,0-.051-.863c-.081-.568-.122-1.083-.144-1.515s-.027-.783-.027-1.024A1.954,1.954,0,0,1-10.928,0" transform="translate(13.575 0)" fill="#1a2e35"/>
        </g>
        <g id="g616" transform="translate(45.141 31.711)">
          <path id="path618" d="M-29.219,0C-29.41.224-36.3,9.434-36.3,9.434l.97.55L-28.26.891Z" transform="translate(36.297)" fill="#1a2e35"/>
        </g>
        <g id="g620" transform="translate(20.865 36.055)">
          <path id="path622" d="M-15.209-12.129S-7.963-1.7-7.527-1.493c.86.4,10.773-8.163,11.718-8.982.13-.174.4-.541.927-1.272,0,0,.782-3.579,1.617-3.3s-.457,1.819.086,3.179,3.033-1.884,3.132-2.175l.642-.839a11.014,11.014,0,0,1,.628,2.706c-.146,2.553-2.562,5.59-2.562,5.59S-2.187,6.848-9.618,7.265c-2.14.12-5.944-5.953-8.487-10.507a6.232,6.232,0,0,1,1.776-8.07Z" transform="translate(18.894 15.067)" fill="#ffbf9d"/>
        </g>
        <g id="g624" transform="translate(49.761 37.507)">
          <path id="path626" d="M0-7.792c-.02-.012.215-.421.472-.941s.44-.954.462-.946A4.437,4.437,0,0,1,.54-8.7,4.419,4.419,0,0,1,0-7.792" transform="translate(0.006 9.679)" fill="#ff9a6c"/>
        </g>
        <g id="g628" transform="translate(19.189 33.903)">
          <path id="path630" d="M-17.063,0s-7.777,2.765-1.995,15.844l8.978-5.419-1.277-3.058Z" transform="translate(21.196)" fill="#ff4f5b"/>
        </g>
        <g id="g632" transform="translate(21.327 34.121)">
          <path id="path634" d="M-5.776-.032a.21.21,0,0,1,.062-.005l.181,0a3.212,3.212,0,0,1,.692.092A3.812,3.812,0,0,1-3.824.484a5.5,5.5,0,0,1,1.13.93A13.6,13.6,0,0,1-.585,4.569C.072,5.84.685,7.288,1.315,8.81l.551,1.331.023.056-.053.029c-2.6,1.416-4.859,2.744-6.457,3.739-.8.5-1.436.9-1.872,1.189l-.5.326a1.307,1.307,0,0,1-.179.107,1.244,1.244,0,0,1,.165-.127c.111-.08.274-.2.489-.345.428-.3,1.058-.718,1.852-1.225,1.586-1.016,3.842-2.359,6.44-3.78l-.03.085L1.189,8.862C.56,7.34-.048,5.894-.7,4.626A13.826,13.826,0,0,0-2.763,1.479a5.553,5.553,0,0,0-1.1-.931A3.875,3.875,0,0,0-4.855.1a5.149,5.149,0,0,0-.921-.135" transform="translate(7.175 0.04)" fill="#1a2e35"/>
        </g>
      </g>
    </g>
    <g id="g636" transform="translate(0 -666.665)">
      <g id="g638" clip-path="url(#clip-path)">
        <g id="g644" transform="translate(63.102 68.156)">
          <path id="path646" d="M-13.451-6.757a1.629,1.629,0,0,1-1.637,1.622,1.629,1.629,0,0,1-1.622-1.637,1.629,1.629,0,0,1,1.637-1.622,1.629,1.629,0,0,1,1.622,1.637" transform="translate(16.709 8.393)" fill="#1a2e35"/>
        </g>
        <g id="g648" transform="translate(59.926 64.434)">
          <path id="path650" d="M-6.394-13.476a4.514,4.514,0,0,1,6.532-.086.917.917,0,0,0,1.3-1.29,6.368,6.368,0,0,0-9.124.074c-.813.854.474,2.158,1.29,1.3" transform="translate(7.943 16.74)" fill="#1a2e35"/>
        </g>
        <g id="g652" transform="translate(54.35 54.785)">
          <path id="path654" d="M-6.568-22.006a13.343,13.343,0,0,1,8.747-3.5A12.977,12.977,0,0,1,11.1-22.089c.859.807,2.164-.48,1.3-1.29A14.879,14.879,0,0,0,2.188-27.336,15.314,15.314,0,0,0-7.857-23.307c-.894.773.4,2.07,1.29,1.3" transform="translate(8.159 27.336)" fill="#1a2e35"/>
        </g>
        <g id="g656" transform="translate(56.583 59.506)">
          <path id="path658" d="M-6.366-19.862A9.143,9.143,0,0,1,.082-22.838,9.139,9.139,0,0,1,6.806-20.05c.824.846,2.125-.444,1.3-1.29A10.976,10.976,0,0,0,.091-24.671a10.99,10.99,0,0,0-7.747,3.507c-.8.865.487,2.17,1.29,1.3" transform="translate(7.908 24.673)" fill="#1a2e35"/>
        </g>
        <g id="g660" transform="translate(63.135 66.99)">
          <path id="path662" d="M-13.452-6.758a1.629,1.629,0,0,1-1.637,1.621,1.629,1.629,0,0,1-1.622-1.637,1.629,1.629,0,0,1,1.637-1.622,1.629,1.629,0,0,1,1.622,1.637" transform="translate(16.711 8.395)" fill="#375a64"/>
        </g>
        <g id="g664" transform="translate(59.959 63.269)">
          <path id="path666" d="M-6.393-13.476a4.515,4.515,0,0,1,6.532-.086.917.917,0,0,0,1.3-1.29,6.367,6.367,0,0,0-9.124.074c-.813.854.474,2.158,1.29,1.3" transform="translate(7.942 16.74)" fill="#375a64"/>
        </g>
        <g id="g668" transform="translate(54.383 53.619)">
          <path id="path670" d="M-6.569-22a13.341,13.341,0,0,1,8.747-3.5A12.975,12.975,0,0,1,11.1-22.087c.859.807,2.164-.48,1.3-1.29A14.878,14.878,0,0,0,2.186-27.335,15.313,15.313,0,0,0-7.858-23.306c-.894.773.4,2.071,1.29,1.3" transform="translate(8.16 27.335)" fill="#375a64"/>
        </g>
        <g id="g672" transform="translate(56.616 58.341)">
          <path id="path674" d="M-6.365-19.862A9.142,9.142,0,0,1,.083-22.838,9.142,9.142,0,0,1,6.807-20.05c.824.847,2.126-.444,1.3-1.29A10.976,10.976,0,0,0,.092-24.671a10.989,10.989,0,0,0-7.746,3.507c-.8.864.487,2.17,1.29,1.3" transform="translate(7.907 24.673)" fill="#375a64"/>
        </g>
      </g>
    </g>
  </g>
</svg>
