<svg id="search" xmlns="http://www.w3.org/2000/svg" xmlns:xlink="http://www.w3.org/1999/xlink" width="175.5" height="130" viewBox="0 0 175.5 130">
  <defs>
    <clipPath id="clip-path">
      <path id="path16" d="M0-666.665H130v130H0Z" transform="translate(0 666.665)"/>
    </clipPath>
    <clipPath id="clip-path-4">
      <path id="path80" d="M534.683-255.787h10.21v10.337h-10.21Z" transform="translate(-534.683 255.787)"/>
    </clipPath>
    <clipPath id="clip-path-6">
      <path id="path124" d="M120.611-628.854h48.412V-600.9H120.611Z" transform="translate(-120.611 628.854)"/>
    </clipPath>
    <clipPath id="clip-path-7">
      <path id="path140" d="M119.771-491.764h2.577v75.325h-2.577Z" transform="translate(-119.771 491.764)"/>
    </clipPath>
    <clipPath id="clip-path-8">
      <path id="path160" d="M195.6-504.552h2.111v4H195.6Z" transform="translate(-195.598 504.552)"/>
    </clipPath>
    <clipPath id="clip-path-9">
      <path id="path176" d="M207.413-534.82h2.975v3.424h-2.975Z" transform="translate(-207.413 534.82)"/>
    </clipPath>
    <clipPath id="clip-path-10">
      <path id="path192" d="M225.99-575.972h3.168v6.57H225.99Z" transform="translate(-225.99 575.972)"/>
    </clipPath>
    <clipPath id="clip-path-11">
      <path id="path240" d="M189.494-465.888h3.3v4.315h-3.3Z" transform="translate(-189.494 465.888)"/>
    </clipPath>
    <clipPath id="clip-path-12">
      <path id="path256" d="M226.927-523.507h3.395v7.315h-3.395Z" transform="translate(-226.927 523.507)"/>
    </clipPath>
    <clipPath id="clip-path-13">
      <path id="path272" d="M244.877-564.376h3.55v6.138h-3.55Z" transform="translate(-244.877 564.376)"/>
    </clipPath>
    <clipPath id="clip-path-15">
      <path id="path510" d="M453.64-451.475H457.1v53.337H453.64Z" transform="translate(-453.64 451.475)"/>
    </clipPath>
  </defs>
  <g id="trainning">
    <g id="Group_5" data-name="Group 5" transform="translate(0 0)">
      <rect id="Rectangle_1" data-name="Rectangle 1" width="75" height="10" rx="5" transform="translate(53.52)" fill="#f2f2f2"/>
      <rect id="Rectangle_7" data-name="Rectangle 7" width="132.5" height="10" rx="5" transform="translate(25 20)" fill="#f2f2f2"/>
      <rect id="Rectangle_17" data-name="Rectangle 17" width="139" height="10" rx="5" transform="translate(12 40)" fill="#f2f2f2"/>
      <rect id="Rectangle_21" data-name="Rectangle 21" width="150" height="10" rx="5" transform="translate(8 60)" fill="#f2f2f2"/>
      <rect id="Rectangle_25" data-name="Rectangle 25" width="133.5" height="10" rx="5" transform="translate(42 80)" fill="#f2f2f2"/>
      <rect id="Rectangle_29" data-name="Rectangle 29" width="147" height="10" rx="5" transform="translate(0 100)" fill="#f2f2f2"/>
      <rect id="Rectangle_33" data-name="Rectangle 33" width="100" height="10" rx="5" transform="translate(41.528 120)" fill="#f2f2f2"/>
      <path id="Exclusion_10" data-name="Exclusion 10" d="M72.667,10H.005A5.005,5.005,0,0,0,5,5,5.006,5.006,0,0,0,0,0H72.674a5,5,0,0,0-.007,10Z" transform="translate(52.28 50)" fill="#f2f2f2"/>
      <path id="Exclusion_12" data-name="Exclusion 12" d="M59.875,10H.007A5.006,5.006,0,0,0,5,5,5.006,5.006,0,0,0,0,0H59.882a5,5,0,0,0-.007,10Z" transform="translate(68.913 70)" fill="#f2f2f2"/>
      <path id="Exclusion_20" data-name="Exclusion 20" d="M49.569,10H.007A5.006,5.006,0,0,0,5,5,5.006,5.006,0,0,0,0,0H49.576a5,5,0,0,0-.007,10Z" transform="translate(61.985 90.134)" fill="#f2f2f2"/>
      <path id="Exclusion_16" data-name="Exclusion 16" d="M54.482,10H.007A5.006,5.006,0,0,0,5,5,5.006,5.006,0,0,0,0,0H54.489a5,5,0,0,0-3.437,8.487A4.973,4.973,0,0,0,54.482,10Z" transform="translate(64.516 110)" fill="#f2f2f2"/>
      <path id="Exclusion_17" data-name="Exclusion 17" d="M59.807,10H33.364a5,5,0,0,0-.007-10H59.821a5,5,0,0,0-.014,10ZM30.214,10H.007A5.006,5.006,0,0,0,5,5,5.005,5.005,0,0,0,0,0H30.35a5,5,0,0,0-.136,10ZM-9.47,9.61a5.05,5.05,0,0,1-1.715-1.2,5,5,0,0,1-1.18-2.127,5.068,5.068,0,0,0,2.9,3.321Zm-2.891-5.905h0a5.016,5.016,0,0,1,1.177-2.119A4.981,4.981,0,0,1-8.6.115,5.063,5.063,0,0,0-12.36,3.7Z" transform="translate(59.897 30)" fill="#f2f2f2"/>
      <path id="Exclusion_6" data-name="Exclusion 6" d="M39.8,10H.007A5.006,5.006,0,0,0,5,5,5.006,5.006,0,0,0,0,0H39.807A5,5,0,0,0,39.8,10Z" transform="translate(71.152 10)" fill="#f2f2f2"/>
    </g>
  </g>
  <g id="g10" transform="translate(23)">
    <g id="g24">
      <g id="g26" clip-path="url(#clip-path)">
        <g id="g32" transform="translate(21.913 81.003)">
          <path id="path34" d="M-1.348-116.57l1.592.919a1.743,1.743,0,0,0,1.576,0L48.827-142.79a.48.48,0,0,0,0-.91l-1.592-.919a1.741,1.741,0,0,0-1.576,0L-1.348-117.48a.48.48,0,0,0,0,.91" transform="translate(1.674 144.808)" fill="#e1e1e1"/>
        </g>
        <g id="g36" transform="translate(87.829 91.026)">
          <path id="path38" d="M-14.239-43.357c4.6,2.4,12.056,2.4,16.655,0s4.6-6.3,0-8.7-12.056-2.4-16.655,0-4.6,6.3,0,8.7" transform="translate(17.688 53.86)" fill="#e1e1e1"/>
        </g>
        <g id="g40" transform="translate(84.593 93.52)">
          <path id="path42" d="M-4.284-13.044a6.06,6.06,0,0,0,5.01,0c1.384-.723,1.384-1.895,0-2.618a6.06,6.06,0,0,0-5.01,0c-1.384.723-1.384,1.895,0,2.618" transform="translate(5.322 16.204)" fill="#e1e1e1"/>
        </g>
      </g>
    </g>
    <g id="g44">
      <g id="g46" clip-path="url(#clip-path)">
        <g id="g52" transform="translate(11.451 80.755)">
          <path id="path54" d="M-52.579-67.122a19.821,19.821,0,0,0-2.854-10.045c-2.434-4.135-5.647-6.906-8.348-6.064-2.515.784-1.962,4.2,1.819,7.914,2.653,2.608,5.339,5.919,6.566,9.7l2.128,4.871Z" transform="translate(65.315 83.381)" fill="#00dfbf"/>
        </g>
        <g id="g56" transform="translate(11.451 80.755)">
          <path id="path58" d="M-52.579-67.122a19.821,19.821,0,0,0-2.854-10.045c-2.434-4.135-5.647-6.906-8.348-6.064-2.515.784-1.962,4.2,1.819,7.914,2.653,2.608,5.339,5.919,6.566,9.7l2.128,4.871Z" transform="translate(65.315 83.381)" fill="#2b454e"/>
        </g>
        <g id="g60" transform="translate(14.005 82.174)">
          <path id="path62" d="M-40.3-68.364a.163.163,0,0,1-.141-.124c-1.62-6.593-5.725-13.531-9.55-16.137a.164.164,0,0,1-.043-.227.163.163,0,0,1,.227-.043c3.884,2.647,8.046,9.668,9.683,16.33a.163.163,0,0,1-.12.2.168.168,0,0,1-.057,0" transform="translate(50.063 84.924)" fill="#fff"/>
        </g>
        <g id="g64" transform="translate(7.778 92.507)">
          <path id="path66" d="M-67.839-49.469a9.727,9.727,0,0,1-4.492,2.249c-2.877.633-4.242-.679-4.242-.679s.981-2.792,2.585-3.655a16.234,16.234,0,0,0-4.918,2.368s-1.772.133-2.639-2.532c0,0,.954-1.692,4.427-2.782a11.634,11.634,0,0,0-5.221.561c-.226.106-1.423-3.335-1.818-4.932s.255-1.619,1.493-2.03,5.513-.878,6.342-.233,1.37,2.989,1.37,2.989a4.69,4.69,0,0,0,.422-2.569,4.508,4.508,0,0,1,2.682-.1c1.444.409,1.395,1.1,1.456,2.132a10.909,10.909,0,0,1-.241,3.089s.926-.9.775-4.02A14.31,14.31,0,0,1-67-56.726c.852,1.36.876,5.049-.842,7.257" transform="translate(84.272 61.452)" fill="#375a64"/>
        </g>
        <g id="g68" transform="translate(9.083 93.955)">
          <path id="path70" d="M-62.49-44.165a.164.164,0,0,1-.153-.084c-2.634-4.73-11.685-9.868-14.843-10.289a.164.164,0,0,1-.141-.184.165.165,0,0,1,.184-.141c3.209.428,12.409,5.649,15.085,10.454a.163.163,0,0,1-.063.222.16.16,0,0,1-.07.021" transform="translate(77.627 54.864)" fill="#fff"/>
        </g>
        <g id="g72" transform="translate(104.264 80.121)">
          <path id="path74" d="M0-40.409a15.079,15.079,0,0,1,1.936-5.626c1.576-2.459,3.741-3.993,5.761-4.153s3.651,1.7,1.49,2.975-6,2.579-7.769,7.352Z" transform="translate(0 50.197)" fill="#00dfbf"/>
        </g>
        <g id="g76" transform="translate(104.263 80.121)">
          <g id="g90">
            <g id="g88" opacity="0.1" clip-path="url(#clip-path-4)">
              <g id="g86" transform="translate(0 0)">
                <path id="path84" d="M0-40.409a15.079,15.079,0,0,1,1.936-5.626c1.576-2.459,3.741-3.993,5.761-4.153s3.651,1.7,1.49,2.975-6,2.579-7.769,7.352Z" transform="translate(0 50.197)"/>
              </g>
            </g>
          </g>
        </g>
        <g id="g92" transform="translate(104.767 81.069)">
          <path id="path94" d="M-.365-33.1-.387-33.1a.108.108,0,0,1-.059-.14c2.132-5.25,6.19-7.442,8.038-7.868a.108.108,0,0,1,.129.081.108.108,0,0,1-.081.129c-1.81.417-5.789,2.571-7.887,7.739a.108.108,0,0,1-.119.066" transform="translate(0.454 41.116)" fill="#fff"/>
        </g>
        <g id="g96" transform="translate(105.017 86.43)">
          <path id="path98" d="M-43.883-11.223a1.785,1.785,0,0,1-1.052.8,2.066,2.066,0,0,0-1.1.74c-.456.788.293,1.895-.2,2.662a1.411,1.411,0,0,1-.963.558,9.345,9.345,0,0,1-.946.085,3.709,3.709,0,0,1-.45-.035,2.045,2.045,0,0,0-1.3.139c-.626.352-.818,1.142-1.2,1.752A2.971,2.971,0,0,1-53.2-3.2a2.066,2.066,0,0,1-1.091-.072.507.507,0,0,1-.059-.038s0,0-.005-.005c-.04-.044-.089-.1-.11-.132a.053.053,0,0,1-.011-.018A4.517,4.517,0,0,1-54.4-4.725a.749.749,0,0,0,0-.076c-.018-.49-.031-.978-.043-1.467q-.034-1.35-.027-2.7a4.413,4.413,0,0,1,.183-1.777c.274-.606.956-.62,1.213-1.214.1-.237.158-.491.258-.731a2.1,2.1,0,0,1,1.785-1.246c1.19-.061,2.258.9,3.446.815a8.9,8.9,0,0,0,.911-.173,2.577,2.577,0,0,1,2.62.909,1.248,1.248,0,0,1,.17,1.165" transform="translate(54.513 13.942)" fill="#00dfbf"/>
        </g>
        <g id="g100" transform="translate(104.872 87.943)">
          <path id="path102" d="M-.345-29.249l-.008,0a.1.1,0,0,1-.072-.124c1.644-6.169,8.144-7.061,9.664-6.951a.1.1,0,0,1,.094.108.1.1,0,0,1-.108.094c-1.488-.107-7.845.765-9.454,6.8a.1.1,0,0,1-.116.074" transform="translate(0.428 36.334)" fill="#fff"/>
        </g>
        <g id="g104" transform="translate(107.583 90.36)">
          <path id="path106" d="M-18.963-6.364a.1.1,0,0,1-.054-.028A5.4,5.4,0,0,0-23.44-7.639a.1.1,0,0,1-.115-.086.1.1,0,0,1,.086-.115,5.611,5.611,0,0,1,4.6,1.3.1.1,0,0,1,0,.144.1.1,0,0,1-.09.028" transform="translate(23.556 7.906)" fill="#fff"/>
        </g>
      </g>
    </g>
    <g id="g108">
      <g id="g110" clip-path="url(#clip-path)">
        <g id="g116" transform="translate(23.356 7.373)">
          <path id="path118" d="M-6.4-420.761l-.986-.569a1.244,1.244,0,0,1-.563-.975V-495.4a1.244,1.244,0,0,1,.563-.975L37.96-522.55a1.244,1.244,0,0,1,1.126,0l.987.57a1.244,1.244,0,0,1,.563.975v73.091a1.244,1.244,0,0,1-.563.975L-5.271-420.761a1.245,1.245,0,0,1-1.126,0" transform="translate(7.947 522.685)" fill="#00dfbf"/>
        </g>
        <g id="g120" transform="translate(23.519 7.373)">
          <g id="g134">
            <g id="g132" opacity="0.4" clip-path="url(#clip-path-6)">
              <g id="g130" transform="translate(0 0)">
                <path id="path128" d="M-199.854-6.555c-.039-.291-.276-.4-.556-.234L-245.754,19.39a1.144,1.144,0,0,0-.4.419l-2.114-1.219a1.165,1.165,0,0,1,.4-.419l45.344-26.179a1.245,1.245,0,0,1,1.126,0l.988.569a1.262,1.262,0,0,1,.556.884" transform="translate(248.266 8.143)" fill="#fff"/>
              </g>
            </g>
          </g>
        </g>
        <g id="g136" transform="translate(23.355 34.106)">
          <g id="g150">
            <g id="g148" opacity="0.15" clip-path="url(#clip-path-7)">
              <g id="g146" transform="translate(0 0)">
                <path id="path144" d="M-10.637-310.59a.091.091,0,0,1-.034.013.378.378,0,0,1-.057.021l-.023.008c-.034.01-.068.018-.1.026h-.013a1.269,1.269,0,0,1-.671-.055.914.914,0,0,1-.125-.057l-.988-.569a1.251,1.251,0,0,1-.562-.975v-73.091a1.161,1.161,0,0,1,.164-.556l2.114,1.219a1.137,1.137,0,0,0-.166.556v73.091a.468.468,0,0,0,.086.3.294.294,0,0,0,.3.1.443.443,0,0,0,.078-.023" transform="translate(13.213 385.826)"/>
              </g>
            </g>
          </g>
        </g>
        <g id="g152" transform="translate(38.142 15.107)">
          <path id="path154" d="M-69.627-35.892c-.247.143-.447-.049-.447-.429a1.182,1.182,0,0,1,.447-.949c.25-.143.45.049.45.432a1.175,1.175,0,0,1-.45.946m-6.31.237A.957.957,0,0,1-77.4-36.1c-.736.143-1.284-.569-1.284-1.791a4.468,4.468,0,0,1,1.7-3.585.954.954,0,0,1,1.461.447c.738-.146,1.284.564,1.284,1.791a4.466,4.466,0,0,1-1.693,3.585m-8.349,8.229c-.247.14-.45-.049-.45-.432a1.193,1.193,0,0,1,.45-.952c.247-.143.447.052.447.434a1.186,1.186,0,0,1-.447.949m17.425-11.3c-.026-.016-.055-.031-.083-.049l-.936-.538a3.511,3.511,0,0,0-1.092-.387c-.161-.036-.307-.078-.434-.12a3.389,3.389,0,0,1-.413-.169l.07-.086v0l-1.058-.611v0a1.072,1.072,0,0,0-.278-.112c-.4-.1-.993.135-1.589.068a1.492,1.492,0,0,1-1.079-.642,13.156,13.156,0,0,1-.9-2.044l.278-.411a.967.967,0,0,0-.088-.049l-.97-.562a1.056,1.056,0,0,0-.541-.146,2.072,2.072,0,0,0-1.017.33c-2.322,1.342-2.4,4.527-3.237,6.62s-2.02,2.751-2.665,3.653-.689,1.568-2.116,3.536S-86.493-28-86.493-27.627v2.933l1.056.608,19-10.975Z" transform="translate(86.493 44.587)" fill="#375a64"/>
        </g>
        <g id="g156" transform="translate(38.142 31.612)">
          <g id="g170">
            <g id="g168" opacity="0.5" clip-path="url(#clip-path-8)">
              <g id="g166" transform="translate(0 0)">
                <path id="path164" d="M-8.714-4.871l-2.044-1.18a1.441,1.441,0,0,0-.067.455v2.933l1.056.608,1.055-.609Z" transform="translate(10.825 6.051)" fill="#2b454e"/>
              </g>
            </g>
          </g>
        </g>
        <g id="g172" transform="translate(40.446 25.71)">
          <g id="g186">
            <g id="g184" opacity="0.5" clip-path="url(#clip-path-9)">
              <g id="g182" transform="translate(0 0)">
                <path id="path180" d="M-7.923-14.134l1.056-2.439-1.678-.985h0c-.493.682-.635,1.232-1.3,2.315Z" transform="translate(9.843 17.557)" fill="#2b454e"/>
              </g>
            </g>
          </g>
        </g>
        <g id="g188" transform="translate(44.068 17.685)">
          <g id="g202">
            <g id="g200" opacity="0.5" clip-path="url(#clip-path-10)">
              <g id="g198" transform="translate(0 0)">
                <path id="path196" d="M-10.409-27.123l.137-.711c-.467-.2-.777-.826-.777-1.745a4.855,4.855,0,0,1,1.286-3.27l-1.464-.845c-.624,1.421-.855,3.1-1.364,4.372a8.085,8.085,0,0,1-.34.743Z" transform="translate(12.931 33.693)" fill="#2b454e"/>
              </g>
            </g>
          </g>
        </g>
        <g id="g204" transform="translate(39.197 15.716)">
          <path id="path206" d="M-69.627-35.891c-.25.143-.45-.049-.45-.429a1.176,1.176,0,0,1,.45-.949c.247-.143.447.049.447.432a1.181,1.181,0,0,1-.447.946m-7.366-.372a.957.957,0,0,1-1.464-.447,2.7,2.7,0,0,1-.231-1.183,4.467,4.467,0,0,1,1.7-3.585,1.372,1.372,0,0,1,.408-.161c.738-.146,1.284.564,1.284,1.791a4.466,4.466,0,0,1-1.693,3.585m-7.3,8.837c-.247.143-.447-.049-.447-.432a1.191,1.191,0,0,1,.447-.952c.25-.143.447.052.447.434a1.178,1.178,0,0,1-.447.949m16.372-11.911c-.026-.016-.055-.031-.083-.049a4.17,4.17,0,0,0-.975-.317,3.051,3.051,0,0,1-1.487-.728,2.167,2.167,0,0,0-.343-.255,1,1,0,0,0-.283-.114c-.64-.153-1.8.543-2.642-.541l-.026-.034c-.585-.788-.8-2.545-1.674-3.063a.971.971,0,0,0-.088-.049,1.568,1.568,0,0,0-1.474.231c-2.322,1.342-2.4,4.527-3.237,6.62s-2.02,2.751-2.665,3.653-.686,1.568-2.116,3.536S-86.493-28-86.493-27.625v2.933l19-10.975V-38.6a.74.74,0,0,0-.426-.738" transform="translate(86.493 44.585)" fill="#2b454e"/>
        </g>
        <g id="g208" transform="translate(47.234 18.643)">
          <path id="path210" d="M-13.03-7.473a4.466,4.466,0,0,1-1.693,3.585.957.957,0,0,1-1.464-.447,1.319,1.319,0,0,0,.411-.161,4.466,4.466,0,0,0,1.693-3.585,2.7,2.7,0,0,0-.231-1.183c.738-.146,1.284.564,1.284,1.791" transform="translate(16.187 9.283)" fill="#1a2e35"/>
        </g>
        <g id="g212" transform="translate(40.954 31.447)">
          <path id="path214" d="M-1.855-5.895c-.248.143-.449-.049-.449-.43a1.188,1.188,0,0,1,.449-.951c.248-.143.448.053.448.433a1.18,1.18,0,0,1-.448.948" transform="translate(2.304 7.322)" fill="#1a2e35"/>
        </g>
        <g id="g216" transform="translate(55.613 22.984)">
          <path id="path218" d="M-1.856-5.895c-.248.143-.45-.049-.45-.43a1.188,1.188,0,0,1,.45-.951c.248-.143.448.053.448.433a1.18,1.18,0,0,1-.448.948" transform="translate(2.305 7.322)" fill="#1a2e35"/>
        </g>
        <g id="g220" transform="translate(28.635 18.882)">
          <path id="path222" d="M-1.394-94.377l39.458-22.781a.746.746,0,0,1,.675,0l.38.22a.746.746,0,0,1,.338.585v60.2a.747.747,0,0,1-.338.585L-.337-32.792a.747.747,0,0,1-.675,0l-.381-.22a.747.747,0,0,1-.338-.585v-60.2a.746.746,0,0,1,.338-.585" transform="translate(1.732 117.239)" fill="#f5f5f5"/>
        </g>
        <g id="g224" transform="translate(28.735 18.881)">
          <path id="path226" d="M-169.575-3.236c-.042-.138-.172-.182-.325-.094l-39.458,22.781a.678.678,0,0,0-.239.252l-1.056-.608a.66.66,0,0,1,.239-.252l39.457-22.781a.733.733,0,0,1,.673,0l.382.218a.75.75,0,0,1,.325.484" transform="translate(210.653 4.02)" fill="#fafafa"/>
        </g>
        <g id="g228" transform="translate(28.636 41.997)">
          <path id="path230" d="M-5.42-253.338a.625.625,0,0,1-.125.034l-.065.008a.907.907,0,0,1-.205-.008.626.626,0,0,1-.125-.034.675.675,0,0,1-.075-.036l-.38-.218a.747.747,0,0,1-.338-.585v-60.2a.666.666,0,0,1,.1-.333l1.056.608a.711.711,0,0,0-.1.333v60.2c0,.185.109.276.257.231" transform="translate(6.733 314.706)" fill="#e1e1e1"/>
        </g>
        <g id="g232" transform="translate(36.951 17.005)">
          <path id="path234" d="M-71.835-15.81a5.3,5.3,0,0,1-2.226,3.432c-.681.356-1.178.135-1.344-.491a.779.779,0,0,1-.746-.1c-.317-.25,2.584-5.229,2.821-5.119a.842.842,0,0,1,.437.6c.814-.247,1.277.442,1.058,1.68m6.583,6.653-1.05-.608a1.14,1.14,0,0,0-1.056.031c-1.227.541-1.758.785-2.392,1.05-.146.06-.294.12-.458.185-.247.1-.744.016-.59-.85l1.63-4.391-.023-.013-1.032-.6a.461.461,0,0,0-.172-.06.747.747,0,0,0-.114-.01c-.668-.016-.858-4.321-.863-4.454v0l-.047-.026-1.022-.588a1.142,1.142,0,0,0-.582-.148,2.137,2.137,0,0,0-.967.273,8.611,8.611,0,0,0-3.619,5.58A10.756,10.756,0,0,1-80.1-9.4a2.624,2.624,0,0,0-.879,1.472l-.64,3.624-.205,1.16a3.8,3.8,0,0,1-1.037,1.7l-3.31,2.48a8.409,8.409,0,0,0-3.055,5.608s0,.013,0,.016c-.013.075,0,.127.036.148a.037.037,0,0,0,.036,0v0s0,0,.005,0l.424-.242L-65.959-6.559a.5.5,0,0,0,.208-.317s0-.008.005-.01,0-.005,0-.008c.13-.785.51-2.254.51-2.254l-.016-.008" transform="translate(89.237 19.64)" fill="#375a64"/>
        </g>
        <g id="g236" transform="translate(36.951 39.152)">
          <g id="g250">
            <g id="g248" opacity="0.5" clip-path="url(#clip-path-11)">
              <g id="g246" transform="translate(0 0)">
                <path id="path244" d="M-13.629-3.953l-1.659-.958A9.174,9.174,0,0,0-16.923-.765s0,.013,0,.016c-.013.075,0,.127.036.148a.037.037,0,0,0,.036,0v0s0,0,.005,0l0,0,1.309-1.037Z" transform="translate(16.93 4.911)" fill="#2b454e"/>
              </g>
            </g>
          </g>
        </g>
        <g id="g252" transform="translate(44.251 27.916)">
          <g id="g266">
            <g id="g264" opacity="0.5" clip-path="url(#clip-path-12)">
              <g id="g262" transform="translate(0 0)">
                <path id="path260" d="M0-24.624l2.339,1.35,1.056-6.1L1.286-30.589a1.991,1.991,0,0,0-.331.8L.315-26.16.11-25a1.937,1.937,0,0,1-.11.376" transform="translate(0 30.589)" fill="#2b454e"/>
              </g>
            </g>
          </g>
        </g>
        <g id="g268" transform="translate(47.751 19.946)">
          <g id="g282">
            <g id="g280" opacity="0.5" clip-path="url(#clip-path-13)">
              <g id="g278" transform="translate(0 0)">
                <path id="path276" d="M-7.992,0A9.078,9.078,0,0,0-9.1,2.912,7.246,7.246,0,0,1-9.928,4.98l2.007,1.159,1-2.3a.77.77,0,0,1-.718-.1c-.163-.128.525-1.507,1.264-2.8Z" transform="translate(9.928)" fill="#2b454e"/>
              </g>
            </g>
          </g>
        </g>
        <g id="g284" transform="translate(37.027 17.613)">
          <path id="path286" d="M-71.523-13.3a5.3,5.3,0,0,1-2.226,3.432c-.681.356-1.178.135-1.344-.491a2.609,2.609,0,0,1,0-1.069,5.286,5.286,0,0,1,2.228-3.429,1.748,1.748,0,0,1,.286-.122c.814-.247,1.277.442,1.058,1.68m6.6,6.661-.016-.008a1.147,1.147,0,0,0-1.05.034c-1.505.663-1.96.881-2.852,1.235-.239.1-.72.018-.6-.8a.394.394,0,0,1,.008-.055l.205-1.16.569-3.159s.13-.5-.2-.684l-.023-.013a.614.614,0,0,0-.263-.057,1.284,1.284,0,0,1-.941-.6,2.374,2.374,0,0,1-.354-1.807c.239-1.355-.023-2.3-.624-2.657a.451.451,0,0,0-.047-.029,1.612,1.612,0,0,0-1.516.148,8.611,8.611,0,0,0-3.619,5.58,10.756,10.756,0,0,1-2.493,4.391,2.624,2.624,0,0,0-.879,1.472l-.64,3.624-.205,1.16a3.8,3.8,0,0,1-1.04,1.7l-3.307,2.48a7.978,7.978,0,0,0-2.722,4.121s-1.24.962-1.318,1.04v0s0,0,0,0l0,0,.424-.242L-65.582-4.048s.263-.143.32-.179.978-.9.978-.9a1.788,1.788,0,0,0-.64-1.511" transform="translate(88.849 16.527)" fill="#2b454e"/>
        </g>
        <g id="g288" transform="translate(50.783 19.106)">
          <path id="path290" d="M-14.737-7.139a5.3,5.3,0,0,1-2.226,3.432c-.681.356-1.178.135-1.344-.491a1.844,1.844,0,0,0,.289-.12A5.286,5.286,0,0,0-15.792-7.75a2.564,2.564,0,0,0,0-1.069c.814-.247,1.277.442,1.058,1.68" transform="translate(18.307 8.869)" fill="#1a2e35"/>
        </g>
        <g id="g292" transform="translate(50.727 19.15)">
          <path id="path294" d="M-11.034,0q-.05,0-.105.005a1.771,1.771,0,0,0-.286.122,5.286,5.286,0,0,0-2.228,3.429,2.61,2.61,0,0,0,0,1.069,1.107,1.107,0,0,0,.748.479h.009c.457,0,2-1.561,2.245-2.25S-9.87,0-11.034,0m0,.065h0a.541.541,0,0,1,.476.23c.409.581.017,2.064-.152,2.538-.236.66-1.767,2.207-2.19,2.207a1.031,1.031,0,0,1-.691-.442,2.584,2.584,0,0,1,0-1.03A5.224,5.224,0,0,1-11.4.185,1.7,1.7,0,0,1-11.126.07q.048,0,.092,0" transform="translate(13.707)" fill="#1a2e35"/>
        </g>
        <g id="g296" transform="translate(37.027 29.006)">
          <path id="path298" d="M-.018-59.681,23.243-73.053s.264-.144.32-.179.978-.907.978-.907L1.3-60.724S-.111-59.633-.018-59.681" transform="translate(0.022 74.138)" fill="#1a2e35"/>
        </g>
        <g id="g300" transform="translate(32.904 45.86)">
          <path id="path302" d="M0-15.211,6.293-18.9v7.317L0-7.894Z" transform="translate(0 18.896)" fill="#fafafa"/>
        </g>
        <g id="g304" transform="translate(32.644 45.6)">
          <path id="path306" d="M-1.073-47.564A.26.26,0,0,1-1.2-47.6a.26.26,0,0,1-.131-.226v-7.317a.259.259,0,0,1,.129-.224L5.088-59.05a.261.261,0,0,1,.261,0,.26.26,0,0,1,.131.226v7.317a.26.26,0,0,1-.129.224L-.942-47.6a.26.26,0,0,1-.131.036m.26-7.428v6.714l5.772-3.38v-6.715Z" transform="translate(1.333 59.086)" fill="#375a64"/>
        </g>
        <g id="g308" transform="translate(42.365 30.552)">
          <path id="path310" d="M0-56.7v.529c0,.287.2.4.45.26L22.785-68.808a1,1,0,0,0,.45-.78v-.531c0-.287-.2-.4-.45-.26L.45-57.485A1,1,0,0,0,0-56.7" transform="translate(0 70.441)" fill="#e1e1e1"/>
        </g>
        <g id="g312" transform="translate(42.365 33.748)">
          <path id="path314" d="M0-56.7v.529c0,.287.2.4.45.26L22.785-68.808a1,1,0,0,0,.45-.78v-.531c0-.287-.2-.4-.45-.26L.45-57.485A1,1,0,0,0,0-56.7" transform="translate(0 70.441)" fill="#e1e1e1"/>
        </g>
        <g id="g316" transform="translate(42.365 36.926)">
          <path id="path318" d="M0-56.7v.529c0,.287.2.4.45.26L22.785-68.808a1,1,0,0,0,.45-.78v-.531c0-.287-.2-.4-.45-.26L.45-57.485A1,1,0,0,0,0-56.7" transform="translate(0 70.441)" fill="#e1e1e1"/>
        </g>
        <g id="g320" transform="translate(34.693 44.007)">
          <path id="path322" d="M-6.042-38.3l-1.464-1.408.63-1.334.834.8,3.466-7.337.63.607Z" transform="translate(7.505 47.579)" fill="#00dfbf"/>
        </g>
        <g id="g324" transform="translate(32.904 59.275)">
          <path id="path326" d="M0-15.211,6.293-18.9v7.317L0-7.894Z" transform="translate(0 18.896)" fill="#fafafa"/>
        </g>
        <g id="g328" transform="translate(32.644 59.015)">
          <path id="path330" d="M-1.073-47.564A.26.26,0,0,1-1.2-47.6a.26.26,0,0,1-.131-.226v-7.317a.259.259,0,0,1,.129-.224L5.088-59.05a.261.261,0,0,1,.261,0,.26.26,0,0,1,.131.226v7.317a.26.26,0,0,1-.129.224L-.942-47.6a.26.26,0,0,1-.131.036m.26-7.428v6.714l5.772-3.38v-6.715Z" transform="translate(1.333 59.086)" fill="#375a64"/>
        </g>
        <g id="g332" transform="translate(42.365 43.967)">
          <path id="path334" d="M0-56.7v.529c0,.287.2.4.45.26L22.785-68.808a1,1,0,0,0,.45-.78v-.531c0-.287-.2-.4-.45-.26L.45-57.485A1,1,0,0,0,0-56.7" transform="translate(0 70.441)" fill="#e1e1e1"/>
        </g>
        <g id="g336" transform="translate(42.365 47.163)">
          <path id="path338" d="M0-56.7v.529c0,.287.2.4.45.26L22.785-68.808a1,1,0,0,0,.45-.78v-.531c0-.287-.2-.4-.45-.26L.45-57.485A1,1,0,0,0,0-56.7" transform="translate(0 70.441)" fill="#e1e1e1"/>
        </g>
        <g id="g340" transform="translate(42.365 50.341)">
          <path id="path342" d="M0-56.7v.529c0,.287.2.4.45.26L22.785-68.808a1,1,0,0,0,.45-.78v-.531c0-.287-.2-.4-.45-.26L.45-57.485A1,1,0,0,0,0-56.7" transform="translate(0 70.441)" fill="#e1e1e1"/>
        </g>
        <g id="g344" transform="translate(34.693 57.422)">
          <path id="path346" d="M-6.042-38.3l-1.464-1.408.63-1.334.834.8,3.466-7.337.63.607Z" transform="translate(7.505 47.579)" fill="#00dfbf"/>
        </g>
        <g id="g348" transform="translate(32.904 72.69)">
          <path id="path350" d="M0-15.211,6.293-18.9v7.317L0-7.894Z" transform="translate(0 18.896)" fill="#fafafa"/>
        </g>
        <g id="g352" transform="translate(32.644 72.43)">
          <path id="path354" d="M-1.073-47.564A.26.26,0,0,1-1.2-47.6a.26.26,0,0,1-.131-.226v-7.317a.259.259,0,0,1,.129-.224L5.088-59.05a.261.261,0,0,1,.261,0,.26.26,0,0,1,.131.226v7.317a.26.26,0,0,1-.129.224L-.942-47.6a.26.26,0,0,1-.131.036m.26-7.428v6.714l5.772-3.38v-6.715Z" transform="translate(1.333 59.086)" fill="#375a64"/>
        </g>
        <g id="g356" transform="translate(42.365 57.382)">
          <path id="path358" d="M0-56.7v.529c0,.287.2.4.45.26L22.785-68.808a1,1,0,0,0,.45-.78v-.531c0-.287-.2-.4-.45-.26L.45-57.485A1,1,0,0,0,0-56.7" transform="translate(0 70.441)" fill="#e1e1e1"/>
        </g>
        <g id="g360" transform="translate(42.365 60.578)">
          <path id="path362" d="M0-56.7v.529c0,.287.2.4.45.26L22.785-68.808a1,1,0,0,0,.45-.78v-.531c0-.287-.2-.4-.45-.26L.45-57.485A1,1,0,0,0,0-56.7" transform="translate(0 70.441)" fill="#e1e1e1"/>
        </g>
        <g id="g364" transform="translate(42.365 63.756)">
          <path id="path366" d="M0-56.7v.529c0,.287.2.4.45.26L22.785-68.808a1,1,0,0,0,.45-.78v-.531c0-.287-.2-.4-.45-.26L.45-57.485A1,1,0,0,0,0-56.7" transform="translate(0 70.441)" fill="#e1e1e1"/>
        </g>
        <g id="g368" transform="translate(32.904 86.105)">
          <path id="path370" d="M0-15.211,6.293-18.9v7.317L0-7.894Z" transform="translate(0 18.896)" fill="#fafafa"/>
        </g>
        <g id="g372" transform="translate(32.644 85.845)">
          <path id="path374" d="M-1.073-47.564A.26.26,0,0,1-1.2-47.6a.26.26,0,0,1-.131-.226v-7.317a.259.259,0,0,1,.129-.224L5.088-59.05a.261.261,0,0,1,.261,0,.26.26,0,0,1,.131.226v7.317a.26.26,0,0,1-.129.224L-.942-47.6a.26.26,0,0,1-.131.036m.26-7.428v6.714l5.772-3.38v-6.715Z" transform="translate(1.333 59.086)" fill="#375a64"/>
        </g>
        <g id="g376" transform="translate(42.365 70.797)">
          <path id="path378" d="M0-56.7v.529c0,.287.2.4.45.26L22.785-68.808a1,1,0,0,0,.45-.78v-.531c0-.287-.2-.4-.45-.26L.45-57.485A1,1,0,0,0,0-56.7" transform="translate(0 70.441)" fill="#e1e1e1"/>
        </g>
        <g id="g380" transform="translate(42.365 73.993)">
          <path id="path382" d="M0-56.7v.529c0,.287.2.4.45.26L22.785-68.808a1,1,0,0,0,.45-.78v-.531c0-.287-.2-.4-.45-.26L.45-57.485A1,1,0,0,0,0-56.7" transform="translate(0 70.441)" fill="#e1e1e1"/>
        </g>
        <g id="g384" transform="translate(42.365 77.171)">
          <path id="path386" d="M0-56.7v.529c0,.287.2.4.45.26L22.785-68.808a1,1,0,0,0,.45-.78v-.531c0-.287-.2-.4-.45-.26L.45-57.485A1,1,0,0,0,0-56.7" transform="translate(0 70.441)" fill="#e1e1e1"/>
        </g>
      </g>
    </g>
    <g id="g388">
      <g id="g390" clip-path="url(#clip-path)">
        <g id="g396" transform="translate(95.739 43.118)">
          <path id="path398" d="M-23.282-11.641a2.82,2.82,0,0,1-2.82,2.82,2.82,2.82,0,0,1-2.82-2.82,2.82,2.82,0,0,1,2.82-2.82,2.82,2.82,0,0,1,2.82,2.82" transform="translate(28.921 14.461)" fill="#1a2e35"/>
        </g>
        <g id="g400" transform="translate(85.666 54.743)">
          <path id="path402" d="M-39.363,0l-4.024,4.691-5.405-2.345L-48.9,5.273s4.427,2.068,5.106,2.208a2.2,2.2,0,0,0,1.932-.163c.692-.529,3.175-3.4,3.175-3.4Z" transform="translate(48.899)" fill="#ffaaa8"/>
        </g>
        <g id="g404" transform="translate(92.924 52.336)">
          <path id="path406" d="M-24.487-.026c-1.6-.1-2.875,1.115-3.8,2.206s-2.13,2.809-2.13,2.809A4.249,4.249,0,0,0-28.065,7.45l2.939-3.494Z" transform="translate(30.419 0.032)" fill="#e1e1e1"/>
        </g>
        <path id="path408" d="M531.858-182.988h-1.986v-3.4h1.986Z" transform="translate(-426.547 280.043)" fill="#ffaaa8"/>
        <g id="g410" transform="translate(96.34 91.077)">
          <path id="path412" d="M-8.606-14.856l-1.985.068-.1-3.6,1.985-.068Z" transform="translate(10.691 18.455)" fill="#ffaaa8"/>
        </g>
        <g id="g414" transform="translate(95.201 66.699)">
          <path id="path416" d="M-41.2,0c0,1.9.245,13.391.245,13.391a11.9,11.9,0,0,1,.447,3.649c-.151,2.848-.4,10.251-.4,10.251a1.716,1.716,0,0,1-2.246,0s-1.8-10.241-2.155-13.063c-.31-2.463-.838-9.154-.838-9.154l-1.1,9.286s.324,1.851.395,3.158-1.076,7.939-1.076,7.939a2.17,2.17,0,0,1-2.161.083s-.857-10.112-1.062-11.292S-50.49,0-50.49,0Z" transform="translate(51.18)" fill="#2b454e"/>
        </g>
        <g id="g418" transform="translate(95.891 52.339)">
          <path id="path420" d="M-30.476-2.634A2.173,2.173,0,0,1-28.731-.966,7,7,0,0,1-28.568.542V11.088c-1.393,1.515-6.249,2.221-9.291,0,0,0,.06-9.315.288-10.845.4-2.659,1.669-3.607,2.947-3.508l3.066.439Z" transform="translate(37.859 3.272)" fill="#f0f0f0"/>
        </g>
        <g id="g422" transform="translate(102.231 47.943)">
          <path id="path424" d="M-4.962,0A24.352,24.352,0,0,1-5.6,2.5a.971.971,0,0,1-.562.453l.032-1.51Z" transform="translate(6.164)" fill="#1a2e35"/>
        </g>
        <g id="g426" transform="translate(102.573 44.86)">
          <path id="path428" d="M-1.186-.031A1.058,1.058,0,0,1-.31.277c.376.385.166,1.588-.3,2.767l-.861.1Z" transform="translate(1.473 0.039)" fill="#1a2e35"/>
        </g>
        <g id="g430" transform="translate(96.178 43.543)">
          <path id="path432" d="M-25.332-18.574c.172.1.419-.228.632-.451a.749.749,0,0,1,1.254.2,1.564,1.564,0,0,1-.853,1.9c-.943.3-1.084-.309-1.084-.309l-.072,3.4a3.035,3.035,0,0,1-2.289,1.737c-1.672.226-1.328-1.152-.778-1.827l0-1.035a5.937,5.937,0,0,1-1.271.065,1.729,1.729,0,0,1-1.34-1.4,10.088,10.088,0,0,1-.179-4.549c.314-2.6,3.336-2.625,4.968-1.6s1.01,3.868,1.01,3.868" transform="translate(31.469 23.074)" fill="#ffaaa8"/>
        </g>
        <g id="g434" transform="translate(95.878 42.431)">
          <path id="path436" d="M-26.569-24.366c.087,0,.417-.546.632-.742.3-.271-.086-2.724-.086-2.724a1.162,1.162,0,0,0-.288-1.241c-.408-.449-1.089-.5-2.253-.681-.61-.1-1.536-.267-2.146-.38-.728-.135-1.331-.278-1.845.168a1.292,1.292,0,0,0-.357,1.446,1.2,1.2,0,0,0,.207.309,1.2,1.2,0,0,0,.524.361,2.856,2.856,0,0,0,1.422.416,16.316,16.316,0,0,0,3.059-.058c.32-.044.388.267.561,1.114.152.744.277,2.006.569,2.012" transform="translate(33.005 30.269)" fill="#1a2e35"/>
        </g>
        <g id="g438" transform="translate(102.793 44.169)">
          <path id="path440" d="M-.268-3.674l1.044-.56A.575.575,0,0,0-.014-4.5a.623.623,0,0,0-.254.822" transform="translate(0.333 4.564)" fill="#1a2e35"/>
        </g>
        <g id="g442" transform="translate(99.127 50.322)">
          <path id="path444" d="M0-5.53a11.856,11.856,0,0,0,2.089-.6,1.779,1.779,0,0,0,.748-.74A2.434,2.434,0,0,1,2.412-6C2.016-5.491,0-5.118,0-5.118Z" transform="translate(0 6.869)" fill="#ff9090"/>
        </g>
        <g id="g446" transform="translate(99.498 47.333)">
          <path id="path448" d="M0-1.334a.315.315,0,0,0,.31.321.317.317,0,0,0,.31-.323.315.315,0,0,0-.31-.321A.317.317,0,0,0,0-1.334" transform="translate(0 1.657)" fill="#1a2e35"/>
        </g>
        <g id="g450" transform="translate(99.828 46.277)">
          <path id="path452" d="M0-.857l.664.366a.4.4,0,0,0-.155-.528A.37.37,0,0,0,0-.857" transform="translate(0 1.065)" fill="#1a2e35"/>
        </g>
        <g id="g454" transform="translate(98.559 49.798)">
          <path id="path456" d="M-2.923,0l-.708.266A.372.372,0,0,0-3.15.5.4.4,0,0,0-2.923,0" transform="translate(3.631)" fill="#ff9090"/>
        </g>
        <g id="g458" transform="translate(96.659 46.119)">
          <path id="path460" d="M-.3-2.575.3-3.041a.367.367,0,0,0-.526-.081A.4.4,0,0,0-.3-2.575" transform="translate(0.378 3.199)" fill="#1a2e35"/>
        </g>
        <g id="g462" transform="translate(96.919 47.244)">
          <path id="path464" d="M0-1.334a.315.315,0,0,0,.31.321.317.317,0,0,0,.31-.323.315.315,0,0,0-.31-.321A.317.317,0,0,0,0-1.334" transform="translate(0 1.657)" fill="#1a2e35"/>
        </g>
        <g id="g466" transform="translate(97.423 47.274)">
          <path id="path468" d="M-4.441,0l-.1,1.865-.974-.332Z" transform="translate(5.517)" fill="#ff9090"/>
        </g>
        <g id="g470" transform="translate(100.183 95.788)">
          <path id="path472" d="M-12.974-1.181v-.284c-.19.083-.632,1.768-1.42,2.487a6.162,6.162,0,0,0-1.7,1.869c-.226.663,1.19,1.028,1.776.925a4.236,4.236,0,0,0,2.155-1.043c.3-.444.434-1.1.675-1.424s.795-.688.925-1.065a2.4,2.4,0,0,0-.114-1.043c-.092-.351-.192-.737-.312-.7,0,.043,0,.217,0,.217a1.57,1.57,0,0,1-.993.336c-.291.011-1-.046-.993-.268" transform="translate(16.116 1.467)" fill="#1a2e35"/>
        </g>
        <g id="g474" transform="translate(91.695 94.017)">
          <path id="path476" d="M-19.5-.471c-.1,0-.187.149-.415.4a4.345,4.345,0,0,1-1.168.841c-.744.372-2.19.945-2.844,1.24-.409.184-.39.678.033.959a3.827,3.827,0,0,0,2.668.21c.668-.149,1.537-.766,2.087-.733a4.115,4.115,0,0,0,1.985-.254c.406-.28.243-.877.129-1.391-.125-.56-.3-1.418-.49-1.38l.006.176a2.127,2.127,0,0,1-1.979.243Z" transform="translate(24.22 0.585)" fill="#1a2e35"/>
        </g>
        <g id="g478" transform="translate(97.472 70.187)">
          <path id="path480" d="M-11.419-6.547a7.358,7.358,0,0,1-2.766-1.586A5.723,5.723,0,0,0-12.064-6.2l-.457,8.943Z" transform="translate(14.185 8.133)" fill="#1a2e35"/>
        </g>
        <g id="g482" transform="translate(84.565 85.463)">
          <path id="path484" d="M-29.886-.328-33.23,9.429a.314.314,0,0,1-.594,0l-3.3-9.835Z" transform="translate(37.125 0.408)" fill="#ffaaa8"/>
        </g>
        <g id="g486" transform="translate(87.159 93.194)">
          <path id="path488" d="M-2.915-8.685a.314.314,0,0,0,.594,0l.653-1.9a1.739,1.739,0,0,1-1.808-.1l-.146-.1Z" transform="translate(3.621 10.789)" fill="#1a2e35"/>
        </g>
        <g id="g490" transform="translate(84.564 41.952)">
          <path id="path492" d="M-.525,0l0,.955L-.534,2.107l-.118,41.4A4.605,4.605,0,0,0,2.4,44.944c1.751.182,3.546-.392,4.187-1.355L6.7,2.212,6.706.01C6.623,1.435-.589,1.431-.525,0" transform="translate(0.652)" fill="#00dfbf"/>
        </g>
        <g id="g494" transform="translate(84.667 45.568)">
          <path id="path496" d="M-.011-.078l0,2.132c-.021.618,1.3,1.017,2.815,1.157C4.82,3.4,7.2,2.855,7.226,2.036l0-1.571L7.222-.1C7.193.721,4.816,1.27,2.8,1.079,1.342.943.068.565,0-.012V-.018a.127.127,0,0,1-.005-.06" transform="translate(0.013 0.097)" fill="#ececec"/>
        </g>
        <g id="g498" transform="translate(84.673 43.967)">
          <path id="path500" d="M0-8.885C-.053-7.45,7.181-7.468,7.233-8.9l.009-2.134C7.19-9.6-.043-9.584.009-11.019Z" transform="translate(0.001 11.037)" fill="#00dfbf"/>
        </g>
        <g id="g502" transform="translate(84.681 41.952)">
          <path id="path504" d="M-.04,0-.05,2.107c-.061,1.409,6.919,1.45,7.234.105a.3.3,0,0,0,.013-.08L7.191.01C7.107,1.435-.1,1.431-.04,0" transform="translate(0.05)" fill="#ececec"/>
        </g>
        <g id="g506" transform="translate(88.46 41.962)">
          <g id="g520">
            <g id="g518" opacity="0.1" clip-path="url(#clip-path-15)">
              <g id="g516" transform="translate(0 0)">
                <path id="path514" d="M-14.267-9.091l.006-2.2c-.037.644-1.514,1.124-3.151,1.183l-.117,43.785-.194,8.369,3.344-9.757h0Z" transform="translate(17.723 11.293)"/>
              </g>
            </g>
          </g>
        </g>
        <g id="g522" transform="translate(84.691 31.151)">
          <path id="path524" d="M-.146-7.687-.18,1.252c-.028.612,1.273,1.015,2.78,1.161,2.018.2,4.4-.335,4.45-1.152,0,0,0,0,0-.01l.032-8.969c0-1.784-3.618-2.232-5.78-1.489A1.848,1.848,0,0,0-.146-7.687" transform="translate(0.181 9.549)" fill="#ff9090"/>
        </g>
        <g id="g526" transform="translate(102.767 53.073)">
          <path id="path528" d="M-22.448-68.495a22.307,22.307,0,0,1-.358,2.685c-.594,2.295-1.357,2.982-2.373,3.05-1.621.108-1.631-.5-.9-1.543a5.175,5.175,0,0,0,.724-1.492,3.909,3.909,0,0,1-.778.5.557.557,0,0,1-.731-.2c-.053-.109.228-.219.538-.6a5.912,5.912,0,0,1,1.145-1.27,1.131,1.131,0,0,0,.328-.67,40.39,40.39,0,0,0-.155-6.606l-1.395-5c-1.134-.779-2.342-4.63-.618-5.449,1.619.182,2.8,2.3,4.563,8.834a40.471,40.471,0,0,1,.013,7.758" transform="translate(27.886 85.086)" fill="#ffaaa8"/>
        </g>
        <g id="g530" transform="translate(102.57 52.969)">
          <path id="path532" d="M-2.9-.034a2.082,2.082,0,0,0-.7,1.571A12.583,12.583,0,0,0-2.829,5.18c.309.984.952,2.762.952,2.762S.787,7.637,1.394,6.074c0,0-1.248-4.037-2.449-5.351A2.251,2.251,0,0,0-2.9-.034" transform="translate(3.607 0.043)" fill="#e1e1e1"/>
        </g>
        <g id="g534" transform="translate(84.038 52.314)">
          <path id="path536" d="M-8.988-6.776A2.481,2.481,0,0,1-7.1-7.089c.6.1.369,2.359-1.553,2.989-1.25.41-1.5.2-1.908,1.228,0,0-.755-.157-.571-1.307A6.426,6.426,0,0,1-9.613-7.368c.551-.651.588-1.2.858-1.013.306.209.119.747.119.747Z" transform="translate(11.165 8.417)" fill="#ffaaa8"/>
        </g>
      </g>
    </g>
  </g>
</svg>
