<svg id="trainning" xmlns="http://www.w3.org/2000/svg" xmlns:xlink="http://www.w3.org/1999/xlink" width="175.5" height="130" viewBox="0 0 175.5 130">
  <defs>
    <clipPath id="clip-path">
      <path id="path16" d="M0-666.665H135v130H0Z" transform="translate(0 666.665)"/>
    </clipPath>
  </defs>
  <g id="Group_5" data-name="Group 5">
    <rect id="Rectangle_1" data-name="Rectangle 1" width="75" height="10" rx="5" transform="translate(53.52 0)" fill="rgba(253,198,143,0.29)"/>
    <rect id="Rectangle_7" data-name="Rectangle 7" width="132.5" height="10" rx="5" transform="translate(25 19.867)" fill="rgba(253,198,143,0.29)"/>
    <rect id="Rectangle_17" data-name="Rectangle 17" width="139" height="10" rx="5" transform="translate(12 39.733)" fill="rgba(253,198,143,0.29)"/>
    <rect id="Rectangle_21" data-name="Rectangle 21" width="150" height="10" rx="5" transform="translate(8 59.6)" fill="rgba(253,198,143,0.29)"/>
    <rect id="Rectangle_25" data-name="Rectangle 25" width="133.5" height="10" rx="5" transform="translate(42 79.467)" fill="rgba(253,198,143,0.29)"/>
    <rect id="Rectangle_29" data-name="Rectangle 29" width="147" height="10" rx="5" transform="translate(0 99.333)" fill="rgba(253,198,143,0.29)"/>
    <rect id="Rectangle_33" data-name="Rectangle 33" width="100" height="10" rx="5" transform="translate(41.528 119.2)" fill="rgba(253,198,143,0.29)"/>
    <path id="Exclusion_10" data-name="Exclusion 10" d="M72.667,10H.005A5.005,5.005,0,0,0,5,5,5.006,5.006,0,0,0,0,0H72.674a5,5,0,0,0-.007,10Z" transform="translate(52.28 49.667)" fill="rgba(253,198,143,0.29)"/>
    <path id="Exclusion_12" data-name="Exclusion 12" d="M59.875,10H.007A5.006,5.006,0,0,0,5,5,5.006,5.006,0,0,0,0,0H59.882a5,5,0,0,0-.007,10Z" transform="translate(68.913 69.533)" fill="rgba(253,198,143,0.29)"/>
    <path id="Exclusion_20" data-name="Exclusion 20" d="M49.569,10H.007A5.006,5.006,0,0,0,5,5,5.006,5.006,0,0,0,0,0H49.576a5,5,0,0,0-.007,10Z" transform="translate(61.985 89.533)" fill="rgba(253,198,143,0.29)"/>
    <path id="Exclusion_16" data-name="Exclusion 16" d="M54.482,10H.007A5.006,5.006,0,0,0,5,5,5.006,5.006,0,0,0,0,0H54.489a5,5,0,0,0-3.437,8.487A4.973,4.973,0,0,0,54.482,10Z" transform="translate(64.516 109.2)" fill="rgba(253,198,143,0.29)"/>
    <path id="Exclusion_17" data-name="Exclusion 17" d="M59.807,10H33.364a5,5,0,0,0-.007-10H59.821a5,5,0,0,0-.014,10ZM30.214,10H.007A5.006,5.006,0,0,0,5,5,5.005,5.005,0,0,0,0,0H30.35a5,5,0,0,0-.136,10Z" transform="translate(59.897 29.8)" fill="rgba(253,198,143,0.29)"/>
    <path id="Exclusion_6" data-name="Exclusion 6" d="M39.8,10H.007A5.006,5.006,0,0,0,5,5,5.006,5.006,0,0,0,0,0H39.807A5,5,0,0,0,39.8,10Z" transform="translate(71.152 10)" fill="rgba(253,198,143,0.29)"/>
  </g>
  <g id="g14" transform="translate(18)" clip-path="url(#clip-path)">
    <g id="g20" transform="translate(95.649 49.328)">
      <path id="path22" d="M-12.556-2.176c.131-.078.251-.194.209-.358-.066-.261-.293-.165-.416-.076a3.622,3.622,0,0,1-.715.239,1.2,1.2,0,0,0-.871.487l-1.395.562L-15.4-.3s1.012-.429,1.509-.642c.867.369,2.491.688,2.966-.029.546-.823-.719-.929-1.635-1.206" transform="translate(15.744 2.703)" fill="#fcbaa2"/>
    </g>
    <g id="g24" transform="translate(95.975 50.172)">
      <path id="path26" d="M-5.217-5.441c-.028.01-.737.243-.737.243l-.588-1.381.664-.18Z" transform="translate(6.541 6.759)" fill="#f2f0f0"/>
    </g>
    <g id="g28" transform="translate(75.665 58.901)">
      <path id="path30" d="M0-2.416C.04-2.352,1.108-.877,1.108-.877l.85-.7L.885-3Z" transform="translate(0 3.001)" fill="#fcbaa2"/>
    </g>
    <g id="g32" transform="translate(75.472 58.607)">
      <path id="path34" d="M-4.631,0c.017.023.417.633.417.633l-1.256.874L-5.807.927Z" transform="translate(5.807)" fill="#f2f0f0"/>
    </g>
    <g id="g36" transform="translate(79.957 96.654)">
      <path id="path38" d="M-1.831,0l-.46,3.477a.65.65,0,0,0,.66.722H6.335l-.01-.026a1.371,1.371,0,0,0-1.2-.852C3.652,3.234.812,2.742.812.255Z" transform="translate(2.296)" fill="#3d3a3a"/>
    </g>
    <g id="g40" transform="translate(69.675 96.654)">
      <path id="path42" d="M-3.785,0l-.938,3.393A.646.646,0,0,0-4.08,4.2H.882a1.322,1.322,0,0,0-.888-.941c-.645-.2-1.481-.859-1.172-3Z" transform="translate(4.746)" fill="#3d3a3a"/>
    </g>
    <g id="g44" transform="translate(72.134 43.11)">
      <path id="path46" d="M-94.809-29.259l-6.753,1.375-3.265-6.034-1.007-.77a1.866,1.866,0,0,0-.277-.212l-.031-.024v0a6.608,6.608,0,0,0-.924-.437l-3.3-.99-2.9.99a3.694,3.694,0,0,0-.844.434h0l-1.173.765-3.6,8,3.357,6.5,1.406-1.05-2.53-5.378,2.283-4.147.844,10.963h9.193l-.807-10.483,2.37,3.95,2.12-.386,6.5-1.479Z" transform="translate(118.882 36.347)" fill="#ffa95c"/>
    </g>
    <g id="g48" transform="translate(79.341 43.11)">
      <path id="path50" d="M-13.337-3.266a1.138,1.138,0,0,1-.054-.185l-2.024-.606-1.255.428a.545.545,0,0,0,.018.506,3.4,3.4,0,0,0,2.429.969.988.988,0,0,0,.9-.367.712.712,0,0,0-.012-.745" transform="translate(16.724 4.057)" fill="#f2f0f0"/>
    </g>
    <g id="g52" transform="translate(77.297 47.718)">
      <path id="path54" d="M-3.878-51.668a.05.05,0,0,1-.05-.044l-.934-12.419a.049.049,0,0,1,.046-.052.046.046,0,0,1,.054.044l.935,12.419a.049.049,0,0,1-.046.052h0" transform="translate(4.862 64.184)" fill="#fff"/>
    </g>
    <g id="g56" transform="translate(79.742 39.924)">
      <path id="path58" d="M-3.771,0a7.088,7.088,0,0,1-.92,3.735c-.444.6,3.224,1.612,2.58.4a3.414,3.414,0,0,1,.74-3.055Z" transform="translate(4.729)" fill="#fcbaa2"/>
    </g>
    <g id="g60" transform="translate(80.649 39.924)">
      <path id="path62" d="M-.2,0a5.6,5.6,0,0,1-.05,1.148A2.272,2.272,0,0,0,1.376,2.872,4.99,4.99,0,0,1,2.2,1.077Z" transform="translate(0.248)" fill="#3d3a3a"/>
    </g>
    <g id="g64" transform="translate(80.09 35.111)">
      <path id="path66" d="M-14.972-16.887a1.594,1.594,0,0,0,.339-.066.179.179,0,0,0,.086-.281c-.24-.307-.573-.825-.8-1.189a9.5,9.5,0,0,1-.093-1.739c.046-1.3-4.206-1.722-3.172,3.989.378,2.089,1.446,2.8,3.846,2.39,1.722-.3.536-.966-.207-3.1" transform="translate(18.774 20.977)" fill="#fcbaa2"/>
    </g>
    <g id="g68" transform="translate(77.621 33.262)">
      <path id="path70" d="M-26.933-1.534c-.033.017-.067.031-.1.047.3-.723-1.08-.378-2.3.062-1.391-.2-2.9-.522-3.9.319-1.644,1.393.879,5.42,1.775,5.492,2.022.162,1-3.656,1-3.656,4.355.95,5.1-3.087,3.517-2.264" transform="translate(33.772 1.905)" fill="#3d3a3a"/>
    </g>
    <g id="g72" transform="translate(79.576 37.994)">
      <path id="path74" d="M-6.1-4.076c.011.585-.068,1.159-.467,1.151-.416-.009-.724-.363-.945-.907-.306-.754-.08-1.193.463-1.229a.889.889,0,0,1,.949.985" transform="translate(7.652 5.064)" fill="#fcbaa2"/>
    </g>
    <g id="g76" transform="translate(70.274 60.186)">
      <path id="path78" d="M-64.646,0h-9.193l-.241,5.1h0l-2.973,14.276-4,17.717,3.29.02L-73.433,19.4l3.5-14.2.809,0-.685,14.2L-71.19,37.1l3.29.02L-66.028,19.4l1.081-14.185h.007Z" transform="translate(81.061)" fill="#e25333"/>
    </g>
    <g id="g80" transform="translate(76.618 58.55)">
      <path id="path82" d="M-.951-5.832c.49-.71.671-1.708,1.594-1.33,1.184.486.874,1.6-.508,2.2-.252.109-.33.4-.463.419-.671.1-1.189-.471-.623-1.29" transform="translate(1.193 7.245)" fill="#fcbaa2"/>
    </g>
    <g id="g84" transform="translate(71.095 60.138)">
      <path id="path86" d="M-.2-153.57H-.21a.049.049,0,0,1-.038-.058l4.163-17.7L6.9-185.727l.168-2.39a.049.049,0,0,1,.046-.045c1.993-.16,2.087-2.538,2.088-2.562a.05.05,0,0,1,.05-.047h0a.049.049,0,0,1,.049.05c0,.025-.1,2.454-2.137,2.651L7-185.714l-2.99,14.4-4.163,17.7a.05.05,0,0,1-.049.038" transform="translate(0.249 190.77)" fill="#ef6f59"/>
    </g>
    <g id="g88" transform="translate(106.314 48.141)">
      <path id="path90" d="M-18.8-8.454l-1.175-.916a1.155,1.155,0,0,0-.616-.67c-.174-.116-.768-.233-.932-.361-.12-.093-.343-.2-.419.062a.244.244,0,0,0,.031.2c-.9-.017-1.875-.126-1.62.716.247.816,1.9.949,2.839.829.415.339,1.261,1.024,1.261,1.024Z" transform="translate(23.571 10.501)" fill="#fcbaa2"/>
    </g>
    <g id="g92" transform="translate(102.661 36.709)">
      <path id="path94" d="M-9.767-4.883c-.246-.031-.357.237-.41.4-.64-.711-1.187-2.169-1.889-1.328-.554.663.279,2.043.92,2.716-.051.522-.15,1.582-.15,1.582l1.118-.01.107-1.452a1.11,1.11,0,0,0,.234-.7,5.015,5.015,0,0,1,.194-.819c.079-.127.152-.355-.124-.39" transform="translate(12.248 6.066)" fill="#fcbaa2"/>
    </g>
    <g id="g96" transform="translate(103.431 39.995)">
      <path id="path98" d="M-.013,0c0,.028,0,.75,0,.75l1.547.1L1.5.181Z" transform="translate(0.016)" fill="#f2f0f0"/>
    </g>
    <g id="g100" transform="translate(110.901 96.654)">
      <path id="path102" d="M-32.16,0l.46,3.477a.65.65,0,0,1-.66.722h-7.966l.01-.026a1.372,1.372,0,0,1,1.2-.852c1.474-.088,4.315-.58,4.315-3.067Z" transform="translate(40.327)" fill="#e27b27"/>
    </g>
    <g id="g104" transform="translate(103.278 40.48)">
      <path id="path106" d="M-66.626-14.946l-2.9-.99-3.3.99h0l-3.009.822-4.923.886-1.006-5.23-1.777-.1,1.218,7.362,7.772-.816-.333,4.335-.142,1.831-.537,6.994h9.193l1.126-14.646c.064-.791-.765-1.2-1.379-1.44" transform="translate(83.544 18.567)" fill="#ffcc5a"/>
    </g>
    <g id="g108" transform="translate(122.64 96.654)">
      <path id="path110" d="M-18.378,0l.938,3.393a.647.647,0,0,1-.643.806h-4.961a1.322,1.322,0,0,1,.888-.941c.645-.2,1.482-.859,1.172-3Z" transform="translate(23.044)" fill="#e27b27"/>
    </g>
    <g id="g112" transform="translate(115.105 43.11)">
      <path id="path114" d="M-.431-3.266a1.166,1.166,0,0,0,.054-.185l2.024-.606L2.9-3.629a.545.545,0,0,1-.018.506,3.4,3.4,0,0,1-2.429.969.988.988,0,0,1-.9-.367.712.712,0,0,1,.012-.745" transform="translate(0.54 4.057)" fill="#f2f0f0"/>
    </g>
    <g id="g116" transform="translate(119.611 47.718)">
      <path id="path118" d="M-.2-51.667h0a.049.049,0,0,1-.046-.052L.686-64.138a.047.047,0,0,1,.054-.044.049.049,0,0,1,.046.052L-.148-51.712a.05.05,0,0,1-.05.044" transform="translate(0.249 64.183)" fill="#fff"/>
    </g>
    <g id="g120" transform="translate(114.843 39.924)">
      <path id="path122" d="M-9.451,0a7.088,7.088,0,0,0,.92,3.735c.444.6-3.224,1.612-2.58.4a3.415,3.415,0,0,0-.74-3.055Z" transform="translate(11.851)" fill="#fcbaa2"/>
    </g>
    <g id="g124" transform="translate(114.844 39.924)">
      <path id="path126" d="M-9.448,0A5.621,5.621,0,0,0-9.4,1.148a2.271,2.271,0,0,1-1.623,1.723,5,5,0,0,0-.826-1.795Z" transform="translate(11.847)" fill="#3d3a3a"/>
    </g>
    <g id="g128" transform="translate(112.957 35.111)">
      <path id="path130" d="M-6.15-3.373a9.495,9.495,0,0,1-.093,1.739c-.227.364-.559.882-.8,1.189a.179.179,0,0,0,.087.281A1.6,1.6,0,0,0-6.617-.1c-.743,2.139-1.929,2.81-.206,3.1,2.4.412,3.468-.3,3.846-2.39C-1.944-5.1-6.2-4.672-6.15-3.373" transform="translate(7.711 4.19)" fill="#fcbaa2"/>
    </g>
    <g id="g132" transform="translate(113.756 32.57)">
      <path id="path134" d="M-25.111-6.32a.881.881,0,0,0-.392.191c-.234-.554-.634-1.2-1.16-.876a.576.576,0,0,0-.151.152c-.361-.5-.933-1.091-1.383-.645a.692.692,0,0,0-.138.266c-.468-.417-1.21-.931-1.557-.375a.946.946,0,0,0-.075.494c-.62-.135-1.506-.217-1.521.423a1.472,1.472,0,0,0,.439.779c-.3.227-.473.506-.249.814a2.051,2.051,0,0,0,2.1.239,2.075,2.075,0,0,0,.953.345c-.059.229-.951,3.8,1.005,3.645.808-.065,3.053-1.961,2.373-3.442a.848.848,0,0,0,.156-.3s.471-1.768-.4-1.708" transform="translate(31.487 7.851)" fill="#e27b27"/>
    </g>
    <g id="g136" transform="translate(116.816 37.994)">
      <path id="path138" d="M0-4.076c-.01.585.068,1.159.467,1.151.416-.009.724-.363.945-.907.306-.754.081-1.193-.463-1.229A.889.889,0,0,0,0-4.076" transform="translate(0.004 5.064)" fill="#fcbaa2"/>
    </g>
    <g id="g140" transform="translate(111.254 60.186)">
      <path id="path142" d="M-29.289-80.09-23.6-62.372l3.29-.02L-25.665-80.11l-1.624-14.276h0l-.241-5.1h-9.193l.294,5.215h.007l1.081,14.185,3.419,17.718,3.29-.02-2.929-17.7-.684-14.2.763,0Z" transform="translate(36.727 99.49)" fill="#3d3a3a"/>
    </g>
    <g id="g144" transform="translate(109.275 49.406)">
      <path id="path146" d="M0-4.485c.023.017.636.432.636.432L1.6-5.22l-.585-.352Z" transform="translate(0 5.572)" fill="#f2f0f0"/>
    </g>
    <g id="g148" transform="translate(111.792 45.779)">
      <path id="path150" d="M-33.434-7.006-36.863.844-41.924-1.29l.142-1.831,3.794,1.66,2.064-4.395L-34.9-8.7Z" transform="translate(41.924 8.703)" fill="#e2af47"/>
    </g>
    <g id="g152" transform="translate(109.598 44.507)">
      <path id="path154" d="M-36.3,0l-1.023,2.846L-39.39,7.24l-5.029-2.2-1.1,1.347,6.965,3.254,4.2-7.385Z" transform="translate(45.52)" fill="#ffcc5a"/>
    </g>
    <g id="g156" transform="translate(117.292 60.138)">
      <path id="path158" d="M-37.433-153.57a.05.05,0,0,1-.048-.034l-5.512-17.7-1.642-14.4-.166-2.357c-2.04-.2-2.136-2.627-2.137-2.651a.049.049,0,0,1,.049-.05h0a.05.05,0,0,1,.05.047c0,.024.1,2.4,2.088,2.562a.049.049,0,0,1,.046.045l.168,2.4,1.64,14.394,5.51,17.695a.048.048,0,0,1-.033.06l-.015,0" transform="translate(46.937 190.77)" fill="#6d6868"/>
    </g>
    <g id="g160" transform="translate(112.46 47.301)">
      <path id="path162" d="M-12.809-18.536a.052.052,0,0,1-.021,0l-3.2-1.4a.048.048,0,0,1-.025-.064.051.051,0,0,1,.066-.024l3.157,1.381L-10.791-23a.05.05,0,0,1,.066-.024.048.048,0,0,1,.025.064l-2.064,4.393a.052.052,0,0,1-.028.025.052.052,0,0,1-.018,0" transform="translate(16.062 23.026)" fill="#fff"/>
    </g>
    <g id="g164" transform="translate(98.199 27.383)">
      <path id="path166" d="M-30.82-28.164l-6.016-1.3a2.224,2.224,0,0,1-1.719-2.789l.333-1.121a2.311,2.311,0,0,1,2.374-1.611l6.1.379a2.248,2.248,0,0,1,2.122,2.657l-.419,2.04a2.315,2.315,0,0,1-2.777,1.743" transform="translate(38.645 34.986)" fill="#ffcc5a"/>
    </g>
    <g id="g168" transform="translate(105.415 33.044)">
      <path id="path170" d="M-8.518-11.6a.1.1,0,0,1-.03,0,3.024,3.024,0,0,1-1.929-1.364,1.819,1.819,0,0,1-.122-1.379.1.1,0,0,1,.128-.058.1.1,0,0,1,.061.123,1.659,1.659,0,0,0,.114,1.231,2.842,2.842,0,0,0,1.808,1.262.1.1,0,0,1,.065.121.1.1,0,0,1-.1.067" transform="translate(10.681 14.416)" fill="#ffa95c"/>
    </g>
    <g id="g172" transform="translate(100.085 28.411)">
      <path id="path174" d="M-27.278-4.536H-27.3l-6.726-.713a.2.2,0,0,1-.177-.213.2.2,0,0,1,.221-.171l6.726.713a.2.2,0,0,1,.177.213.2.2,0,0,1-.2.172" transform="translate(34.205 5.634)" fill="#fff"/>
    </g>
    <g id="g176" transform="translate(99.834 29.429)">
      <path id="path178" d="M-21.19-4.535l-.028,0-5.18-.713a.2.2,0,0,1-.17-.218.2.2,0,0,1,.227-.164l5.179.713a.194.194,0,0,1,.17.218.2.2,0,0,1-.2.166" transform="translate(26.57 5.633)" fill="#fff"/>
    </g>
    <g id="g180" transform="translate(88.945 33.989)">
      <path id="path182" d="M-32.975-25.68l-5.955-.031a2.281,2.281,0,0,1-2.3-2.065l-.115-1.507a2.261,2.261,0,0,1,2.22-2.391L-33-31.9a2.274,2.274,0,0,1,2.4,2.293l-.054,1.763a2.277,2.277,0,0,1-2.326,2.163" transform="translate(41.348 31.9)" fill="#ffa95c"/>
    </g>
    <g id="g184" transform="translate(88.488 38.956)">
      <path id="path186" d="M-.394-11.046a.1.1,0,0,1-.1-.074.1.1,0,0,1,.073-.116,2.859,2.859,0,0,0,1.895-1.145,1.651,1.651,0,0,0,.2-1.218.1.1,0,0,1,.069-.119.1.1,0,0,1,.124.067,1.821,1.821,0,0,1-.219,1.367A3.044,3.044,0,0,1-.37-11.049l-.024,0" transform="translate(0.495 13.721)" fill="#ffcc5a"/>
    </g>
    <g id="g188" transform="translate(90.514 35.283)">
      <path id="path190" d="M-.788-2.538a.2.2,0,0,1-.2-.186.2.2,0,0,1,.193-.2l6.762-.228a.192.192,0,0,1,.207.186.2.2,0,0,1-.193.2l-6.762.228H-.788" transform="translate(0.989 3.152)" fill="#fff"/>
    </g>
    <g id="g192" transform="translate(92.227 36.516)">
      <path id="path194" d="M-.789-2.172a.2.2,0,0,1-.2-.187.2.2,0,0,1,.194-.2L4.1-2.7H4.1a.2.2,0,0,1,.2.187.2.2,0,0,1-.194.2l-4.893.14Z" transform="translate(0.99 2.699)" fill="#fff"/>
    </g>
    <g id="g196" transform="translate(91.529 37.742)">
      <path id="path198" d="M-.788-2.272a.2.2,0,0,1-.2-.187.2.2,0,0,1,.194-.2l5.725-.165a.2.2,0,0,1,.207.187.2.2,0,0,1-.194.2l-5.725.164Z" transform="translate(0.988 2.823)" fill="#fff"/>
    </g>
    <g id="g200" transform="translate(31.879 31.338)">
      <path id="path202" d="M-4.654-123.071a.33.33,0,0,1-.335-.314l-.846-29.166a.328.328,0,0,1,.326-.332.326.326,0,0,1,.345.314l.846,29.166a.329.329,0,0,1-.326.332h-.009" transform="translate(5.835 152.884)" fill="#ccc6c6"/>
    </g>
    <g id="g204" transform="translate(42.507 31.338)">
      <path id="path206" d="M-6.363-123.07a.33.33,0,0,1-.335-.309l-1.281-29.166a.328.328,0,0,1,.321-.337.331.331,0,0,1,.35.309l1.281,29.166a.328.328,0,0,1-.321.336h-.015" transform="translate(7.979 152.882)" fill="#ccc6c6"/>
    </g>
    <g id="g208" transform="translate(38.565 16.529)">
      <path id="path210" d="M-1.323-184.205H-1.34a.329.329,0,0,1-.319-.338L.527-228.519a.339.339,0,0,1,.351-.308.328.328,0,0,1,.319.338L-.988-184.513a.33.33,0,0,1-.335.308" transform="translate(1.659 228.826)" fill="#ccc6c6"/>
    </g>
    <g id="g212" transform="translate(27.491 16.309)">
      <path id="path214" d="M-1.323-185.115h-.019a.328.328,0,0,1-.316-.341l2.622-44.2a.327.327,0,0,1,.354-.3.328.328,0,0,1,.316.341l-2.622,44.2a.33.33,0,0,1-.335.3" transform="translate(1.659 229.957)" fill="#ccc6c6"/>
    </g>
    <g id="g216" transform="translate(29.48 12.923)">
      <path id="path218" d="M-58.55-95.216h-14l-.863-23.065h14Z" transform="translate(73.417 118.281)" fill="#3d3a3a"/>
    </g>
    <g id="g220" transform="translate(29.818 12.923)">
      <path id="path222" d="M-58.55-95.216h-14l-.863-23.065h14Z" transform="translate(73.417 118.281)" fill="#f2f0f0"/>
    </g>
    <g id="g224" transform="translate(31.459 14.662)">
      <path id="path226" d="M-17.189-.5A4.288,4.288,0,0,0-20.279.759a3.977,3.977,0,0,0-1.142,3.047A4.713,4.713,0,0,0-16.7,8.119a4.289,4.289,0,0,0,3.09-1.259A3.977,3.977,0,0,0-12.47,3.813,4.713,4.713,0,0,0-17.189-.5m.487,8.741a4.838,4.838,0,0,1-4.845-4.428A4.094,4.094,0,0,1-20.37.675a4.416,4.416,0,0,1,3.181-1.3,4.838,4.838,0,0,1,4.845,4.428,4.094,4.094,0,0,1-1.176,3.137,4.415,4.415,0,0,1-3.181,1.3" transform="translate(21.554 0.621)" fill="#ccc6c6"/>
    </g>
    <g id="g228" transform="translate(31.763 16.475)">
      <path id="path230" d="M-16.952-11.058a.065.065,0,0,1-.025,0l-4.242-1.789a.06.06,0,0,1-.032-.08.064.064,0,0,1,.083-.031l4.208,1.775,3.507-2.536a.065.065,0,0,1,.088.012.059.059,0,0,1-.013.085l-3.536,2.558a.066.066,0,0,1-.038.012" transform="translate(21.257 13.736)" fill="#ffcc5a"/>
    </g>
    <g id="g232" transform="translate(36.004 19.032)">
      <path id="path234" d="M-12.869-13.95a.064.064,0,0,1-.046-.019l-3.2-3.258a.059.059,0,0,1-.006-.077.065.065,0,0,1,.078-.02l4.2,1.873a.06.06,0,0,1,.031.081.064.064,0,0,1-.084.03l-3.907-1.74,2.979,3.029a.059.059,0,0,1,0,.086.064.064,0,0,1-.043.016" transform="translate(16.137 17.329)" fill="#ccc6c6"/>
    </g>
    <g id="g236" transform="translate(32.338 30.241)">
      <path id="path238" d="M-6.213-.5a1.468,1.468,0,0,0-1.058.431A1.36,1.36,0,0,0-7.663.975,1.619,1.619,0,0,0-6.042,2.457a1.469,1.469,0,0,0,1.059-.431A1.364,1.364,0,0,0-4.592.982,1.619,1.619,0,0,0-6.213-.5m.171,3.078A1.745,1.745,0,0,1-7.788.982,1.48,1.48,0,0,1-7.363-.153a1.6,1.6,0,0,1,1.15-.469A1.744,1.744,0,0,1-4.466.975a1.48,1.48,0,0,1-.426,1.134,1.6,1.6,0,0,1-1.15.469" transform="translate(7.791 0.621)" fill="#ccc6c6"/>
    </g>
    <g id="g240" transform="translate(35.612 24.842)">
      <path id="path242" d="M-.644-3.031H3.075l-.034-.613H-.678Zm3.785.121H-.7a.062.062,0,0,1-.063-.057L-.807-3.7A.059.059,0,0,1-.79-3.746a.063.063,0,0,1,.046-.019H3.1a.062.062,0,0,1,.063.057l.041.734a.059.059,0,0,1-.017.045.063.063,0,0,1-.046.019" transform="translate(0.807 3.765)" fill="#ccc6c6"/>
    </g>
    <g id="g244" transform="translate(35.694 26.311)">
      <path id="path246" d="M-.644-3.031h2.7l-.034-.613h-2.7Zm2.762.121H-.7a.062.062,0,0,1-.063-.057L-.807-3.7A.059.059,0,0,1-.79-3.746a.063.063,0,0,1,.046-.019H2.077a.062.062,0,0,1,.063.057l.041.734a.059.059,0,0,1-.017.045.063.063,0,0,1-.046.019" transform="translate(0.807 3.765)" fill="#ffcc5a"/>
    </g>
    <g id="g248" transform="translate(35.776 27.779)">
      <path id="path250" d="M-.643-3.031H4.016l-.034-.613H-.677Zm4.725.121H-.7a.062.062,0,0,1-.063-.057L-.806-3.7a.058.058,0,0,1,.017-.045.063.063,0,0,1,.046-.019H4.041a.062.062,0,0,1,.063.057l.041.734a.058.058,0,0,1-.017.045.065.065,0,0,1-.046.019" transform="translate(0.806 3.765)" fill="#ccc6c6"/>
    </g>
    <g id="g252" transform="translate(37.868 29.873)">
      <path id="path254" d="M-22.178-15.656h-5.364a.062.062,0,0,1-.063-.057l-.2-3.671a.061.061,0,0,1,.059-.064.06.06,0,0,1,.066.057l.2,3.614h5.3a.062.062,0,0,1,.063.061.062.062,0,0,1-.063.061" transform="translate(27.81 19.448)" fill="#ccc6c6"/>
    </g>
    <g id="g256" transform="translate(38.389 30.24)">
      <path id="path258" d="M-.248-11.713a.064.064,0,0,1-.024,0A.06.06,0,0,1-.307-11.8l.933-2.166A.063.063,0,0,1,.678-14a.063.063,0,0,1,.058.026L1.7-12.613l.39-.713a.063.063,0,0,1,.051-.032.064.064,0,0,1,.055.025l.984,1.3,1.376-2.485a.064.064,0,0,1,.085-.025.059.059,0,0,1,.026.082l-1.423,2.57a.063.063,0,0,1-.051.032.06.06,0,0,1-.055-.025l-.984-1.3-.392.716a.062.062,0,0,1-.052.032.061.061,0,0,1-.056-.026L.7-13.813-.19-11.751a.064.064,0,0,1-.058.037" transform="translate(0.311 14.551)" fill="#ffcc5a"/>
    </g>
    <g id="g260" transform="translate(18.301 27.76)">
      <path id="path262" d="M0-1.673C.028-1.629.767-.607.767-.607l.589-.485L.613-2.079Z" transform="translate(0 2.079)" fill="#fcbaa2"/>
    </g>
    <g id="g264" transform="translate(18.117 27.491)">
      <path id="path266" d="M-2.993,0c.013.018.325.493.325.493l-.822.563L-3.753.605Z" transform="translate(3.753)" fill="#ffcc5a"/>
    </g>
    <g id="g268" transform="translate(30.931 25.526)">
      <path id="path270" d="M0-2.706c.048.023,1.236.516,1.236.516L1.47-2.9.3-3.361Z" transform="translate(0 3.361)" fill="#fcbaa2"/>
    </g>
    <g id="g272" transform="translate(30.774 25.329)">
      <path id="path274" d="M-.944,0c.022.007.565.211.565.211l-.378.9L-1.184.921Z" transform="translate(1.184)" fill="#ffcc5a"/>
    </g>
    <g id="g276" transform="translate(15.875 16.673)">
      <path id="path278" d="M-44.321-27.467l-1.823-5.412L-47-33.256c-.139-.07-.292-.135-.457-.2l-2.206-.662-1.94.662a2.184,2.184,0,0,0-.654.365l-.912.6L-55.575-26.7l2.208,4.247,1.013-.673L-54.186-26.9l1.976-4.138,1.2,5.521-.761,2.818h6.147l-.539-2.818-.11-3.565.811,2.394,4.852,2.336.492-1.086Z" transform="translate(55.575 34.12)" fill="#e25333"/>
    </g>
    <g id="g280" transform="translate(16.501 33.605)">
      <path id="path282" d="M-15.287-1.315-17.008,9.8l-2.161,13.8,1.18.015,3.079-13.8L-12.5-1.633Z" transform="translate(19.169 1.633)" fill="#fcbaa2"/>
    </g>
    <g id="g284" transform="translate(21.747 33.605)">
      <path id="path286" d="M-5.8-1.315-5.493,9.8-7.273,23.6l1.224.015,2.655-13.8.355-11.452Z" transform="translate(7.273 1.633)" fill="#fcbaa2"/>
    </g>
    <g id="g288" transform="translate(19.157 33.605)">
      <path id="path290" d="M-15.805,0l-.064.3-.148.7-1.414,6.721-2.388.511L-18.594.318Z" transform="translate(19.819)" fill="#3d3a3a"/>
    </g>
    <g id="g292" transform="translate(23.219 33.605)">
      <path id="path294" d="M-10.877,0l-.033,1.063-.18,5.816-2.352.5L-13.62,1l-.019-.684L-13.472.3l2.5-.288Z" transform="translate(13.639)" fill="#3d3a3a"/>
    </g>
    <g id="g296" transform="translate(17.291 9.466)">
      <path id="path298" d="M-10.511-3.63c-.2-.968-2.779-1.592-2.665.647S-11.7.456-12.57,1.536c0,0,3.17-.753,2.49-3.023s-.432-2.143-.432-2.143" transform="translate(13.181 4.51)" fill="#3d3a3a"/>
    </g>
    <g id="g300" transform="translate(18.663 9.695)">
      <path id="path302" d="M-1.329-1.167c-.5.535-.636,1.764.96,1.935L.21-1.079a1.092,1.092,0,0,0-1.538-.089" transform="translate(1.666 1.45)" fill="#ffa95c"/>
    </g>
    <g id="g304" transform="translate(18.853 9.546)">
      <path id="path306" d="M-2.931-2.576c-1.1,1.179-1.4,3.892,2.117,4.269L.463-2.38a2.408,2.408,0,0,0-3.393-.2" transform="translate(3.675 3.2)" fill="#3d3a3a"/>
    </g>
    <g id="g308" transform="translate(21.468 58.39)">
      <path id="path310" d="M-1.009,0l-.253,2.019A.37.37,0,0,0-.9,2.438H3.06l-.005-.015a.76.76,0,0,0-.661-.494A2.025,2.025,0,0,1,.448.148Z" transform="translate(1.266)" fill="#e25333"/>
    </g>
    <g id="g312" transform="translate(15.935 58.39)">
      <path id="path314" d="M-2.086,0-2.6,1.97a.371.371,0,0,0,.354.468H.8a.751.751,0,0,0-.49-.546A1.427,1.427,0,0,1-.649.148Z" transform="translate(2.615)" fill="#e25333"/>
    </g>
    <g id="g316" transform="translate(19.689 18.444)">
      <path id="path318" d="M-3.45-38.953h-.008A.04.04,0,0,1-3.491-39l.525-2.53-1.359-6.809a.04.04,0,0,1,.033-.047.041.041,0,0,1,.049.032l1.361,6.817a.049.049,0,0,1,0,.015l-.527,2.538a.041.041,0,0,1-.041.032" transform="translate(4.326 48.389)" fill="#fff"/>
    </g>
    <g id="g320" transform="translate(21.192 13.996)">
      <path id="path322" d="M-1.6,0a6.6,6.6,0,0,1-.389,2.937C-2.239,3.421.1,4.073-.365,3.15a3.16,3.16,0,0,1,.31-2.4Z" transform="translate(2.011)" fill="#fcbaa2"/>
    </g>
    <g id="g324" transform="translate(20.411 16.809)">
      <path id="path326" d="M-3.369,0A2.653,2.653,0,0,0-2.083.8a9.347,9.347,0,0,0-1,1.211S-4.174,1.148-4.224.3Z" transform="translate(4.224)" fill="#ffcc5a"/>
    </g>
    <g id="g328" transform="translate(22.552 16.92)">
      <path id="path330" d="M-.846,0a.8.8,0,0,1-.215.69A5.107,5.107,0,0,1,.044,1.762S.453.692-.319.154Z" transform="translate(1.061)" fill="#ffcc5a"/>
    </g>
    <g id="g332" transform="translate(22.576 17.994)">
      <path id="path334" d="M-1.276-6.172a.041.041,0,0,1-.042-.038,5.7,5.7,0,0,0-.28-1.4.04.04,0,0,1,.026-.051.042.042,0,0,1,.054.025,5.776,5.776,0,0,1,.284,1.425.041.041,0,0,1-.039.043Z" transform="translate(1.6 7.667)" fill="#fff"/>
    </g>
    <g id="g336" transform="translate(21.599 13.996)">
      <path id="path338" d="M0,0A5.459,5.459,0,0,1,.026.894a1.663,1.663,0,0,0,1.1,1.28A4.38,4.38,0,0,1,1.548.749Z" fill="#3d3a3a"/>
    </g>
    <g id="g340" transform="translate(20.723 10.413)">
      <path id="path342" d="M-14.291-13.045c-.1-.156-.232-.405-.336-.608-.061-.548-.154-1.179-.29-1.909-.165-.882-2.391-1.265-2.548,1.616h-.015c-.4.026-.563.35-.337.909a1.188,1.188,0,0,0,.432.593c.131.924.7,1.789,2.334,1.826.316.007.59-.6.5-2.217a.669.669,0,0,0,.224-.043.116.116,0,0,0,.041-.166" transform="translate(17.92 16.205)" fill="#fcbaa2"/>
    </g>
    <g id="g344" transform="translate(20.439 9.893)">
      <path id="path346" d="M-14-3.3c.61.846-1.672,2.686-3.555,2.319,0,0,1.605-5.024,3.555-2.319" transform="translate(17.557 4.103)" fill="#3d3a3a"/>
    </g>
    <g id="g348" transform="translate(18.609 28.09)">
      <path id="path350" d="M-31.158-48.662l-7.912,1.308L-38-60.449h6.147Z" transform="translate(39.069 60.449)" fill="#ffcc5a"/>
    </g>
    <g id="g352" transform="translate(19.415 28.802)">
      <path id="path354" d="M-.165-48.67h0a.041.041,0,0,1-.039-.043L.669-60.421a.039.039,0,0,1,.045-.037.041.041,0,0,1,.039.043L-.124-48.707a.041.041,0,0,1-.042.037" transform="translate(0.207 60.459)" fill="#fff2dc"/>
    </g>
    <g id="g356" transform="translate(18.961 27.386)">
      <path id="path358" d="M-.659-4.582c.339-.492.076-.732.686-1.053s.818.75.066,1.656c-.12.144-.229.276-.32.29-.464.072-.823-.326-.431-.893" transform="translate(0.826 5.692)" fill="#fcbaa2"/>
    </g>
    <g id="g360" transform="translate(31.559 25.863)">
      <path id="path362" d="M-11.291-4.647a9.277,9.277,0,0,1-.981-.545,1.423,1.423,0,0,0-.186-.131.2.2,0,0,0,.03-.051c.073-.2-.118-.229-.237-.221a1.708,1.708,0,0,1-.429-.1c-.662-.312-1.234.365-1.018.7a1.309,1.309,0,0,0,1.713.353,1.02,1.02,0,0,0,.172-.154c.191.085.438.166.68.27.357.153.437-.061.256-.127" transform="translate(14.157 5.773)" fill="#fcbaa2"/>
    </g>
    <g id="g364" transform="translate(43.987 23.289)">
      <path id="path366" d="M-1.232-5.611c.062-.018,1.524-.552,1.524-.552l-.417-.807-1.42.548Z" transform="translate(1.545 6.971)" fill="#fcbaa2"/>
    </g>
    <g id="g368" transform="translate(44.489 23.26)">
      <path id="path370" d="M-1.612-5.9c.023-.009.588-.272.588-.272l-.491-1.156-.506.268Z" transform="translate(2.021 7.324)" fill="#f2f0f0"/>
    </g>
    <g id="g372" transform="translate(59.511 25.707)">
      <path id="path374" d="M-6.454-2.023c-.033.053-.927,1.289-.927,1.289l-.711-.586.9-1.193Z" transform="translate(8.093 2.513)" fill="#fcbaa2"/>
    </g>
    <g id="g376" transform="translate(59.978 25.461)">
      <path id="path378" d="M-1.376,0c-.014.019-.349.53-.349.53l1.051.732L-.392.776Z" transform="translate(1.725)" fill="#f2f0f0"/>
    </g>
    <g id="g380" transform="translate(52.631 57.312)">
      <path id="path382" d="M-26.922,0l.385,2.911a.544.544,0,0,1-.553.6h-6.668l.009-.022a1.148,1.148,0,0,1,1-.713c1.234-.074,3.612-.485,3.612-2.568Z" transform="translate(33.759)" fill="#5b4a3e"/>
    </g>
    <g id="g384" transform="translate(58.531 57.312)">
      <path id="path386" d="M-15.384,0l.785,2.841a.541.541,0,0,1-.538.675h-4.153a1.105,1.105,0,0,1,.744-.788c.54-.166,1.24-.719.981-2.515Z" transform="translate(19.291)" fill="#776050"/>
    </g>
    <g id="g388" transform="translate(44.762 12.487)">
      <path id="path390" d="M-64.323-7.564-65.3-8.2h0a3.074,3.074,0,0,0-.707-.363L-68.441-9.4l-2.762.829a5.512,5.512,0,0,0-.774.366v0l-.026.02a1.568,1.568,0,0,0-.232.177l-.843.645L-76.248-1.5l-4.407,2.921.573,1.325L-74.8-.57l1.984-3.306L-73.5,4.9h7.7l.707-9.177,1.912,3.471L-65.3,3.7l1.178.88,2.81-5.444Z" transform="translate(80.656 9.396)" fill="#3d3a3a"/>
    </g>
    <g id="g392" transform="translate(55.146 12.488)">
      <path id="path394" d="M-.361-2.734a.969.969,0,0,0,.045-.155L1.379-3.4l1.051.359a.456.456,0,0,1-.015.423A2.844,2.844,0,0,1,.381-1.8.827.827,0,0,1-.371-2.11a.6.6,0,0,1,.01-.624" transform="translate(0.452 3.396)" fill="#f2f0f0"/>
    </g>
    <g id="g396" transform="translate(58.918 16.346)">
      <path id="path398" d="M-.165-43.253h0A.041.041,0,0,1-.207-43.3l.782-10.4a.039.039,0,0,1,.045-.037.041.041,0,0,1,.039.043l-.783,10.4a.041.041,0,0,1-.042.037" transform="translate(0.207 53.731)" fill="#fff"/>
    </g>
    <g id="g400" transform="translate(54.926 9.82)">
      <path id="path402" d="M-7.911,0a5.93,5.93,0,0,0,.771,3.127c.371.5-2.7,1.35-2.16.331A2.86,2.86,0,0,0-9.92.9Z" transform="translate(9.92)" fill="#fcbaa2"/>
    </g>
    <g id="g404" transform="translate(54.927 9.82)">
      <path id="path406" d="M-7.908,0a4.735,4.735,0,0,0,.042.961A1.9,1.9,0,0,1-9.225,2.4,4.182,4.182,0,0,0-9.916.9Z" transform="translate(9.916)" fill="#3d3a3a"/>
    </g>
    <g id="g408" transform="translate(53.347 5.791)">
      <path id="path410" d="M-5.147-2.824a7.943,7.943,0,0,1-.078,1.455c-.19.3-.468.738-.67,1a.15.15,0,0,0,.073.235,1.333,1.333,0,0,0,.284.055c-.622,1.791-1.615,2.352-.173,2.6,2.009.345,2.9-.252,3.22-2,.865-4.781-2.695-4.426-2.656-3.339" transform="translate(6.455 3.508)" fill="#fcbaa2"/>
    </g>
    <g id="g412" transform="translate(52.842 4.413)">
      <path id="path414" d="M-24.478-2.061c-1.376-1.166-5.444.076-5.444.076-.759-.4-.818.408-.041,1.012a5.906,5.906,0,0,1-.731-.051,3.858,3.858,0,0,0,1.4.591c-.5.077-.9.11-.9.11a8.336,8.336,0,0,0,3.323.066c-.161.765-.49,2.9.9,2.793.75-.06,2.862-3.432,1.486-4.6" transform="translate(30.693 2.56)" fill="#776050"/>
    </g>
    <g id="g416" transform="translate(56.578 8.205)">
      <path id="path418" d="M0-3.412c-.009.49.057.971.391.964s.606-.3.791-.759c.256-.632.067-1-.387-1.029A.744.744,0,0,0,0-3.412" transform="translate(0.004 4.238)" fill="#fcbaa2"/>
    </g>
    <g id="g420" transform="translate(51.922 26.783)">
      <path id="path422" d="M-23.928-67.047l1.989,14.832,2.754-.016-1.709-14.832L-22.1-79.014h0l-.2-4.273H-30l.246,4.366h.009l1.359,11.875,3.41,14.832,2.754-.016-3-14.816L-26.24-78.931l.618,0Z" transform="translate(30.004 83.288)" fill="#ffa95c"/>
    </g>
    <g id="g424" transform="translate(58.203 25.414)">
      <path id="path426" d="M-7.669-4.882C-8.08-5.476-8.231-6.312-9-6c-.991.407-.731,1.342.425,1.843.211.091.276.333.388.35.561.087,1-.394.522-1.08" transform="translate(9.617 6.065)" fill="#fcbaa2"/>
    </g>
    <g id="g428" transform="translate(42.596 23.762)">
      <path id="path430" d="M-3.943-.236a3.038,3.038,0,0,1-.63.062c-.126-.025-.333-.021-.288.2.029.143.171.188.3.2C-5,.665-5.176.8-4.467,1.237c.794.486,1.488-.476,1.635-.923.117-.355-.508-.759-1.111-.55" transform="translate(4.944 0.293)" fill="#fcbaa2"/>
    </g>
    <g id="g432" transform="translate(36.513 21.272)">
      <path id="path434" d="M-.25-.018l2.063.99,2.056,1L5.92,2.983l1.025.506.513.253.256.127.128.063.064.032c.022.009.041.024.033.088a.244.244,0,0,1-.086.158c-.05.042-.074.036-.094.024L7.7,4.2l-.127-.065-.254-.13-.508-.261L5.789,3.223,3.758,2.177,1.73,1.123-.291.057A.041.041,0,0,1-.308,0,.045.045,0,0,1-.25-.018" transform="translate(0.314 0.023)" fill="#3d3a3a"/>
    </g>
    <g id="g436" transform="translate(42.574 24.15)">
      <path id="path438" d="M-1.118-.727c-.3.4-.516.434.176,1S.081.134.1-.22s-.852-.993-1.221-.507" transform="translate(1.401 0.903)" fill="#fcbaa2"/>
    </g>
    <g id="g440" transform="translate(56.976 26.743)">
      <path id="path442" d="M-19.827-128.56a.042.042,0,0,1-.042-.036l-1.842-14.82-1.223-12.052-.139-1.973c-1.708-.165-1.788-2.2-1.789-2.22a.041.041,0,0,1,.041-.041h0a.041.041,0,0,1,.042.039c0,.02.08,2.011,1.748,2.144a.041.041,0,0,1,.038.038l.141,2.006,1.222,12.05,1.842,14.819a.041.041,0,0,1-.036.045h-.005" transform="translate(24.861 159.702)" fill="#ffe0c7"/>
    </g>
    <g id="g444" transform="translate(39.871 94.547)">
      <path id="path446" d="M-3.38-72.968h-.858L.481-90.644H1.665Z" transform="translate(4.239 90.644)" fill="#c6c1c1"/>
    </g>
    <g id="g448" transform="translate(55.985 94.547)">
      <path id="path450" d="M-23.249-72.968h-.859l-5.045-17.676h1.184Z" transform="translate(29.152 90.644)" fill="#c6c1c1"/>
    </g>
    <g id="g452" transform="translate(50.288 94.547)">
      <path id="path454" d="M-4.022-72.968H-4.88l-.163-17.676h1.184Z" transform="translate(5.043 90.644)" fill="#c6c1c1"/>
    </g>
    <g id="g456" transform="translate(43.201 81.097)">
      <path id="path458" d="M-67.413,0h-7.953a2.545,2.545,0,0,0-1.978.932c-1.208,1.489-3.083,4.522-1.206,7.328a3.847,3.847,0,0,1-.162,4.593H-83.64a.877.877,0,0,0-.89.857h14.193c2.426,0,3.569-3.195,2.06-5.45C-70.2,5.394-68.2,2.29-66.994.838A.514.514,0,0,0-67.413,0" transform="translate(84.53)" fill="#3d3a3a"/>
    </g>
    <g id="g460" transform="translate(56.865 81.896)">
      <path id="path462" d="M-.161-53.462A.04.04,0,0,1-.2-53.5a.04.04,0,0,1,.041-.039A2.545,2.545,0,0,0,2.08-54.9a3.925,3.925,0,0,0-.215-4.025c-1.905-2.847-.012-5.9,1.286-7.468a.042.042,0,0,1,.057-.006.038.038,0,0,1,.006.055C1.93-64.8.056-61.778,1.934-58.972a4,4,0,0,1,.218,4.105A2.625,2.625,0,0,1-.161-53.462" transform="translate(0.201 66.412)" fill="#fff"/>
    </g>
    <g id="g464" transform="translate(40.309 87.024)">
      <path id="path466" d="M-2.214,0c-.022.01-.562.278-.562.278l.507,1.109.483-.272Z" transform="translate(2.776)" fill="#f2f0f0"/>
    </g>
    <g id="g468" transform="translate(37.205 87.151)">
      <path id="path470" d="M-15.67-3.62l-.37-.76L-16.928-4l-.038-.014c-.682-.22-1.415-.771-2.053-.282-1.47,1.127-.122,1.651,1.547,1.25a.7.7,0,0,1,.358.037l.012.035L-17.055-3a.15.15,0,0,0,.1-.005,1.338,1.338,0,0,0,.192-.123c.411-.183,1.059-.472,1.1-.492" transform="translate(19.649 4.497)" fill="#fcbaa2"/>
    </g>
    <g id="g472" transform="translate(31.622 108.813)">
      <path id="path474" d="M-26.115,0l.373,2.823a.528.528,0,0,1-.536.586h-6.468l.008-.021a1.114,1.114,0,0,1,.973-.691c1.2-.071,3.5-.471,3.5-2.491Z" transform="translate(32.747)" fill="#3d3a3a"/>
    </g>
    <g id="g476" transform="translate(40.635 75.879)">
      <path id="path478" d="M-54.95-3.318l-2.356-.8-2.679.8a5.384,5.384,0,0,0-.751.355v0l-.025.02a1.521,1.521,0,0,0-.225.172l-.818.625-2.919,6.327L-68.9,7.024l.538,1.292,5.124-3.229,1.669-3.443-.639,8.728h7.465l.916-12.52c.052-.643-.623-.978-1.121-1.169" transform="translate(68.902 4.121)" fill="#e25333"/>
    </g>
    <g id="g480" transform="translate(50.455 75.879)">
      <path id="path482" d="M-.35-2.653A.95.95,0,0,0-.306-2.8L1.338-3.3l1.018.348a.443.443,0,0,1-.014.411A2.761,2.761,0,0,1,.37-1.751a.8.8,0,0,1-.729-.3.578.578,0,0,1,.01-.6" transform="translate(0.438 3.296)" fill="#f2f0f0"/>
    </g>
    <g id="g484" transform="translate(54.091 79.621)">
      <path id="path486" d="M-.16-43.219h0A.04.04,0,0,1-.2-43.261L.581-53.652a.039.039,0,0,1,.043-.036.04.04,0,0,1,.038.042L-.119-43.255a.04.04,0,0,1-.04.036" transform="translate(0.201 53.688)" fill="#fff"/>
    </g>
    <g id="g488" transform="translate(50.242 73.291)">
      <path id="path490" d="M-7.674,0a5.751,5.751,0,0,0,.748,3.033c.36.489-2.618,1.309-2.1.321a2.773,2.773,0,0,0-.6-2.481Z" transform="translate(9.623)" fill="#fcbaa2"/>
    </g>
    <g id="g492" transform="translate(50.243 73.292)">
      <path id="path494" d="M-7.672,0a4.569,4.569,0,0,0,.041.933,1.844,1.844,0,0,1-1.318,1.4A4.055,4.055,0,0,0-9.62.874Z" transform="translate(9.62)" fill="#3d3a3a"/>
    </g>
    <g id="g496" transform="translate(48.71 69.383)">
      <path id="path498" d="M-4.993-2.739a7.723,7.723,0,0,1-.075,1.412c-.184.3-.454.716-.65.965a.145.145,0,0,0,.07.228,1.324,1.324,0,0,0,.275.053c-.6,1.737-1.566,2.281-.167,2.521C-3.592,2.775-2.724,2.2-2.417.5c.839-4.638-2.614-4.293-2.576-3.239" transform="translate(6.261 3.403)" fill="#fcbaa2"/>
    </g>
    <g id="g500" transform="translate(48.72 67.501)">
      <path id="path502" d="M-22.45-7.315a2,2,0,0,0-.306-.317c.1-.56-.363-1.019-1.429-.742-1.848.48-2.23-.713-2.23-.713-1.761.217-2.2,1.674-1.233,2.309a4.557,4.557,0,0,0,2.659.514c-.343,1.024-.556,2.785.926,2.666.728-.058,2.75-2.25,1.613-3.717" transform="translate(28.15 9.087)" fill="#ffcc5a"/>
    </g>
    <g id="g504" transform="translate(51.844 71.724)">
      <path id="path506" d="M0-3.309c-.008.475.055.941.379.935s.588-.295.767-.737c.248-.613.065-.969-.376-1a.721.721,0,0,0-.771.8" transform="translate(0.003 4.111)" fill="#fcbaa2"/>
    </g>
    <g id="g508" transform="translate(47.328 90.372)">
      <path id="path510" d="M-.94-14.9l7.425-.019-.2-3.589H-1.179Z" transform="translate(1.179 18.504)" fill="#e27b27"/>
    </g>
    <g id="g512" transform="translate(34.201 90.735)">
      <path id="path514" d="M-61.409-12.17l-2.442-2.948L-77-11.985-75.38,3.37l2.672-.016-.5-12.936Z" transform="translate(77.002 15.119)" fill="#ce6d25"/>
    </g>
    <g id="g516" transform="translate(44.973 108.813)">
      <path id="path518" d="M-14.923,0l.762,2.755a.525.525,0,0,1-.522.654h-4.029a1.073,1.073,0,0,1,.721-.764c.524-.16,1.2-.7.952-2.439Z" transform="translate(18.712)" fill="#3d3a3a"/>
    </g>
    <g id="g520" transform="translate(40.964 90.734)">
      <path id="path522" d="M-55.242-13.32l-.377-3.227-13.65,3.135,5.361,15.355,2.877-.016-3.75-13.1Z" transform="translate(69.269 16.547)" fill="#e27b27"/>
    </g>
    <g id="g524" transform="translate(44.296 90.332)">
      <path id="path526" d="M-15.533-75.909a.041.041,0,0,1-.039-.029l-3.9-13.784a.039.039,0,0,1,0-.03.042.042,0,0,1,.026-.018l9.694-2.172-.055-.788a1.574,1.574,0,0,1-1.631-1.529A.041.041,0,0,1-11.4-94.3a.04.04,0,0,1,.039.041c0,.054-.024,1.322,1.591,1.451a.039.039,0,0,1,.037.036l.06.855a.039.039,0,0,1-.031.041l-9.687,2.17,3.893,13.745a.039.039,0,0,1-.029.048h-.011" transform="translate(19.477 94.297)" fill="#f49751"/>
    </g>
    <g id="g528" transform="translate(52.154 87.024)">
      <path id="path530" d="M-2.214,0c-.022.01-.562.278-.562.278l.507,1.109.483-.272Z" transform="translate(2.776)" fill="#f2f0f0"/>
    </g>
    <g id="g532" transform="translate(52.481 77.034)">
      <path id="path534" d="M-14.747-2.566l-.952-.622-.81,1.965,1.784,5.459L-18.492,6.8l.538,1.292,5.124-3.229Z" transform="translate(18.492 3.188)" fill="#e25333"/>
    </g>
    <g id="g536" transform="translate(49.051 87.151)">
      <path id="path538" d="M-15.671-3.62l-.37-.76L-16.93-4l-.038-.014c-.681-.22-1.415-.771-2.053-.282-1.47,1.127-.122,1.651,1.547,1.25a.7.7,0,0,1,.358.037l.012.035L-17.056-3a.149.149,0,0,0,.1-.005,1.339,1.339,0,0,0,.192-.123c.411-.183,1.059-.472,1.1-.492" transform="translate(19.65 4.497)" fill="#fcbaa2"/>
    </g>
    <path id="path540" d="M230.538-212.081h12.7v-1.28h-12.7Z" transform="translate(-183.854 301.755)" fill="#e2af47"/>
    <path id="path542" d="M103.339-212.081h-32.3v-1.28h32.3Z" transform="translate(-56.655 301.755)" fill="#ffcc5a"/>
    <path id="path544" d="M79.078-206.8h1.329v22.548H79.078Z" transform="translate(-63.065 296.471)" fill="#ffcc5a"/>
    <path id="path546" d="M215.938-206.8h1.329v22.548h-1.329Z" transform="translate(-172.211 296.471)" fill="#ffcc5a"/>
    <g id="g548" transform="translate(16.013 89.675)">
      <path id="path550" d="M0-2.368v-.574H1.329V-1.9Z" transform="translate(0 2.941)" fill="#e2af47"/>
    </g>
    <g id="g552" transform="translate(43.728 89.675)">
      <path id="path554" d="M0-2.368v-.574H1.329V-1.9Z" transform="translate(0 2.941)" fill="#e2af47"/>
    </g>
    <path id="path556" d="M141.808-206.8h1.329v22.548h-1.329Z" transform="translate(-113.092 296.471)" fill="#ffcc5a"/>
    <path id="path558" d="M278.669-206.8H280v22.548h-1.329Z" transform="translate(-222.238 296.471)" fill="#ffcc5a"/>
    <g id="g560" transform="translate(28.716 89.675)">
      <path id="path562" d="M0-2.368v-.574H1.329V-1.9Z" transform="translate(0 2.941)" fill="#e2af47"/>
    </g>
    <g id="g564" transform="translate(56.431 89.675)">
      <path id="path566" d="M0-2.368v-.574H1.329V-1.9Z" transform="translate(0 2.941)" fill="#e2af47"/>
    </g>
    <g id="g568" transform="translate(34.016 74.47)">
      <path id="path570" d="M-9.242-9.42l-2.22-.129-.126-2.153,2.22.129Z" transform="translate(11.589 11.701)" fill="#ffcc5a"/>
    </g>
    <g id="g572" transform="translate(31.098 74.028)">
      <path id="path574" d="M-9.788-8.842h-2.224l-.261-2.142h2.225Z" transform="translate(12.273 10.984)" fill="#ffcc5a"/>
    </g>
    <g id="g576" transform="translate(26.937 75.39)">
      <path id="path578" d="M-71.327-40.948h-16.32a.921.921,0,0,1-.9-.79l-.882-8.338a.713.713,0,0,1,.737-.79h16.32a.921.921,0,0,1,.9.79l.882,8.338a.713.713,0,0,1-.737.79" transform="translate(89.438 50.867)" fill="#aaa3a3"/>
    </g>
    <g id="g580" transform="translate(26.658 75.39)">
      <path id="path582" d="M-71.327-40.948h-16.32a.921.921,0,0,1-.9-.79l-.882-8.338a.713.713,0,0,1,.737-.79h16.32a.921.921,0,0,1,.9.79l.882,8.338a.713.713,0,0,1-.737.79" transform="translate(89.438 50.867)" fill="#f2f0f0"/>
    </g>
    <path id="path584" d="M173.7-249.659h-3.461v-4.96H173.7Z" transform="translate(-135.764 334.969)" fill="#aaa3a3"/>
    <g id="g586" transform="translate(32.856 80.349)">
      <path id="path588" d="M-11.889-21.31a.9.9,0,0,1-.718.683.6.6,0,0,1-.717-.729l.451-2.232a.9.9,0,0,1,.719-.683.847.847,0,0,1,.124-.011.592.592,0,0,1,.594.738Zm-1.334-5.162-1.685,8.045h3.369l1.686-8.045Z" transform="translate(14.908 26.472)" fill="#aaa3a3"/>
    </g>
    <g id="g590" transform="translate(30.097 80.349)">
      <path id="path592" d="M-16.546-21.122l.451-2.232a.9.9,0,0,1,.719-.683.846.846,0,0,1,.124-.011.591.591,0,0,1,.594.738l-.453,2.233a.9.9,0,0,1-.718.683.6.6,0,0,1-.718-.729M-5.719-18.77H-14.64l1.565-7.469h-3.37l-1.564,7.469h-2.139a.59.59,0,0,0-.6.577H-5.12a.59.59,0,0,0-.6-.577" transform="translate(20.748 26.239)" fill="#f2f0f0"/>
    </g>
    <g id="g594" transform="translate(42.371 88.13)">
      <path id="path596" d="M-.266,0H2.818a.066.066,0,0,1,.068.065V.2a.067.067,0,0,1-.068.065H-.266A.066.066,0,0,1-.333.2V.065A.066.066,0,0,1-.266,0" transform="translate(0.333)" fill="#5b5656"/>
    </g>
    <g id="g598" transform="translate(44.115 88.13)">
      <path id="path600" d="M-.266,0H2.818a.066.066,0,0,1,.068.065V.2a.067.067,0,0,1-.068.065H-.266A.066.066,0,0,1-.333.2V.065A.066.066,0,0,1-.266,0" transform="translate(0.333)" fill="#3d3a3a"/>
    </g>
    <g id="g602" transform="translate(46.381 88.213)">
      <path id="path604" d="M-1.916,0h-.436A.05.05,0,0,0-2.4.049.05.05,0,0,0-2.352.1h.436a.05.05,0,0,0,.05-.049A.05.05,0,0,0-1.916,0" transform="translate(2.403)" fill="#ffcc5a"/>
    </g>
    <g id="g606" transform="translate(45.59 88.213)">
      <path id="path608" d="M-1.915,0H-2.35A.05.05,0,0,0-2.4.049.05.05,0,0,0-2.35.1h.435A.05.05,0,0,0-1.864.049.05.05,0,0,0-1.915,0" transform="translate(2.401)" fill="#ffcc5a"/>
    </g>
    <g id="g610" transform="translate(23.739 86.514)">
      <path id="path612" d="M-16.583-2.953c-.021.1-.059.266-.62.307a1.837,1.837,0,0,0,.261-.588.484.484,0,0,1,.328.124.174.174,0,0,1,.032.157m.224-.352a.752.752,0,0,0-.535-.241c0-.041.006-.081.006-.123h-3.906a1.918,1.918,0,0,0,1.953,1.88,1.984,1.984,0,0,0,1.363-.536c.763,0,1.125-.169,1.213-.564a.481.481,0,0,0-.095-.417" transform="translate(20.793 3.668)" fill="#ffa95c"/>
    </g>
    <g id="g614" transform="translate(24.53 82.492)">
      <path id="path616" d="M-.641-12.214A.16.16,0,0,1-.8-12.371.689.689,0,0,1-.41-12.94c.164-.111.257-.18.257-.313s-.093-.2-.257-.313A.689.689,0,0,1-.8-14.135.688.688,0,0,1-.41-14.7c.164-.111.257-.18.257-.313a.16.16,0,0,1,.163-.157.16.16,0,0,1,.163.157.687.687,0,0,1-.395.569c-.164.111-.256.18-.256.313s.092.2.256.313a.688.688,0,0,1,.395.569.688.688,0,0,1-.395.569c-.164.111-.256.18-.256.313a.16.16,0,0,1-.163.157" transform="translate(0.804 15.173)" fill="#f2f0f0"/>
    </g>
    <g id="g618" transform="translate(25.912 82.905)">
      <path id="path620" d="M-.642-12.216a.16.16,0,0,1-.163-.157.688.688,0,0,1,.395-.569c.164-.111.257-.18.257-.313s-.093-.2-.256-.313a.689.689,0,0,1-.395-.569.687.687,0,0,1,.395-.569c.164-.111.256-.18.256-.313a.16.16,0,0,1,.163-.157.16.16,0,0,1,.163.157.687.687,0,0,1-.394.569c-.164.111-.256.18-.256.313s.092.2.256.313a.688.688,0,0,1,.394.569.688.688,0,0,1-.394.569c-.164.111-.256.18-.256.313a.16.16,0,0,1-.163.157" transform="translate(0.805 15.175)" fill="#f2f0f0"/>
    </g>
    <g id="g622" transform="translate(16.483 68.769)">
      <path id="path624" d="M-1.556,0a6.408,6.408,0,0,1-.377,2.85c-.239.469,2.025,1.1,1.578.206a3.066,3.066,0,0,1,.3-2.33Z" transform="translate(1.951)" fill="#fcbaa2"/>
    </g>
    <g id="g626" transform="translate(27.388 75.313)">
      <path id="path628" d="M-1.888-5.351c.04-.031,1.177-.81,1.177-.81l-.556-.486-1.1.778Z" transform="translate(2.368 6.647)" fill="#fcbaa2"/>
    </g>
    <g id="g630" transform="translate(27.121 75.799)">
      <path id="path632" d="M0-1.628c.015-.016.422-.394.422-.394l.668.683-.343.288Z" transform="translate(0 2.023)" fill="#ffa95c"/>
    </g>
    <g id="g634" transform="translate(12.763 87.79)">
      <path id="path636" d="M-9.9-38.728l-2.514,13.392,1.145.015,3.4-13.392.345-9.4-2.7.309Z" transform="translate(12.416 48.109)" fill="#fcbaa2"/>
    </g>
    <g id="g638" transform="translate(18.45 87.79)">
      <path id="path640" d="M0-1.275.3,7.8.1,21.189l1.188.015L2.334,7.819l.344-9.4Z" transform="translate(0 1.584)" fill="#fcbaa2"/>
    </g>
    <g id="g642" transform="translate(14.955 87.789)">
      <path id="path644" d="M-.649-20.35c.583.057,1.45.148,2.349.244l.189-5.174-2.7.309Z" transform="translate(0.813 25.28)" fill="#3d3a3a"/>
    </g>
    <g id="g646" transform="translate(18.449 87.789)">
      <path id="path648" d="M0-1.276.165,3.708c.959.1,1.833.2,2.311.244l.2-5.538Z" transform="translate(0 1.585)" fill="#3d3a3a"/>
    </g>
    <g id="g650" transform="translate(18.277 110.125)">
      <path id="path652" d="M-.979,0l-.246,1.958a.359.359,0,0,0,.353.407h3.84L2.963,2.35a.737.737,0,0,0-.641-.479A1.965,1.965,0,0,1,.434.143Z" transform="translate(1.228)" fill="#3d3a3a"/>
    </g>
    <g id="g654" transform="translate(12.214 110.125)">
      <path id="path656" d="M-2.024,0l-.5,1.911a.36.36,0,0,0,.344.454H.773A.729.729,0,0,0,.3,1.835,1.383,1.383,0,0,1-.63.143Z" transform="translate(2.538)" fill="#3d3a3a"/>
    </g>
    <g id="g658" transform="translate(12.542 71.551)">
      <path id="path660" d="M-11.611-28.7l-1.366-.655.632-2.727ZM.882-30.432l-.629-.977-4.228,1.871L-6.628-34.63-7.458-35c-.134-.067-.283-.131-.443-.2l-1-.3a3.709,3.709,0,0,0-2.259.042l-.76.259a2.116,2.116,0,0,0-.634.354l-.885.578-1.116,5.77,3.171,1.14-.7,2.59h5.962l-.523-2.734-.141-4.58,2.306,4.2Z" transform="translate(14.559 35.65)" fill="#3d3a3a"/>
    </g>
    <g id="g662" transform="translate(19.539 73.988)">
      <path id="path664" d="M-3.292-34.049a.041.041,0,0,1-.039-.028l-.707-2.436a.04.04,0,0,1,0-.01l-.088-5.734a.04.04,0,0,1,.04-.04h0a.04.04,0,0,1,.041.039l.088,5.729.706,2.43a.04.04,0,0,1-.029.048h-.011" transform="translate(4.128 42.297)" fill="#fff"/>
    </g>
    <g id="g666" transform="translate(16.459 65.293)">
      <path id="path668" d="M-.332-15.015c.125.9.671,1.746,2.266,1.782.44.01.8-1.2.13-4.795-.183-.982-3-1.328-2.4,3.013" transform="translate(0.416 18.652)" fill="#fcbaa2"/>
    </g>
    <g id="g670" transform="translate(13.977 82.44)">
      <path id="path672" d="M-30.425-42.386l-7.726-.426,1.037-9.841h5.962Z" transform="translate(38.151 52.653)" fill="#ffa95c"/>
    </g>
    <g id="g674" transform="translate(14.759 83.132)">
      <path id="path676" d="M-.16-35.4h0A.04.04,0,0,1-.2-35.439l.85-8.5a.038.038,0,0,1,.044-.035.04.04,0,0,1,.037.043l-.85,8.5A.04.04,0,0,1-.16-35.4" transform="translate(0.201 43.97)" fill="#fff2dc"/>
    </g>
    <g id="g678" transform="translate(28.045 74.848)">
      <path id="path680" d="M-3.759-.094c.668-.065,1.3-.027.936.61S-3.8.886-4.552.758c-.417-.072.016-.777.793-.853" transform="translate(4.714 0.117)" fill="#fcbaa2"/>
    </g>
    <g id="g682" transform="translate(13.27 64.332)">
      <path id="path684" d="M-13.575-.392c1.379-.485,4.007.957,2.5,2.74-1.733,2.046-.679,3.19.206,5.345S-17.478,11.707-17,7.166-15.69.352-13.575-.392" transform="translate(17.022 0.487)" fill="#e27b27"/>
    </g>
  </g>
</svg>
