<?xml version="1.0" encoding="UTF-8" standalone="no"?>
<svg width="29px" height="22px" viewBox="0 0 29 22" version="1.1" xmlns="http://www.w3.org/2000/svg" xmlns:xlink="http://www.w3.org/1999/xlink">
    <!-- Generator: sketchtool 40.3 (33839) - http://www.bohemiancoding.com/sketch -->
    <title>C46F9503-CA38-4FC7-9FA5-5A301CB0395F</title>
    <desc>Created with sketchtool.</desc>
    <defs></defs>
    <g id="home" stroke="none" stroke-width="1" fill="none" fill-rule="evenodd">
        <g id="1.3-home-cadastro" transform="translate(-706.000000, -286.000000)" fill="#9B9B9B">
            <g id="enviar-foto" transform="translate(706.000000, 286.000000)">
                <path d="M14.5,9.20690351 C12.747057,9.20690351 11.3209966,10.620886 11.3209966,12.358886 C11.3209966,14.0969825 12.747057,15.5109649 14.5,15.5109649 C16.252943,15.5109649 17.6790034,14.0969825 17.6790034,12.358886 C17.6790034,10.620886 16.252943,9.20690351 14.5,9.20690351 L14.5,9.20690351 Z" id="Shape"></path>
                <path d="M26.591443,2.80625439 L25.6912752,2.80625439 L25.6912752,2.47654386 C25.6912752,1.15760526 24.6129228,0.0883859649 23.2827181,0.0883859649 L16.908557,0.0883859649 C15.5783523,0.0883859649 14.5,1.15760526 14.5,2.47654386 L14.5,2.80625439 L2.40855705,2.80625439 C1.07835235,2.80625439 0,3.87547368 0,5.19450877 L0,19.5234561 C0,20.8423947 1.07835235,21.911614 2.40855705,21.911614 L26.591443,21.911614 C27.9216477,21.911614 29,20.8423947 29,19.5234561 L29,5.19450877 C29,3.87547368 27.9216477,2.80625439 26.591443,2.80625439 L26.591443,2.80625439 Z M4.46950336,9.20690351 C3.39455705,9.20690351 2.52319463,8.34292105 2.52319463,7.27707895 C2.52319463,6.21123684 3.39455705,5.34725439 4.46950336,5.34725439 C5.54444966,5.34725439 6.41581208,6.21123684 6.41581208,7.27707895 C6.41581208,8.34282456 5.54444966,9.20690351 4.46950336,9.20690351 L4.46950336,9.20690351 Z M14.5,19.370614 C10.6007651,19.370614 7.42837919,16.2250965 7.42837919,12.358886 C7.42837919,8.49267544 10.6007651,5.34725439 14.5,5.34725439 C18.3992349,5.34725439 21.5716208,8.49267544 21.5716208,12.358886 C21.5716208,16.2250965 18.3992349,19.370614 14.5,19.370614 L14.5,19.370614 Z" id="Shape"></path>
            </g>
        </g>
    </g>
</svg>