<?xml version="1.0" encoding="UTF-8" standalone="no"?>
<svg width="210px" height="69px" viewBox="0 0 210 69" version="1.1" xmlns="http://www.w3.org/2000/svg" xmlns:xlink="http://www.w3.org/1999/xlink">
    <!-- Generator: sketchtool 40.3 (33839) - http://www.bohemiancoding.com/sketch -->
    <title>92B09AFE-5CEB-4F44-9E52-7645160A78ED</title>
    <desc>Created with sketchtool.</desc>
    <defs></defs>
    <g id="home" stroke="none" stroke-width="1" fill="none" fill-rule="evenodd">
        <g id="1.0-home" transform="translate(-615.000000, -381.000000)">
            <g id="ic_googleplay" transform="translate(615.000000, 381.000000)">
                <rect id="Rectangle-4" fill="#D73C2C" x="0" y="0" width="210" height="68.8423858" rx="3"></rect>
                <path d="M145.216866,48.8403883 L143.680823,50.2809335 C143.326791,50.4749622 142.97371,50.7002249 142.621581,50.8601803 C141.554726,51.3419394 140.469789,51.4630891 139.505717,51.4630891 C138.479785,51.4630891 136.871413,51.3977819 135.231635,50.2175192 C132.952315,48.6198581 131.955886,45.8760077 131.955886,43.4842485 C131.955886,38.5322563 136.009174,36.1035843 139.314426,36.1035843 C140.470741,36.1035843 141.65751,36.3913147 142.622533,36.9980095 C144.227098,38.0523901 144.642039,39.4238421 144.872351,40.1592583 L137.321567,43.1927321 L134.849052,43.3839214 C135.649431,47.4433814 138.411263,49.8048532 141.463363,49.8048532 C142.987986,49.8048532 144.119556,49.3107897 145.15786,48.7996896 C145.156909,48.8006361 145.365331,48.6927372 145.216866,48.8403883 L145.216866,48.8403883 Z M140.662032,40.7640601 C141.275878,40.5425834 141.593746,40.3504476 141.593746,39.9065477 C141.593746,38.6306904 140.142404,37.1579649 138.410311,37.1579649 C137.126469,37.1579649 134.718669,38.1517707 134.718669,41.6016964 C134.718669,42.1402445 134.782433,42.7138124 134.815742,43.2873803 L140.662032,40.7640601 L140.662032,40.7640601 Z" id="Shape" fill="#FFFFFF"></path>
                <path d="M130.709159,50.1238175 C131.259242,50.1881783 131.80742,50.2175192 132.350841,50.2809335 L131.16312,50.9841694 L125.503363,50.9841694 C126.245689,50.0263299 126.373216,49.9316817 126.373216,49.2928066 L126.373216,48.5801059 L126.360844,29.5908438 L123.861682,29.5908438 L126.266626,28.4380291 L130.859528,28.4380291 C129.86405,29.0106506 129.56712,29.3608488 129.43864,30.4776972 L129.431027,48.5924101 C129.431027,49.8341941 129.653725,50.0272764 130.709159,50.1238175 Z" id="Shape" fill="#FFFFFF"></path>
                <path d="M120.653503,37.670958 C121.390118,38.2738668 122.929968,39.5525636 122.929968,41.9802891 C122.929968,44.3455468 121.589023,45.4605022 120.236658,46.5158293 C119.821717,46.9313348 119.337302,47.3818601 119.337302,48.0784706 C119.337302,48.7845459 119.822669,49.167871 120.171943,49.4537085 L121.332064,50.3443477 C122.742483,51.5283963 124.028229,52.6140108 124.028229,54.8193131 C124.028229,57.8243925 121.104608,60.8531339 115.579993,60.8531339 C110.926182,60.8531339 108.676365,58.6497245 108.676365,56.2863598 C108.676365,55.135438 109.251191,53.506543 111.151735,52.3915876 C113.142691,51.1810375 115.840758,51.0191892 117.284487,50.924541 C116.833381,50.3452942 116.318512,49.7385995 116.318512,48.7485796 C116.318512,48.2071921 116.482204,47.8844418 116.640186,47.5039562 C116.289009,47.5370831 115.934977,47.5711564 115.613302,47.5711564 C112.20717,47.5711564 110.28093,45.0440503 110.28093,42.5529105 C110.28093,41.0839709 110.954733,39.455076 112.338504,38.2729203 C114.169574,36.7736933 116.352773,36.5153038 118.087721,36.5153038 L124.705839,36.5153038 L122.648265,37.670958 L120.653503,37.670958 L120.653503,37.670958 Z M118.377038,51.8502001 C118.114369,51.8161268 117.956386,51.8161268 117.638519,51.8161268 C117.347299,51.8161268 115.612351,51.8785946 114.268551,52.3272269 C113.557631,52.5856164 111.502912,53.3494271 111.502912,55.6190902 C111.502912,57.8830744 113.721324,59.5148088 117.154104,59.5148088 C120.236658,59.5148088 121.874533,58.0449227 121.874533,56.0658295 C121.873581,54.4369345 120.81434,53.5775292 118.377038,51.8502001 L118.377038,51.8502001 Z M119.301138,45.7813595 C120.043463,45.0449968 120.108179,44.0265825 120.108179,43.4473357 C120.108179,41.1502247 118.73107,37.5725239 116.061553,37.5725239 C115.228816,37.5725239 114.326605,37.9889758 113.81459,38.6306904 C113.272122,39.296067 113.109381,40.1592583 113.109381,40.9893228 C113.109381,43.1283714 114.362769,46.6757847 117.122698,46.6757847 C117.926884,46.6757847 118.79293,46.2867808 119.301138,45.7813595 L119.301138,45.7813595 Z" id="Shape" fill="#FFFFFF"></path>
                <path d="M100.742047,51.3977819 C95.6371306,51.3977819 92.9057531,47.4433814 92.9057531,43.8647341 C92.9057531,39.6822316 96.3394848,36.1035843 101.223606,36.1035843 C105.944987,36.1035843 108.901918,39.7797192 108.901918,43.6394715 C108.901918,47.4083616 105.979249,51.3977819 100.742047,51.3977819 L100.742047,51.3977819 Z M104.758218,48.8138869 C105.534805,47.7916866 105.723242,46.5158293 105.723242,45.2721524 C105.723242,42.4592088 104.375635,37.0945506 100.392773,37.0945506 C99.3335313,37.0945506 98.2666762,37.5062702 97.497703,38.1792186 C96.2433631,39.2970135 96.0197138,40.7006459 96.0197138,42.0787232 C96.0197138,45.2342931 97.5871628,50.4389959 101.479614,50.4389959 C102.736809,50.4389959 104.018748,49.8341941 104.758218,48.8138869 L104.758218,48.8138869 Z" id="Shape" fill="#FFFFFF"></path>
                <path d="M83.6504758,51.3977819 C78.5446082,51.3977819 75.8170376,47.4433814 75.8170376,43.8647341 C75.8170376,39.6822316 79.2517209,36.1035843 84.1339392,36.1035843 C88.8524651,36.1035843 91.8065403,39.7797192 91.8065403,43.6394715 C91.8074919,47.4083616 88.8886297,51.3977819 83.6504758,51.3977819 L83.6504758,51.3977819 Z M87.6675993,48.8138869 C88.4384758,47.7916866 88.6307191,46.5158293 88.6307191,45.2721524 C88.6307191,42.4592088 87.2793059,37.0945506 83.3002504,37.0945506 C82.2372021,37.0945506 81.1817674,37.5062702 80.4108909,38.1792186 C79.1546476,39.2970135 78.9319499,40.7006459 78.9319499,42.0787232 C78.9319499,45.2342931 80.5060608,50.4389959 84.3918497,50.4389959 C85.6461896,50.4389959 86.9262254,49.8341941 87.6675993,48.8138869 L87.6675993,48.8138869 Z" id="Shape" fill="#FFFFFF"></path>
                <path d="M73.7765939,50.2894518 L69.4711055,51.2690603 C67.7266404,51.5425936 66.1601431,51.7839464 64.5013309,51.7839464 C56.1958497,51.7839464 53.0324007,45.703748 53.0324007,40.9467311 C53.0324007,35.1353335 57.5158569,29.7489063 65.1932165,29.7489063 C66.8177674,29.7489063 68.3814097,29.9864732 69.8051521,30.3716912 C72.0616315,31.0029945 73.1161145,31.7791095 73.7765939,32.2353137 L71.2755277,34.597732 L70.2210447,34.8324594 L70.9728873,33.6398925 C69.9545689,32.6508191 68.082576,30.825056 64.5298819,30.825056 C59.7799499,30.825056 56.1958497,34.4160075 56.1958497,39.6585695 C56.1958497,45.2891891 60.2881574,50.5857006 66.8491735,50.5857006 C68.7773166,50.5857006 69.7699392,50.2004825 70.6711986,49.8408195 L70.6711986,45.0137629 L66.1258819,45.2570087 L68.535585,43.9697936 L74.9148265,43.9697936 L74.1353846,44.7165676 C73.9241073,44.8945062 73.8965081,44.955081 73.8375027,45.1935944 C73.8060966,45.4661811 73.7775456,46.3331584 73.7775456,46.6379255 L73.7775456,50.2894518 L73.7765939,50.2894518 Z" id="Shape" fill="#FFFFFF"></path>
                <path d="M154.474047,48.9766817 L154.474047,57.1126383 L152.849496,57.1126383 L152.849496,36.4111909 L154.474047,36.4111909 L154.474047,38.7679303 C155.531385,37.2450412 157.465238,36.0363841 159.7122,36.0363841 C163.739792,36.0363841 166.454039,39.0755368 166.454039,43.8865032 C166.454039,48.6652892 163.739792,51.7678562 159.7122,51.7678562 C157.591814,51.7688027 155.692222,50.6812952 154.474047,48.9766817 L154.474047,48.9766817 Z M164.708623,43.8874497 C164.708623,40.2614784 162.808079,37.4958589 159.438111,37.4958589 C157.345324,37.4958589 155.3439,39.1323257 154.474047,40.5577271 L154.474047,47.1840454 C155.3439,48.6132327 157.345324,50.3083814 159.438111,50.3083814 C162.808079,50.3083814 164.708623,47.5190999 164.708623,43.8874497 L164.708623,43.8874497 Z" id="Shape" fill="#FFFFFF"></path>
                <polygon id="Shape" fill="#FFFFFF" points="168.672451 51.3958889 168.672451 30.695388 170.29605 30.695388 170.29605 51.3958889 168.672451 51.3958889"></polygon>
                <path d="M188.524902,55.7733667 C188.87132,55.9266967 189.464229,56.0222914 189.841102,56.0222914 C190.834676,56.0222914 191.526562,55.6181437 192.148021,54.1899028 L193.332887,51.5208245 L186.932708,36.4111909 L188.744744,36.4111909 L194.234147,49.5048185 L199.670254,36.4111909 L201.507986,36.4111909 L193.703098,54.6905916 C192.893202,56.5740902 191.618877,57.4798732 189.868701,57.4798732 C189.343363,57.4798732 188.651478,57.3861715 188.245102,57.2631289 L188.524902,55.7733667 L188.524902,55.7733667 Z" id="Shape" fill="#FFFFFF"></path>
                <path d="M183.779728,51.3514043 C183.671234,50.8317858 183.589388,50.3746352 183.529431,49.9913101 C183.478991,49.609878 183.451392,49.2199275 183.451392,48.8233517 C182.893696,49.6363794 182.104737,50.3131138 181.096887,50.8469295 C180.088086,51.3826381 179.130676,51.6467065 177.815428,51.6467065 C176.232751,51.6467065 175.005059,51.2595955 174.127592,50.4740157 C173.253932,49.6893824 172.814247,48.6264835 172.814247,47.281533 C172.814247,45.9384755 173.450934,44.8481286 174.720501,44.0142782 C175.990068,43.1766419 177.63175,42.7611365 179.661725,42.7611365 L183.45044,42.7611365 L183.45044,40.8984605 C183.45044,39.8260968 183.082132,38.9837281 182.349324,38.3713544 C181.612708,37.7599273 180.579163,37.4494813 179.238218,37.4494813 C178.013381,37.4494813 177.019807,37.7324793 176.263206,38.2833316 C175.513267,38.8455418 175.136394,39.5421523 175.136394,40.3816815 L173.473775,40.3816815 L173.439513,40.3012306 C173.378605,39.170185 173.900136,38.1763792 175.006962,37.3198133 C176.108079,36.4632474 177.552758,36.0325982 179.329581,36.0325982 C181.099742,36.0325982 182.533002,36.456622 183.614132,37.3027766 C184.69336,38.1404129 185.234877,39.350963 185.234877,40.9334803 L185.234877,48.3264488 C185.234877,48.857425 185.259621,49.3704181 185.327191,49.8701604 C185.395714,50.3708492 185.505159,50.8705916 185.650769,51.3532972 L183.779728,51.3532972 L183.779728,51.3514043 Z M178.015284,50.173981 C179.395249,50.173981 180.386919,49.867321 181.401431,49.2606262 C182.408329,48.6567709 183.092601,47.8702446 183.452343,46.918084 L183.452343,44.0407797 L179.645546,44.0407797 C178.191349,44.0407797 176.987449,44.3606905 176.040508,45.0071375 C175.091664,45.6507451 174.610104,46.4296995 174.610104,47.3354825 C174.610104,48.1892089 174.914648,48.8735152 175.52088,49.3912407 C176.127113,49.9146451 176.956995,50.173981 178.015284,50.173981 L178.015284,50.173981 Z" id="Shape" fill="#FFFFFF"></path>
                <polygon id="Shape" points="31.8190197 43.043188 37.0305259 37.8602543 37.0286225 37.8602543 31.8190197 43.043188 15.1861682 26.5034206 15.1852165 26.5034206 31.8190197 43.0460275 15.1585689 59.6151358 31.8190197 43.0460275 37.0533667 48.2516767 37.0562218 48.2516767"></polygon>
                <path d="M52.9924293,13.7145601 C52.9924293,10.5334351 55.3688229,8.4880882 58.3248014,8.4880882 C60.305288,8.4880882 61.5995993,9.42699803 62.4075921,10.5788662 L60.9600572,11.4127166 C60.4118784,10.6545848 59.4516136,10.0639802 58.3248014,10.0639802 C56.3148122,10.0639802 54.820644,11.5792974 54.820644,13.7145601 C54.820644,15.8204818 56.3138605,17.3651399 58.3248014,17.3651399 C59.3612021,17.3651399 60.2748336,16.895685 60.7316494,16.4565175 L60.7316494,14.8957692 L57.6852594,14.8957692 L57.6852594,13.3359674 L62.4989553,13.3359674 L62.4989553,17.1076969 C61.5091878,18.214134 60.0768801,18.9561756 58.3248014,18.9561756 C55.3688229,18.9561756 52.9924293,16.8814878 52.9924293,13.7145601 L52.9924293,13.7145601 Z" id="Shape" fill="#FFFFFF"></path>
                <polygon id="Shape" fill="#FFFFFF" points="64.7030912 18.7593074 64.7030912 8.65372249 71.6638211 8.65372249 71.6638211 10.2144708 66.4846726 10.2144708 66.4846726 12.8201349 71.5581825 12.8201349 71.5581825 14.3808832 66.4846726 14.3808832 66.4846726 17.1995056 71.6638211 17.1995056 71.6638211 18.7593074 64.7030912 18.7593074"></polygon>
                <polygon id="Shape" fill="#FFFFFF" points="76.5964794 18.7593074 76.5964794 10.2154173 73.5196351 10.2154173 73.5196351 8.65466897 81.4558569 8.65466897 81.4558569 10.2154173 78.3799642 10.2154173 78.3799642 18.7593074"></polygon>
                <polygon id="Shape" fill="#FFFFFF" points="87.6504687 18.7593074 87.6504687 8.65372249 89.4320501 8.65372249 89.4320501 18.7593074"></polygon>
                <polygon id="Shape" fill="#FFFFFF" points="94.3961145 18.7593074 94.3961145 10.2154173 91.3192701 10.2154173 91.3192701 8.65466897 99.2554919 8.65466897 99.2554919 10.2154173 96.1786476 10.2154173 96.1786476 18.7593074"></polygon>
                <path d="M105.008515,13.7145601 C105.008515,10.6990694 107.156501,8.4880882 110.203843,8.4880882 C113.234054,8.4880882 115.398218,10.7000159 115.398218,13.7145601 C115.398218,16.7291042 113.234054,18.9410319 110.203843,18.9410319 C107.155549,18.9410319 105.008515,16.7291042 105.008515,13.7145601 L105.008515,13.7145601 Z M113.570004,13.7145601 C113.570004,11.623782 112.244286,10.0639802 110.203843,10.0639802 C108.14722,10.0639802 106.83673,11.623782 106.83673,13.7145601 C106.83673,15.7892479 108.14722,17.3651399 110.203843,17.3651399 C112.244286,17.3651399 113.570004,15.7892479 113.570004,13.7145601 L113.570004,13.7145601 Z" id="Shape" fill="#FFFFFF"></path>
                <polygon id="Shape" fill="#FFFFFF" points="124.563084 18.7593074 119.262118 11.5329198 119.262118 18.7593074 117.480537 18.7593074 117.480537 8.65372249 119.308751 8.65372249 124.503127 15.653901 124.503127 8.65372249 126.28566 8.65372249 126.28566 18.7593074"></polygon>
                <path d="M14.4286559,58.359844 C13.8428428,58.2024103 13.4615385,57.6221306 13.4615385,56.724174 L13.4615385,27.0839477 C13.4615385,26.2523031 13.7843944,25.6914194 14.2961836,25.4874929 L14.2961836,25.4874929 L28.8953492,42.0055699 L14.4286559,58.359844 L14.4286559,58.359844 Z M16.438336,57.730677 L34.0111241,47.7937611 L29.7310217,42.951083 L16.438336,57.730677 L16.438336,57.730677 Z M34.1321318,36.0855039 L16.8042395,26.2847922 L29.7563593,41.0322171 L34.1321318,36.0855039 L34.1321318,36.0855039 Z M35.3078153,36.7504742 L42.0959294,40.5898534 C43.3811775,41.3167938 43.3929311,42.4886139 42.0959294,43.2220318 L35.1360826,47.1576288 L30.5964923,41.9888017 L35.3078153,36.7504742 L35.3078153,36.7504742 Z" id="google-play" fill="#FFFFFF"></path>
            </g>
        </g>
    </g>
</svg>