<?xml version="1.0" encoding="utf-8"?>
<!-- Generator: Adobe Illustrator 20.1.0, SVG Export Plug-In . SVG Version: 6.00 Build 0)  -->
<svg version="1.1" id="Layer_1" xmlns="http://www.w3.org/2000/svg" xmlns:xlink="http://www.w3.org/1999/xlink" x="0px" y="0px"
	 viewBox="0 0 155.9 104.9" style="enable-background:new 0 0 155.9 104.9;" xml:space="preserve">
<style type="text/css">
	.st0{fill:#999999;}
</style>
<g>
	<path class="st0" d="M155.9,45.5c-2.9,5.6-5.4,11.4-8.8,16.7c-1.6,2.5-4.2,5-7,6c-6.6,2.5-8,7.1-7.1,13.3c0.2,1.1-0.2,2.4-0.3,3.9
		c-8.1,0-15.9,0-24.2,0c0-10.3,0-20.5,0-31.4c2.6,0,5.2,0,7.7,0c10-0.2,15.7-7.1,14.8-17.7c-0.8-9-8.7-15.2-17.4-13.6
		c-8.2,1.5-13.7,10.9-11.3,19.7c0.7,2.8,2.3,5.3,3.7,8.6c-4.5,4.8-9.5,10-14.4,15.2C70.7,51.4,74.7,16.5,98.2,5
		c21.9-10.7,51.3-1,56.7,23.8c0.1,0.4,0.6,0.7,1,1C155.9,35.1,155.9,40.3,155.9,45.5z"/>
	<path class="st0" d="M0,29.9c3.9-6.5,6.9-14,12-19.3c12.2-12.5,35.6-13,49.8-2.3c14.2,10.7,18.7,31,10.5,47.2
		c-7,13.8-22.1,21-40.5,19C17.3,72.9,5.3,62.7,1.2,48.7c-0.3-1.1-0.8-2.2-1.2-3.2C0,40.3,0,35.1,0,29.9z M38.4,22.5
		c-8.7-0.1-14.7,6.3-14.7,15.7c-0.1,9.4,5.4,15.5,14,15.7c8.8,0.1,15.1-6.1,15.2-15.3C53.1,29.5,46.8,22.6,38.4,22.5z"/>
	<path class="st0" d="M108.1,104.2c0-1.3,0-2.5,0-3.6c0-3.6,0-7.2,0-11.1c8.3,0,16.3,0,24.6,0c0,4.8,0,9.6,0,14.8
		C124.9,104.2,116.9,104.2,108.1,104.2z"/>
</g>
</svg>
