<svg width="79" height="79" viewBox="0 0 79 79" xmlns="http://www.w3.org/2000/svg"><title>75026E1C-175E-445C-9C1F-7EEEDB5901FC</title><g fill="none" fill-rule="evenodd"><ellipse fill="#B9282E" cx="39.5" cy="39.5" rx="39.5" ry="39.5"/><path d="M16.847 38.075c0 2.456.488 4.273 1.467 5.45.979 1.176 2.208 1.764 3.689 1.764 1.497 0 2.726-.58 3.688-1.738.962-1.16 1.442-3.02 1.442-5.58 0-2.389-.484-4.166-1.454-5.334-.97-1.168-2.17-1.752-3.6-1.752-1.514 0-2.765.594-3.753 1.778-.986 1.186-1.48 2.99-1.48 5.412zM6.432 38.1c0-4.205 1.395-7.669 4.186-10.394 2.79-2.724 6.56-4.087 11.308-4.087 5.428 0 9.53 1.6 12.304 4.801 2.229 2.579 3.344 5.753 3.344 9.524 0 4.24-1.383 7.713-4.148 10.42-2.766 2.708-6.59 4.062-11.474 4.062-4.357 0-7.88-1.125-10.568-3.374-3.302-2.785-4.952-6.436-4.952-10.952zM52.98 44.958v12.126h9.32v-5.23s10.156-3.567 8.961-14.326c-1.194-10.759-7.886-13.91-15.234-13.91-14.398.595-15.235 13.613-15.235 13.613s-.18 8.024 4.9 12.007c.238.059 6.033-5.885 6.033-5.885s-2.15-2.08-1.553-7.014c.598-4.933 6.512-4.815 6.691-4.695.179.118 5.317.356 5.257 6.716-.06 6.36-4.72 7.312-9.14 6.598M53.16 65.098h9.475v-5.96H53.16z" fill="#FFF"/></g></svg>